<?xml version="1.0" encoding="UTF-8" standalone="no"?>
<!-- Created with Inkscape (http://www.inkscape.org/) -->

<svg
   xmlns:dc="http://purl.org/dc/elements/1.1/"
   xmlns:cc="http://creativecommons.org/ns#"
   xmlns:rdf="http://www.w3.org/1999/02/22-rdf-syntax-ns#"
   xmlns:svg="http://www.w3.org/2000/svg"
   xmlns="http://www.w3.org/2000/svg"
   xmlns:sodipodi="http://sodipodi.sourceforge.net/DTD/sodipodi-0.dtd"
   xmlns:inkscape="http://www.inkscape.org/namespaces/inkscape"
   width="210mm"
   height="297mm"
   viewBox="0 0 744.09448819 1052.3622047"
   id="svg2"
   version="1.1"
   inkscape:version="0.91 r13725"
   sodipodi:docname="logoSafna.svg">
  <defs
     id="defs4">
    <inkscape:path-effect
       fuse_tolerance="0"
       vertical_pattern="false"
       prop_units="false"
       tang_offset="0"
       normal_offset="0"
       spacing="0"
       scale_y_rel="false"
       prop_scale="1"
       copytype="single_stretched"
       pattern="m 587.83768,243.31698 c 0,-2.76 2.24,-5 5,-5 2.76,0 5,2.24 5,5 0,2.76 -2.24,5 -5,5 -2.76,0 -5,-2.24 -5,-5 z"
       is_visible="true"
       id="path-effect8355"
       effect="skeletal" />
    <inkscape:path-effect
       is_visible="true"
       id="path-effect8353"
       effect="spiro" />
    <inkscape:path-effect
       fuse_tolerance="1.9"
       vertical_pattern="false"
       prop_units="false"
       tang_offset="0"
       normal_offset="0"
       spacing="0"
       scale_y_rel="false"
       prop_scale="0.86"
       copytype="single_stretched"
       pattern="m 1421.2175,300.90026 c 0,-2.76 2.24,-5 5,-5 2.76,0 5,2.24 5,5 0,2.76 -2.24,5 -5,5 -2.76,0 -5,-2.24 -5,-5 z"
       is_visible="true"
       id="path-effect8329"
       effect="skeletal" />
    <inkscape:path-effect
       is_visible="true"
       id="path-effect8327"
       effect="spiro" />
    <inkscape:path-effect
       fuse_tolerance="0"
       vertical_pattern="false"
       prop_units="false"
       tang_offset="0"
       normal_offset="0"
       spacing="0"
       scale_y_rel="false"
       prop_scale="1"
       copytype="single_stretched"
       pattern="m 1125.3617,433.54583 c 0,-2.76 2.24,-5 5,-5 2.76,0 5,2.24 5,5 0,2.76001 -2.24,5.00001 -5,5.00001 -2.76,0 -5,-2.24 -5,-5.00001 z"
       is_visible="true"
       id="path-effect4347"
       effect="skeletal" />
    <inkscape:path-effect
       is_visible="true"
       id="path-effect4345"
       effect="spiro" />
    <inkscape:path-effect
       effect="skeletal"
       id="path-effect4208"
       is_visible="true"
       pattern="m 967.14286,-102.14286 c 0,-2.76 2.24,-5 5,-5 2.76,0 5,2.24 5,5 0,2.760003 -2.24,5.000003 -5,5.000003 -2.76,0 -5,-2.24 -5,-5.000003 z"
       copytype="single_stretched"
       prop_scale="1"
       scale_y_rel="false"
       spacing="0"
       normal_offset="0"
       tang_offset="0"
       prop_units="false"
       vertical_pattern="false"
       fuse_tolerance="0" />
    <inkscape:path-effect
       effect="spiro"
       id="path-effect4206"
       is_visible="true" />
    <inkscape:path-effect
       effect="skeletal"
       id="path-effect4202"
       is_visible="true"
       pattern="M 0,5 C 0,2.24 2.24,0 5,0 7.76,0 10,2.24 10,5 10,7.76 7.76,10 5,10 2.24,10 0,7.76 0,5 Z"
       copytype="single_stretched"
       prop_scale="1"
       scale_y_rel="false"
       spacing="0"
       normal_offset="0"
       tang_offset="0"
       prop_units="false"
       vertical_pattern="false"
       fuse_tolerance="0" />
    <inkscape:path-effect
       effect="spiro"
       id="path-effect4200"
       is_visible="true" />
    <inkscape:path-effect
       effect="skeletal"
       id="path-effect4186"
       is_visible="true"
       pattern="m -395.71429,77.857143 c 0,-2.76 2.24,-5 5,-5 2.76,0 5,2.24 5,5 0,2.76 -2.24,5 -5,5 -2.76,0 -5,-2.24 -5,-5 z"
       copytype="single_stretched"
       prop_scale="1"
       scale_y_rel="false"
       spacing="0"
       normal_offset="0"
       tang_offset="0"
       prop_units="false"
       vertical_pattern="false"
       fuse_tolerance="0" />
    <inkscape:path-effect
       effect="skeletal"
       id="path-effect4182"
       is_visible="true"
       pattern="m -434.28571,-182.14286 c 0,-2.76 2.24,-5 5,-5 2.76,0 5,2.24 5,5 0,2.76 -2.24,5 -5,5 -2.76,0 -5,-2.24 -5,-5 z"
       copytype="single_stretched"
       prop_scale="1"
       scale_y_rel="false"
       spacing="0"
       normal_offset="0"
       tang_offset="0"
       prop_units="false"
       vertical_pattern="false"
       fuse_tolerance="0" />
    <inkscape:path-effect
       effect="skeletal"
       id="path-effect4178"
       is_visible="true"
       pattern="m -247.14284,-105 c 0,-2.76 2.24,-5 5,-5 2.76,0 5,2.24 5,5 0,2.76 -2.24,5 -5,5 -2.76,0 -5,-2.24 -5,-5 z"
       copytype="single_stretched"
       prop_scale="1"
       scale_y_rel="false"
       spacing="0"
       normal_offset="0"
       tang_offset="0"
       prop_units="false"
       vertical_pattern="false"
       fuse_tolerance="0" />
    <inkscape:path-effect
       effect="skeletal"
       id="path-effect4174"
       is_visible="true"
       pattern="M 0,5 C 0,2.24 2.24,0 5,0 7.76,0 10,2.24 10,5 10,7.76 7.76,10 5,10 2.24,10 0,7.76 0,5 Z"
       copytype="single_stretched"
       prop_scale="1"
       scale_y_rel="false"
       spacing="0"
       normal_offset="0"
       tang_offset="0"
       prop_units="false"
       vertical_pattern="false"
       fuse_tolerance="0" />
    <inkscape:path-effect
       effect="skeletal"
       id="path-effect4170"
       is_visible="true"
       pattern="m 635.71429,-566.42857 c 0,-2.76 2.24,-5 5,-5 2.76,0 5,2.24 5,5 0,2.76 -2.24,5 -5,5 -2.76,0 -5,-2.24 -5,-5 z"
       copytype="single_stretched"
       prop_scale="1"
       scale_y_rel="false"
       spacing="0"
       normal_offset="0"
       tang_offset="0"
       prop_units="false"
       vertical_pattern="false"
       fuse_tolerance="0" />
    <inkscape:path-effect
       effect="skeletal"
       id="path-effect4166"
       is_visible="true"
       pattern="M 0,5 C 0,2.24 2.24,0 5,0 7.76,0 10,2.24 10,5 10,7.76 7.76,10 5,10 2.24,10 0,7.76 0,5 Z"
       copytype="single_stretched"
       prop_scale="1"
       scale_y_rel="false"
       spacing="0"
       normal_offset="0"
       tang_offset="0"
       prop_units="false"
       vertical_pattern="false"
       fuse_tolerance="0" />
    <inkscape:path-effect
       effect="skeletal"
       id="path-effect4162"
       is_visible="true"
       pattern="M 0,5 C 0,2.24 2.24,0 5,0 7.76,0 10,2.24 10,5 10,7.76 7.76,10 5,10 2.24,10 0,7.76 0,5 Z"
       copytype="single_stretched"
       prop_scale="1"
       scale_y_rel="false"
       spacing="0"
       normal_offset="0"
       tang_offset="0"
       prop_units="false"
       vertical_pattern="false"
       fuse_tolerance="0" />
    <inkscape:path-effect
       effect="skeletal"
       id="path-effect4158"
       is_visible="true"
       pattern="M 0,5 C 0,2.24 2.24,0 5,0 7.76,0 10,2.24 10,5 10,7.76 7.76,10 5,10 2.24,10 0,7.76 0,5 Z"
       copytype="single_stretched"
       prop_scale="1"
       scale_y_rel="false"
       spacing="0"
       normal_offset="0"
       tang_offset="0"
       prop_units="false"
       vertical_pattern="false"
       fuse_tolerance="0" />
    <inkscape:path-effect
       effect="skeletal"
       id="path-effect4154"
       is_visible="true"
       pattern="M 0,5 C 0,2.24 2.24,0 5,0 7.76,0 10,2.24 10,5 10,7.76 7.76,10 5,10 2.24,10 0,7.76 0,5 Z"
       copytype="single_stretched"
       prop_scale="1"
       scale_y_rel="false"
       spacing="0"
       normal_offset="0"
       tang_offset="0"
       prop_units="false"
       vertical_pattern="false"
       fuse_tolerance="0" />
    <inkscape:path-effect
       effect="skeletal"
       id="path-effect4150"
       is_visible="true"
       pattern="M 0,5 C 0,2.24 2.24,0 5,0 7.76,0 10,2.24 10,5 10,7.76 7.76,10 5,10 2.24,10 0,7.76 0,5 Z"
       copytype="single_stretched"
       prop_scale="1"
       scale_y_rel="false"
       spacing="0"
       normal_offset="0"
       tang_offset="0"
       prop_units="false"
       vertical_pattern="false"
       fuse_tolerance="0" />
    <inkscape:path-effect
       effect="powerstroke"
       id="path-effect4146"
       is_visible="true"
       offset_points="0,0.5"
       sort_points="true"
       interpolator_type="CubicBezierJohan"
       interpolator_beta="0.2"
       start_linecap_type="zerowidth"
       linejoin_type="round"
       miter_limit="4"
       end_linecap_type="zerowidth"
       cusp_linecap_type="round" />
    <inkscape:path-effect
       effect="powerstroke"
       id="path-effect4142"
       is_visible="true"
       offset_points="0,0.5"
       sort_points="true"
       interpolator_type="CubicBezierJohan"
       interpolator_beta="0.2"
       start_linecap_type="zerowidth"
       linejoin_type="round"
       miter_limit="4"
       end_linecap_type="zerowidth"
       cusp_linecap_type="round" />
    <inkscape:path-effect
       effect="spiro"
       id="path-effect4206-3"
       is_visible="true" />
    <inkscape:path-effect
       effect="skeletal"
       id="path-effect4208-6"
       is_visible="true"
       pattern="m 814.4209,-150.14612 c 0,-2.76 2.24,-5 5,-5 2.76,0 5,2.24 5,5 0,2.76 -2.24,5 -5,5 -2.76,0 -5,-2.24 -5,-5 z"
       copytype="single_stretched"
       prop_scale="1"
       scale_y_rel="false"
       spacing="0"
       normal_offset="0"
       tang_offset="0"
       prop_units="false"
       vertical_pattern="false"
       fuse_tolerance="0" />
    <inkscape:path-effect
       effect="skeletal"
       id="path-effect4178-7"
       is_visible="true"
       pattern="m -241.64593,382.68543 c 0,-2.76 2.24,-5 5,-5 2.76,0 5,2.24 5,5 0,2.76 -2.24,5 -5,5 -2.76,0 -5,-2.24 -5,-5 z"
       copytype="single_stretched"
       prop_scale="1"
       scale_y_rel="false"
       spacing="0"
       normal_offset="0"
       tang_offset="0"
       prop_units="false"
       vertical_pattern="false"
       fuse_tolerance="0" />
    <inkscape:path-effect
       effect="skeletal"
       id="path-effect4170-5"
       is_visible="true"
       pattern="m 641.2112,-78.743141 c 0,-2.76 2.24,-5 5,-5 2.76,0 5,2.24 5,5 0,2.76 -2.24,5 -5,5 -2.76,0 -5,-2.24 -5,-5 z"
       copytype="single_stretched"
       prop_scale="1"
       scale_y_rel="false"
       spacing="0"
       normal_offset="0"
       tang_offset="0"
       prop_units="false"
       vertical_pattern="false"
       fuse_tolerance="0" />
    <inkscape:path-effect
       effect="spiro"
       id="path-effect4206-2"
       is_visible="true" />
    <inkscape:path-effect
       effect="skeletal"
       id="path-effect4208-9"
       is_visible="true"
       pattern="m 814.4209,-355.8792 c 0,-2.76 2.24,-5 5,-5 2.76,0 5,2.24 5,5 0,2.76 -2.24,5 -5,5 -2.76,0 -5,-2.24 -5,-5 z"
       copytype="single_stretched"
       prop_scale="1"
       scale_y_rel="false"
       spacing="0"
       normal_offset="0"
       tang_offset="0"
       prop_units="false"
       vertical_pattern="false"
       fuse_tolerance="0" />
    <inkscape:path-effect
       effect="spiro"
       id="path-effect4206-27"
       is_visible="true" />
    <inkscape:path-effect
       effect="skeletal"
       id="path-effect4208-0"
       is_visible="true"
       pattern="m 814.42878,-355.8773 c 0,-2.76 2.24,-5 5,-5 2.76,0 5,2.24 5,5 0,2.76 -2.24,5 -5,5 -2.76,0 -5,-2.24 -5,-5 z"
       copytype="single_stretched"
       prop_scale="1"
       scale_y_rel="false"
       spacing="0"
       normal_offset="0"
       tang_offset="0"
       prop_units="false"
       vertical_pattern="false"
       fuse_tolerance="0" />
  </defs>
  <sodipodi:namedview
     id="base"
     pagecolor="#ffffff"
     bordercolor="#666666"
     borderopacity="1.0"
     inkscape:pageopacity="0.0"
     inkscape:pageshadow="2"
     inkscape:zoom="0.98994949"
     inkscape:cx="285.30282"
     inkscape:cy="597.65677"
     inkscape:document-units="px"
     inkscape:current-layer="layer1"
     showgrid="false"
     inkscape:window-width="1908"
     inkscape:window-height="1091"
     inkscape:window-x="6"
     inkscape:window-y="46"
     inkscape:window-maximized="1"
     showguides="false" />
  <metadata
     id="metadata7">
    <rdf:RDF>
      <cc:Work
         rdf:about="">
        <dc:format>image/svg+xml</dc:format>
        <dc:type
           rdf:resource="http://purl.org/dc/dcmitype/StillImage" />
        <dc:title></dc:title>
      </cc:Work>
    </rdf:RDF>
  </metadata>
  <g
     inkscape:label="Layer 1"
     inkscape:groupmode="layer"
     id="layer1">
    <path
       style="fill:#000000;fill-opacity:1;fill-rule:nonzero;stroke:none;stroke-width:1px;stroke-linecap:butt;stroke-linejoin:miter;stroke-opacity:1"
       d="m 197.39416,167.60184 c -0.25355,0.001 -2.04707,-10.43875 -0.405,-29.55555 0.54413,-6.35736 1.57404,-14.29717 3.85879,-22.45145 1.42914,-5.123 3.49728,-10.771 6.75881,-16.101531 2.28601,-3.746304 5.33959,-7.449745 9.34202,-10.3758 3.27851,-2.373097 7.16507,-4.113395 11.39845,-4.924573 4.06572,-0.762255 8.27594,-0.707432 12.42194,0.01202 4.34455,0.74834 8.57994,2.126208 12.68816,3.943433 4.32525,1.907156 8.49739,4.253393 12.55983,6.936454 8.23201,5.435635 15.94758,12.079875 23.26072,19.745605 6.44117,6.7354 12.6431,14.31444 18.02013,22.77814 2.15629,3.39046 4.20791,6.99652 5.96714,10.84089 1.37328,2.96526 2.61229,6.23391 3.33025,9.81603 0.28098,1.39565 0.4562,2.91348 0.44238,4.53451 0,0 -10e-6,4e-5 -10e-6,4e-5 0.002,1.34205 -0.20986,2.82247 -0.72717,4.37397 -1e-5,1e-5 -1e-5,5e-5 -1e-5,5e-5 -0.46803,1.38834 -1.27807,2.7294 -2.43642,3.9163 -1.23196,1.1841 -2.62007,2.00512 -4.05024,2.46555 0,0 -5e-5,2e-5 -5e-5,2e-5 -3.51058,1.20961 -7.30747,2.33707 -11.39109,2.93152 -2.39378,0.43763 -5.37435,0.54577 -8.66414,-0.39645 -1.20532,-0.36707 -2.43733,-1.02753 -3.60791,-2.01385 0,0 -5e-5,-3e-5 -5e-5,-3e-5 -1.06527,-0.95192 -1.87809,-2.0764 -2.41335,-3.30877 -1.08432,-2.8307 -1.18794,-5.4261 -0.81805,-7.46852 0.37093,-2.87043 1.12161,-5.48843 1.95861,-7.88207 10e-6,0 10e-6,-3e-5 10e-6,-3e-5 1.04698,-3.05725 2.25821,-5.98474 3.51136,-8.84668 3.07564,-7.03717 6.17354,-13.31179 9.34208,-20.26243 3.21444,-7.066 6.32448,-14.27734 8.66707,-21.6268 2.06565,-6.591611 3.70297,-13.282684 3.55264,-19.766292 -0.0576,-2.808421 -0.40889,-5.55248 -1.23275,-8.049341 -0.78124,-2.408538 -1.99901,-4.686702 -3.59596,-6.610466 -1.75554,-2.160573 -4.09622,-3.981309 -6.71286,-5.49013 -3.27942,-1.888512 -7.03701,-3.195738 -11.01038,-4.204074 -8.5387,-2.120623 -17.50216,-2.968202 -26.40932,-2.375275 -6.83414,0.454932 -13.54075,1.751816 -19.91471,3.902103 -13.97461,4.672745 -26.3917,13.268884 -35.90574,23.966914 -9.86921,11.108667 -16.69753,24.492391 -19.92035,38.322151 -3.50625,15.01015 -2.66688,30.56182 1.85328,44.35673 3.20881,9.71273 8.0761,18.51195 14.74139,25.24891 6.04944,6.17588 13.59252,10.63114 21.46436,13.18225 8.45632,2.75869 17.43045,3.42181 25.94073,2.7868 9.76543,-0.73693 19.1168,-3.22749 27.5796,-6.60329 9.79347,-3.91352 18.50504,-9.07842 25.98376,-14.79512 8.75319,-6.69624 15.7734,-14.10551 21.21145,-21.60451 6.85304,-9.45291 11.02887,-18.80778 13.45216,-27.06711 0,0 0,-1e-5 0,-1e-5 5.90607,-20.09008 1.98481,-31.41728 3.63041,-31.66237 -0.36262,0.054 5.14885,11.1961 0.17187,32.65829 -1e-5,0 -1e-5,1e-5 -1e-5,1e-5 -2.04323,8.79207 -5.97372,18.89335 -12.83216,29.14793 -5.43703,8.13189 -12.59266,16.23238 -21.64713,23.58203 -7.73203,6.28093 -16.83536,12.01127 -27.19758,16.44009 -8.95227,3.83224 -18.98093,6.72452 -29.67283,7.7577 -9.33761,0.90933 -19.35781,0.32077 -29.13148,-2.64922 -9.15163,-2.79843 -17.94637,-7.82126 -25.17596,-14.97364 -7.85347,-7.83564 -13.58544,-17.74565 -17.21556,-28.54974 -5.19588,-15.35314 -6.30283,-32.59347 -2.509,-49.40153 3.49052,-15.43112 10.95271,-30.29671 21.88844,-42.708407 10.5486,-11.983178 24.35583,-21.575789 40.10733,-26.899815 7.22391,-2.422617 14.76934,-3.889719 22.42828,-4.407874 9.98271,-0.675366 19.97633,0.273306 29.49831,2.667855 4.59922,1.134815 9.19675,2.790801 13.52174,5.242118 3.50561,1.985149 6.75678,4.589701 9.44294,7.831162 2.41548,2.956185 4.21498,6.328863 5.34823,9.891376 1.14526,3.644533 1.63835,7.349681 1.66455,10.938495 0.0411,8.131369 -1.7936,15.84627 -4.13472,22.88915 -2.59616,7.93094 -5.89212,15.46965 -9.23155,22.63797 -3.3077,7.11501 -6.41879,13.2791 -9.4502,20.05525 -1.22736,2.74874 -2.36986,5.42292 -3.30817,8.09561 0,0 -10e-6,2e-5 -10e-6,2e-5 -0.73798,2.15205 -1.36546,4.13245 -1.59022,5.98974 -0.0598,1.36801 -0.21388,2.34215 0.0685,2.63834 0.0338,0.0699 0.0596,0.13062 0.0571,0.11571 0,0 0,0 0,0 -0.0131,0.0341 0.15278,0.095 0.40819,0.20896 0.95702,0.45601 2.59485,0.25577 4.58722,0.0968 3.18467,-0.39422 6.45867,-1.35297 9.78974,-2.42391 0,0 10e-6,0 10e-6,0 0.31134,-0.12009 0.55786,-0.22419 0.6261,-0.32422 0.1024,-0.0583 0.21566,-0.27789 0.33741,-0.55217 0,0 10e-6,-2e-5 10e-6,-2e-5 0.16046,-0.35922 0.21793,-0.91332 0.25937,-1.58791 0,-1e-5 0,-2e-5 0,-2e-5 0.0345,-0.8234 -0.0737,-1.74392 -0.24298,-2.73585 -0.44655,-2.59235 -1.44083,-5.2359 -2.595,-7.90903 -1.48933,-3.40273 -3.30699,-6.69863 -5.26197,-9.89547 -4.88907,-7.98516 -10.63815,-15.25226 -16.65945,-21.80295 -6.85403,-7.43781 -13.98017,-13.85957 -21.56339,-19.10391 -3.73327,-2.581338 -7.49355,-4.825407 -11.35007,-6.635526 -3.6678,-1.715705 -7.32223,-3.031121 -10.99015,-3.751467 -3.48022,-0.678428 -6.90148,-0.850445 -10.10222,-0.324416 -3.2989,0.524248 -6.41085,1.796012 -9.04899,3.578839 -3.27807,2.187951 -5.95669,5.25331 -8.10614,8.44889 -3.07332,4.58421 -5.18338,9.73914 -6.76746,14.52576 -2.50701,7.6058 -3.90712,15.29008 -4.82305,21.4599 -2.7623,18.64472 -2.25165,29.11681 -3.31983,29.12124 z"
       id="path4168"
       inkscape:path-effect="#path-effect4170"
       inkscape:original-d="m 197.39416,167.60184 c -0.73654,-177.4754782 141.23813,-8.3519 111.01876,1.72122 -68.09013,22.69671 57.82862,-94.194937 -19.79404,-113.600597 -70.25365,-17.56341 -126.81291,51.587777 -105.8551,114.461207 30.04189,90.12569 171.73659,27.90168 158.35235,-61.96396"
       inkscape:connector-curvature="0" />
    <path
       style="fill:#000000;fill-rule:nonzero;stroke:none;stroke-width:1px;stroke-linecap:butt;stroke-linejoin:miter;stroke-opacity:1"
       d="m 390.17093,318.20869 c 0.11806,-0.59704 3.12851,0.45049 8.8612,-0.62549 2.26048,-0.42171 4.90258,-1.22696 7.68355,-2.69634 4.45219,-2.33606 8.71521,-6.06062 13.08104,-11.70772 3.88702,-5.05559 7.25358,-10.91579 10.64399,-18.14464 3.08174,-6.58562 5.82805,-13.64788 8.59113,-21.70718 0,0 1e-5,-2e-5 1e-5,-2e-5 2.41127,-7.03753 4.61797,-14.24836 6.96049,-22.25047 1.73887,-5.94212 3.81079,-13.30549 5.79784,-19.80096 0.80755,-2.64098 1.66949,-5.36292 2.63138,-8.08872 0.74001,-2.10529 1.56882,-4.2962 2.59498,-6.4827 0.66389,-1.47899 1.55716,-3.15029 2.92147,-4.78612 0.46873,-0.581 1.14558,-1.20045 2.06266,-1.78394 0.76764,-0.50414 1.79441,-0.82221 3.04338,-0.87802 2.30685,0.14177 4.03371,0.86644 5.12863,1.68776 1.80669,1.13348 3.32641,2.44228 4.6587,3.7492 0,0 2e-5,2e-5 2e-5,2e-5 3.87557,3.75801 7.13325,7.95864 10.20395,12.30669 3.87082,5.4555 7.44042,11.22123 10.81251,17.27524 3.56958,6.40413 6.91536,13.14137 9.9258,20.19024 2.84232,6.64777 5.42558,13.66659 7.4075,21.00449 1.6981,6.23571 3.0015,12.91523 3.16789,19.86635 0.19261,5.45469 -0.54422,11.45915 -3.34286,17.08368 -1.26846,2.46903 -3.0132,4.74708 -5.20354,6.65069 -2.31962,1.97757 -4.96964,3.42509 -7.74495,4.34809 -2.87788,1.02138 -6.1891,1.74857 -9.81853,1.64445 -2.66984,-0.058 -5.51378,-0.89188 -8.10646,-2.70485 -2.31328,-1.79059 -3.90761,-4.08265 -4.77092,-6.51161 2e-5,0 -10e-6,-4e-5 -10e-6,-4e-5 -0.99179,-2.75428 -1.34842,-5.49345 -1.31785,-8.03509 0.0412,-6.43353 1.66261,-12.52852 3.90967,-18.10821 2.54344,-6.46931 6.00473,-12.64175 10.29873,-18.27333 4.086,-5.41393 9.14538,-10.47512 15.3535,-14.25904 2.84129,-1.72478 5.98566,-3.13262 9.38047,-4.02932 0,0 5e-5,0 5e-5,0 3.30068,-0.86603 6.79506,-1.16356 10.3008,-0.78705 0,0 4e-5,0 4e-5,0 3.73709,0.42653 7.3046,1.59023 10.52633,3.32057 3.82548,2.065 7.14436,4.75384 9.9879,7.7356 8.18649,8.61693 13.51103,19.12857 17.67828,29.70965 3.68097,8.98239 5.43044,19.30629 3.33018,29.53782 -0.70329,3.24901 -1.80018,6.40011 -3.24926,9.38181 -0.51164,1.05277 -1.06638,2.08277 -1.66197,3.08699 -2.33658,3.92597 -5.22138,7.41942 -8.43223,10.45691 -7.21206,6.78732 -15.80548,11.54237 -24.52353,14.90533 -10.15478,3.95134 -20.71498,6.28103 -31.14971,7.50219 -23.10349,2.74536 -46.18238,0.50557 -67.14469,-6.63891 -10.21332,-3.46882 -19.90907,-8.24878 -28.43054,-14.67234 -8.17522,-6.1515 -15.0362,-13.93977 -19.55164,-22.99813 -5.03924,-10.25116 -7.09642,-21.46309 -6.82909,-32.20672 0.30325,-11.95298 3.17435,-23.37753 7.22523,-33.67957 4.70799,-12.00852 11.04631,-22.8822 17.96062,-32.5034 7.92181,-11.03352 16.74057,-20.65127 25.78247,-28.90311 10.11577,-9.23708 20.51247,-16.76653 30.85532,-22.75425 11.487,-6.65689 22.58465,-11.19915 33.20061,-13.9331 12.49012,-3.22574 23.47193,-3.60609 32.70026,-2.28244 10.12233,1.46008 17.64392,5.06305 22.06342,7.73964 4.57397,2.77014 6.4763,4.83649 6.34059,5.0244 -0.22953,0.31781 -2.49573,-1.23769 -7.20314,-3.40185 -4.55334,-2.09332 -11.99919,-4.96877 -21.61555,-5.819 -8.8307,-0.78922 -19.13158,0.0656 -30.95596,3.55434 -10.05127,2.97324 -20.49669,7.65988 -31.39903,14.36478 -9.80453,6.036 -19.63012,13.53044 -29.19764,22.64412 -8.54447,8.1439 -16.84157,17.55017 -24.23372,28.2352 -6.44428,9.32418 -12.30135,19.72238 -16.52864,31.01417 -3.61425,9.68612 -6.14502,20.19648 -6.24708,30.85685 -0.0956,9.50451 1.78341,19.31584 6.20569,27.98776 3.79901,7.57055 9.82403,14.19775 17.03222,19.59302 7.58062,5.66265 16.41999,9.8984 25.8873,13.08236 19.53778,6.54605 41.18759,8.50408 62.90882,5.88498 9.7712,-1.197 19.51597,-3.35224 28.69385,-6.96671 7.86208,-3.12564 15.37402,-7.21204 21.26985,-12.8762 2.61614,-2.49772 4.92745,-5.2756 6.71251,-8.30706 0.45527,-0.76966 0.87962,-1.55826 1.27087,-2.36277 1.1081,-2.27858 1.94568,-4.67466 2.47031,-7.11768 1.75011,-7.61707 0.18207,-16.01366 -2.81494,-23.72614 -4.08137,-10.04043 -8.68001,-19.4864 -15.55765,-26.56051 -2.31943,-2.39607 -4.806,-4.47176 -7.50203,-5.89748 -2.22602,-1.18565 -4.60479,-1.99442 -6.96658,-2.25019 0,0 -3e-5,0 -3e-5,0 -2.21238,-0.26319 -4.52789,-0.0634 -6.76121,0.50028 0,0 -3e-5,10e-6 -3e-5,10e-6 -2.33056,0.58243 -4.62271,1.61705 -6.81719,2.91186 -4.87524,2.86199 -9.066,7.09438 -12.7134,11.76789 -3.7776,4.89698 -6.8442,10.28196 -9.10532,15.91806 -1.94187,4.97465 -3.38413,9.88693 -3.36162,14.61367 0.0233,1.81736 0.16409,3.46153 0.68065,4.76419 0,0 10e-6,2e-5 10e-6,2e-5 0.42034,1.02355 0.93799,1.91414 1.56196,2.30749 0.58874,0.5525 1.73205,0.80299 2.99459,0.92998 1.92722,0.15724 4.13717,-0.38899 6.48441,-1.10933 1.784,-0.59677 3.42756,-1.44534 4.72705,-2.5646 1.251,-1.04112 2.30246,-2.4073 3.11267,-3.91804 1.97976,-3.52434 2.44958,-8.10967 2.47943,-12.7579 -0.041,-5.92701 -1.17257,-11.93628 -2.66124,-17.80733 -1.75749,-6.86847 -4.12437,-13.55084 -6.75852,-19.97325 -2.79289,-6.80144 -5.91689,-13.33146 -9.26261,-19.56351 -3.16842,-5.89732 -6.49142,-11.47581 -10.08379,-16.72644 -2.90722,-4.22741 -5.77628,-8.1157 -9.08575,-11.41489 0,0 -1e-5,-1e-5 -1e-5,-1e-5 -1.16012,-1.14113 -2.23554,-2.14349 -3.34785,-2.8415 -0.85161,-0.40026 -1.26394,-0.77788 -1.23335,-0.63494 0.40378,-0.0558 0.60472,-0.0854 0.64807,-0.15994 -5.8e-4,-0.039 -0.10428,0.0887 -0.3354,0.30671 -0.69067,0.71068 -1.2662,1.83938 -1.94069,3.13133 -0.91083,1.82376 -1.6947,3.78527 -2.45169,5.78037 -0.96873,2.56229 -1.86031,5.17652 -2.71551,7.75683 -2.05849,6.21358 -4.39164,13.77303 -6.25942,19.58522 -2.562,7.97441 -5.01604,15.23921 -7.68611,22.30832 0,0 -10e-6,2e-5 -10e-6,2e-5 -3.0559,8.09482 -6.13957,15.26342 -9.57049,21.91935 -3.75476,7.29878 -7.60186,13.3193 -11.95833,18.44479 -4.86931,5.75877 -9.87998,9.53963 -14.88761,11.73968 -3.16717,1.38212 -6.12933,1.99661 -8.60243,2.19131 -6.2569,0.48616 -9.12018,-1.27888 -9.1135,-1.31267 z"
       id="path4176"
       inkscape:path-effect="#path-effect4178"
       inkscape:original-d="m 390.17093,318.20869 c 50.28698,9.94394 62.07969,-115.32182 74.87312,-115.32182 14.40422,0 72.73181,103.12644 33.56381,116.18243 -50.7959,16.93197 18.63493,-128.11662 60.24272,-24.0971 31.68659,79.21644 -138.69786,93.52739 -172.12209,26.67893 -37.49115,-74.98231 95.66938,-201.71091 165.23725,-151.46746"
       inkscape:connector-curvature="0" />
    <path
       style="fill:#000000;fill-rule:nonzero;stroke:none;stroke-width:1px;stroke-linecap:butt;stroke-linejoin:miter;stroke-opacity:1"
       d="m 203.41843,376.73021 c -1.13731,-1.50985 11.96965,-8.193 24.19405,-30.4676 6.23629,-11.3721 12.10327,-27.53062 11.68484,-46.13252 0.82838,-6.93681 1.01081,-14.22323 0.3534,-21.60383 3.54154,6.09907 8.31451,12.03815 14.31872,17.33954 4.47022,5.39108 9.79609,10.0571 15.67557,15.26636 5.42083,4.76771 11.35425,10.03923 16.45247,16.28945 4.93241,6.00703 9.13909,13.35614 10.87772,21.78943 1.69254,8.16549 0.51157,17.39444 -4.63269,24.97773 -3.92787,5.68362 -10.1712,9.87495 -17.43141,10.96697 -3.5522,0.50684 -7.24156,0.19913 -10.74387,-0.98165 -3.46555,-1.17262 -6.64743,-3.21315 -9.18626,-5.9938 0,0 -3e-5,-2e-5 -3e-5,-2e-5 -3.00362,-3.35123 -4.90665,-7.49525 -5.57841,-11.84518 -0.65776,-4.27752 -0.24097,-8.60475 1.06883,-12.61194 3.2543,-9.37015 9.98967,-16.27182 16.75306,-21.89244 6.31295,-5.57108 12.87009,-10.59159 16.21222,-16.90799 2.93753,-5.20018 4.05476,-11.6025 3.28941,-17.76403 -0.74741,-6.08327 -3.415,-12.05626 -7.37281,-17.03449 -1.42309,-1.79188 -3.02684,-3.45785 -4.77639,-4.98584 -3.08085,-2.6907 -6.58716,-4.93039 -10.3031,-6.67122 -5.90703,-2.76755 -12.43584,-4.24876 -18.98981,-4.67109 -8.38881,-0.54235 -16.88187,0.73817 -24.91786,3.18626 -21.56603,6.5957 -39.36955,22.09766 -49.13942,40.52158 -10.83427,20.36155 -12.05303,44.07154 -5.93234,63.62156 4.16442,13.24668 11.45375,24.67747 20.82685,32.78551 13.04207,11.40194 29.85256,16.14712 44.33203,16.77156 18.96974,0.81836 36.01215,-5.03485 47.7194,-10.5878 21.44739,-10.19552 30.05112,-20.67991 31.10093,-19.59475 -0.0173,-0.0179 -7.52133,11.6634 -29.14179,23.43578 -11.80381,6.43958 -29.34945,13.30481 -49.83887,13.13293 -15.6855,-0.13261 -34.10856,-4.82082 -49.16526,-17.27648 -10.71526,-8.94831 -19.13045,-21.4652 -23.9249,-36.06331 -7.11548,-21.58827 -6.16947,-47.65953 5.71151,-70.58684 10.77573,-20.73039 30.31653,-38.03119 54.53855,-45.58636 8.98522,-2.81235 18.64742,-4.26999 28.43999,-3.69862 7.66083,0.44841 15.39103,2.21746 22.59579,5.54874 4.54475,2.10155 8.84097,4.85375 12.67099,8.21249 2.17488,1.90726 4.18857,4.00062 6.00631,6.26716 5.07034,6.32751 8.42501,13.97308 9.45321,22.03103 1.03905,8.20895 -0.51047,16.64428 -4.53916,23.85693 -4.94108,8.44234 -12.23139,14.2855 -18.47187,19.49248 -6.25991,5.5608 -12.05068,10.91565 -13.96927,17.44083 -0.87503,2.70594 -1.2057,5.5437 -0.79007,8.15691 0.41523,2.62811 1.50153,5.14962 3.16539,6.97407 0,0 1e-5,10e-6 1e-5,10e-6 1.36799,1.55154 3.22027,2.75373 5.20806,3.4574 2.01554,0.7177 4.26592,0.92013 6.42586,0.64413 4.37993,-0.50321 8.59515,-3.33476 11.24724,-6.99494 3.64457,-4.89715 4.49488,-11.84056 3.42213,-18.07019 -1.14336,-6.56958 -4.66028,-12.75717 -8.84131,-18.16711 -4.37921,-5.62264 -9.93023,-10.69358 -15.23053,-15.57636 -5.78616,-5.2914 -11.31538,-10.39568 -16.1727,-16.46625 -3.90133,-6.87228 -6.64472,-14.28724 -8.30276,-21.76594 3.14317,7.21195 5.05267,14.37468 5.9553,21.19663 -0.2079,20.06715 -7.121,36.86684 -14.27957,48.40838 -14.02312,22.62368 -28.27096,27.90337 -28.02738,28.22674 z"
       id="path4204"
       inkscape:path-effect="#path-effect4206;#path-effect4208"
       inkscape:original-d="m 203.41843,376.73021 c 10.62595,-7.44754 18.5022,-18.69524 26.11072,-29.34718 9.73394,-13.6275 16.84688,-29.89473 12.9822,-47.27044 -2.13849,-9.61469 -2.73133,-21.73233 -2.80095,-21.40023 -8.58533,4.73625 7.01996,14.5215 11.31074,19.55274 9.49403,11.1324 62.39741,60.90161 37.59774,73.30144 -8.93277,4.46639 -20.22861,5.91563 -30.12137,3.44245 -13.20322,-3.30081 -8.78414,-11.78151 -3.44245,-19.79405 9.07214,-13.6082 26.21926,-22.73764 32.70321,-37.86687 9.07072,-21.16501 -24.4746,-54.98245 -42.16992,-58.52151 -8.75582,-1.75117 -18.39948,1.07688 -26.67893,3.44244 -47.50653,13.5733 -57.66091,65.65454 -57.66091,110.15815 0,16.44366 9.79318,24.98741 22.37588,34.42443 40.64033,30.48024 47.51088,31.01891 95.52777,5.16366 9.95161,-5.35856 23.62582,-11.77192 30.12137,-21.51527"
       inkscape:connector-curvature="0"
       sodipodi:nodetypes="csscssssssssssc" />
    <path
       style="fill:#000000;fill-opacity:1;fill-rule:nonzero;stroke:none;stroke-width:1px;stroke-linecap:butt;stroke-linejoin:miter;stroke-opacity:1"
       d="m 202.89107,655.28727 c -0.25355,0.001 -2.04707,-10.43875 -0.405,-29.55555 0.54413,-6.35736 1.57404,-14.29717 3.85879,-22.45145 1.42914,-5.123 3.49728,-10.771 6.75881,-16.10153 2.28601,-3.74631 5.33959,-7.44975 9.34202,-10.3758 3.27851,-2.3731 7.16507,-4.1134 11.39845,-4.92458 4.06572,-0.76225 8.27594,-0.70743 12.42194,0.012 4.34455,0.74834 8.57994,2.1262 12.68816,3.94343 4.32525,1.90716 8.49739,4.25339 12.55983,6.93645 8.23201,5.43564 15.94758,12.07988 23.26072,19.7456 6.44117,6.73541 12.6431,14.31445 18.02013,22.77815 2.15629,3.39046 4.20791,6.99652 5.96714,10.84089 1.37328,2.96526 2.61229,6.23391 3.33025,9.81603 0.28098,1.39565 0.4562,2.91348 0.44238,4.53451 0,0 -1e-5,4e-5 -1e-5,4e-5 0.002,1.34205 -0.20986,2.82247 -0.72717,4.37397 -10e-6,10e-6 -10e-6,5e-5 -10e-6,5e-5 -0.46803,1.38834 -1.27807,2.7294 -2.43642,3.9163 -1.23196,1.1841 -2.62007,2.00512 -4.05024,2.46555 0,0 -5e-5,2e-5 -5e-5,2e-5 -3.51058,1.20961 -7.30747,2.33707 -11.39109,2.93152 -2.39378,0.43763 -5.37435,0.54577 -8.66414,-0.39645 -1.20532,-0.36707 -2.43733,-1.02753 -3.60791,-2.01385 0,0 -5e-5,-3e-5 -5e-5,-3e-5 -1.06527,-0.95192 -1.87809,-2.0764 -2.41335,-3.30877 -1.08432,-2.83071 -1.18794,-5.4261 -0.81805,-7.46852 0.37093,-2.87043 1.12161,-5.48843 1.95861,-7.88207 10e-6,0 10e-6,-3e-5 10e-6,-3e-5 1.04698,-3.05725 2.25821,-5.98474 3.51136,-8.84668 3.07564,-7.03717 6.17354,-13.31179 9.34208,-20.26243 3.21444,-7.066 6.32448,-14.27734 8.66707,-21.62681 2.06565,-6.5916 3.70297,-13.28268 3.55264,-19.76628 -0.0576,-2.80843 -0.40889,-5.55249 -1.23275,-8.04935 -0.78124,-2.40853 -1.99901,-4.6867 -3.59596,-6.61046 -1.75554,-2.16057 -4.09622,-3.98131 -6.71286,-5.49013 -3.27942,-1.88851 -7.03701,-3.19574 -11.01038,-4.20408 -8.5387,-2.12062 -17.50216,-2.9682 -26.40932,-2.37527 -6.83414,0.45493 -13.54075,1.75182 -19.91471,3.9021 -13.97461,4.67275 -26.3917,13.26889 -35.90574,23.96692 -9.86921,11.10867 -16.69753,24.49239 -19.92035,38.32215 -3.50625,15.01015 -2.66688,30.56182 1.85328,44.35673 3.20881,9.71273 8.0761,18.51195 14.74139,25.24891 6.04944,6.17588 13.59252,10.63114 21.46436,13.18225 8.45632,2.75869 17.43045,3.42181 25.94073,2.7868 9.76543,-0.73693 19.1168,-3.22749 27.5796,-6.60329 9.79347,-3.91352 18.50504,-9.07842 25.98376,-14.79512 8.75319,-6.69624 15.7734,-14.10551 21.21145,-21.60451 6.85304,-9.45291 11.02887,-18.80778 13.45216,-27.06711 0,0 0,-10e-6 0,-10e-6 5.90607,-20.09008 1.98481,-31.41728 3.63041,-31.66237 -0.36262,0.054 5.14885,11.1961 0.17187,32.65829 -1e-5,0 -1e-5,10e-6 -1e-5,10e-6 -2.04323,8.79207 -5.97372,18.89335 -12.83216,29.14793 -5.43703,8.13189 -12.59266,16.23238 -21.64713,23.58203 -7.73203,6.28093 -16.83536,12.01127 -27.19758,16.44009 -8.95227,3.83224 -18.98093,6.72452 -29.67283,7.7577 -9.33761,0.90933 -19.35781,0.32077 -29.13148,-2.64922 -9.15163,-2.79843 -17.94637,-7.82126 -25.17596,-14.97364 -7.85347,-7.83564 -13.58544,-17.74565 -17.21556,-28.54974 -5.19588,-15.35314 -6.30283,-32.59347 -2.509,-49.40153 3.49052,-15.43112 10.95271,-30.29671 21.88844,-42.70841 10.5486,-11.98318 24.35583,-21.57579 40.10733,-26.89981 7.22391,-2.42262 14.76934,-3.88972 22.42828,-4.40788 9.98271,-0.67537 19.97633,0.27331 29.49831,2.66786 4.59922,1.13481 9.19675,2.7908 13.52174,5.24211 3.50561,1.98515 6.75678,4.5897 9.44294,7.83117 2.41548,2.95618 4.21498,6.32886 5.34823,9.89137 1.14526,3.64454 1.63835,7.34968 1.66455,10.9385 0.0411,8.13137 -1.7936,15.84627 -4.13472,22.88915 -2.59616,7.93094 -5.89212,15.46965 -9.23155,22.63797 -3.3077,7.11501 -6.41879,13.2791 -9.4502,20.05525 -1.22736,2.74874 -2.36986,5.42292 -3.30817,8.09561 0,0 -1e-5,2e-5 -1e-5,2e-5 -0.73798,2.15205 -1.36546,4.13245 -1.59022,5.98974 -0.0598,1.36801 -0.21388,2.34215 0.0685,2.63834 0.0338,0.0699 0.0596,0.13062 0.0571,0.11571 0,0 0,0 0,0 -0.0131,0.0341 0.15278,0.095 0.40819,0.20896 0.95702,0.45601 2.59485,0.25577 4.58722,0.0968 3.18467,-0.39422 6.45867,-1.35297 9.78974,-2.42391 0,0 10e-6,0 10e-6,0 0.31134,-0.12009 0.55786,-0.22419 0.6261,-0.32422 0.1024,-0.0583 0.21566,-0.27789 0.33741,-0.55217 0,0 10e-6,-2e-5 10e-6,-2e-5 0.16046,-0.35922 0.21793,-0.91332 0.25937,-1.58791 0,-10e-6 0,-2e-5 0,-2e-5 0.0345,-0.8234 -0.0737,-1.74392 -0.24298,-2.73585 -0.44655,-2.59235 -1.44083,-5.2359 -2.595,-7.90903 -1.48933,-3.40273 -3.30699,-6.69863 -5.26197,-9.89547 -4.88907,-7.98516 -10.63815,-15.25226 -16.65945,-21.80295 -6.85403,-7.43781 -13.98017,-13.85957 -21.56339,-19.10391 -3.73327,-2.58134 -7.49355,-4.82541 -11.35007,-6.63553 -3.6678,-1.7157 -7.32223,-3.03112 -10.99015,-3.75146 -3.48022,-0.67843 -6.90148,-0.85045 -10.10222,-0.32442 -3.2989,0.52425 -6.41085,1.79601 -9.04899,3.57884 -3.27807,2.18795 -5.95669,5.25331 -8.10614,8.44889 -3.07332,4.58421 -5.18338,9.73913 -6.76746,14.52576 -2.50701,7.6058 -3.90712,15.29008 -4.82305,21.4599 -2.7623,18.64472 -2.25165,29.11681 -3.31983,29.12124 z"
       id="path4168-3" />
    <path
       style="fill:#000000;fill-rule:nonzero;stroke:none;stroke-width:1px;stroke-linecap:butt;stroke-linejoin:miter;stroke-opacity:1"
       d="m 395.66784,805.89412 c 0.11806,-0.59704 3.12851,0.45049 8.8612,-0.62549 2.26048,-0.42171 4.90258,-1.22696 7.68355,-2.69634 4.45219,-2.33606 8.71521,-6.06062 13.08104,-11.70772 3.88702,-5.05559 7.25358,-10.91579 10.64399,-18.14464 3.08174,-6.58562 5.82805,-13.64788 8.59113,-21.70718 0,0 10e-6,-2e-5 10e-6,-2e-5 2.41127,-7.03753 4.61797,-14.24836 6.96049,-22.25047 1.73887,-5.94212 3.81079,-13.30549 5.79784,-19.80096 0.80755,-2.64098 1.66949,-5.36292 2.63138,-8.08872 0.74001,-2.10529 1.56882,-4.2962 2.59498,-6.4827 0.66389,-1.47899 1.55716,-3.15029 2.92147,-4.78612 0.46873,-0.581 1.14558,-1.20045 2.06266,-1.78394 0.76764,-0.50414 1.79441,-0.82221 3.04338,-0.87802 2.30685,0.14177 4.03371,0.86644 5.12863,1.68776 1.80669,1.13348 3.32641,2.44228 4.6587,3.7492 0,0 2e-5,2e-5 2e-5,2e-5 3.87557,3.75801 7.13325,7.95864 10.20395,12.30669 3.87082,5.4555 7.44042,11.22123 10.81251,17.27524 3.56958,6.40413 6.91536,13.14137 9.9258,20.19024 2.84232,6.64777 5.42558,13.66659 7.4075,21.00449 1.6981,6.23571 3.0015,12.91523 3.16789,19.86635 0.19261,5.45469 -0.54422,11.45915 -3.34286,17.08368 -1.26846,2.46903 -3.0132,4.74708 -5.20354,6.65069 -2.31962,1.97757 -4.96964,3.42509 -7.74495,4.34809 -2.87788,1.02138 -6.1891,1.74857 -9.81853,1.64445 -2.66984,-0.058 -5.51378,-0.89188 -8.10646,-2.70485 -2.31328,-1.79059 -3.90761,-4.08265 -4.77092,-6.51161 2e-5,0 -10e-6,-4e-5 -10e-6,-4e-5 -0.99179,-2.75428 -1.34842,-5.49345 -1.31785,-8.03509 0.0412,-6.43353 1.66261,-12.52852 3.90967,-18.10821 2.54344,-6.46931 6.00473,-12.64175 10.29873,-18.27333 4.086,-5.41393 9.14538,-10.47512 15.3535,-14.25904 2.84129,-1.72478 5.98566,-3.13262 9.38047,-4.02932 0,0 5e-5,0 5e-5,0 3.30068,-0.86603 6.79506,-1.16356 10.3008,-0.78705 0,0 4e-5,0 4e-5,0 3.73709,0.42653 7.3046,1.59023 10.52633,3.32057 3.82548,2.065 7.14436,4.75384 9.9879,7.7356 8.18649,8.61693 13.51103,19.12857 17.67828,29.70965 3.68097,8.98239 5.43044,19.30629 3.33018,29.53782 -0.70329,3.24901 -1.80018,6.40011 -3.24926,9.38181 -0.51164,1.05277 -1.06638,2.08277 -1.66197,3.08699 -2.33658,3.92597 -5.22138,7.41942 -8.43223,10.45691 -7.21206,6.78732 -15.80548,11.54237 -24.52353,14.90533 -10.15478,3.95134 -20.71498,6.28103 -31.14971,7.50219 -23.10349,2.74536 -46.18238,0.50557 -67.14469,-6.63891 -10.21332,-3.46882 -19.90907,-8.24878 -28.43054,-14.67234 -8.17522,-6.1515 -15.0362,-13.93977 -19.55164,-22.99813 -5.03924,-10.25116 -7.09642,-21.46309 -6.82909,-32.20672 0.30325,-11.95298 3.17435,-23.37753 7.22523,-33.67957 4.70799,-12.00852 11.04631,-22.8822 17.96062,-32.5034 7.92181,-11.03352 16.74057,-20.65127 25.78247,-28.90311 10.11577,-9.23708 20.51247,-16.76653 30.85532,-22.75425 11.487,-6.65689 22.58465,-11.19915 33.20061,-13.9331 12.49012,-3.22574 23.47193,-3.60609 32.70026,-2.28244 10.12233,1.46008 17.64392,5.06305 22.06342,7.73964 4.57397,2.77014 6.4763,4.83649 6.34059,5.0244 -0.22953,0.31781 -2.49573,-1.23769 -7.20314,-3.40185 -4.55334,-2.09332 -11.99919,-4.96877 -21.61555,-5.819 -8.8307,-0.78922 -19.13158,0.0656 -30.95596,3.55434 -10.05127,2.97324 -20.49669,7.65988 -31.39903,14.36478 -9.80453,6.036 -19.63012,13.53044 -29.19764,22.64412 -8.54447,8.1439 -16.84157,17.55017 -24.23372,28.2352 -6.44428,9.32418 -12.30135,19.72238 -16.52864,31.01417 -3.61425,9.68612 -6.14502,20.19648 -6.24708,30.85685 -0.0956,9.50451 1.78341,19.31584 6.20569,27.98776 3.79901,7.57055 9.82403,14.19775 17.03222,19.59302 7.58062,5.66265 16.41999,9.8984 25.8873,13.08236 19.53778,6.54605 41.18759,8.50408 62.90882,5.88498 9.7712,-1.197 19.51597,-3.35224 28.69385,-6.96671 7.86208,-3.12564 15.37402,-7.21204 21.26985,-12.8762 2.61614,-2.49772 4.92745,-5.2756 6.71251,-8.30706 0.45527,-0.76966 0.87962,-1.55826 1.27087,-2.36277 1.1081,-2.27858 1.94568,-4.67466 2.47031,-7.11768 1.75011,-7.61707 0.18207,-16.01366 -2.81494,-23.72614 -4.08137,-10.04043 -8.68001,-19.4864 -15.55765,-26.56051 -2.31943,-2.39607 -4.806,-4.47176 -7.50203,-5.89748 -2.22602,-1.18565 -4.60479,-1.99442 -6.96658,-2.25019 0,0 -3e-5,0 -3e-5,0 -2.21238,-0.26319 -4.52789,-0.0634 -6.76121,0.50028 0,0 -3e-5,10e-6 -3e-5,10e-6 -2.33056,0.58243 -4.62271,1.61705 -6.81719,2.91186 -4.87524,2.86199 -9.066,7.09438 -12.7134,11.76789 -3.7776,4.89698 -6.8442,10.28196 -9.10532,15.91806 -1.94187,4.97465 -3.38413,9.88693 -3.36162,14.61367 0.0233,1.81736 0.16409,3.46153 0.68065,4.76419 0,0 10e-6,2e-5 10e-6,2e-5 0.42034,1.02355 0.93799,1.91414 1.56196,2.30749 0.58874,0.5525 1.73205,0.80299 2.99459,0.92998 1.92722,0.15724 4.13717,-0.38899 6.48441,-1.10933 1.784,-0.59677 3.42756,-1.44534 4.72705,-2.5646 1.251,-1.04112 2.30246,-2.4073 3.11267,-3.91804 1.97976,-3.52434 2.44958,-8.10967 2.47943,-12.7579 -0.041,-5.92701 -1.17257,-11.93628 -2.66124,-17.80733 -1.75749,-6.86847 -4.12437,-13.55084 -6.75852,-19.97325 -2.79289,-6.80144 -5.91689,-13.33146 -9.26261,-19.56351 -3.16842,-5.89732 -6.49142,-11.47581 -10.08379,-16.72644 -2.90722,-4.22741 -5.77628,-8.1157 -9.08575,-11.41489 0,0 -10e-6,-10e-6 -10e-6,-10e-6 -1.16012,-1.14113 -2.23554,-2.14349 -3.34785,-2.8415 -0.85161,-0.40026 -1.26394,-0.77788 -1.23335,-0.63494 0.40378,-0.0558 0.60472,-0.0854 0.64807,-0.15994 -5.8e-4,-0.039 -0.10428,0.0887 -0.3354,0.30671 -0.69067,0.71068 -1.2662,1.83938 -1.94069,3.13133 -0.91083,1.82376 -1.6947,3.78527 -2.45169,5.78037 -0.96873,2.56229 -1.86031,5.17652 -2.71551,7.75683 -2.05849,6.21358 -4.39164,13.77303 -6.25942,19.58522 -2.562,7.97441 -5.01604,15.23921 -7.68611,22.30832 0,0 -10e-6,2e-5 -10e-6,2e-5 -3.0559,8.09482 -6.13957,15.26342 -9.57049,21.91935 -3.75476,7.29878 -7.60186,13.3193 -11.95833,18.44479 -4.86931,5.75877 -9.87998,9.53963 -14.88761,11.73968 -3.16717,1.38212 -6.12933,1.99661 -8.60243,2.19131 -6.2569,0.48616 -9.12018,-1.27888 -9.1135,-1.31267 z"
       id="path4176-5"
       inkscape:path-effect="#path-effect4178-7"
       inkscape:original-d="m 395.66784,805.89412 c 50.28698,9.94394 62.07969,-115.32182 74.87312,-115.32182 14.40422,0 72.73181,103.12644 33.56381,116.18243 -50.7959,16.93197 18.63493,-128.11662 60.24272,-24.0971 31.68659,79.21644 -138.69786,93.52739 -172.12209,26.67893 -37.49115,-74.98231 95.66938,-201.71091 165.23725,-151.46746"
       inkscape:connector-curvature="0" />
    <path
       style="fill:#000000;fill-opacity:1;fill-rule:nonzero;stroke:none;stroke-width:1px;stroke-linecap:butt;stroke-linejoin:miter;stroke-opacity:1"
       d="m 208.91534,864.41564 c -0.92811,-1.13756 10.91506,-9.03281 24.88871,-29.68325 -1e-5,0 0,-10e-6 0,-10e-6 7.08845,-10.55696 16.6653,-27.69569 15.7781,-45.97008 -0.13425,-2.96789 -0.50189,-5.95784 -1.3963,-8.71051 -0.86176,-2.63384 -2.15725,-5.16237 -3.99795,-7.08702 0,0 -1e-5,-1e-5 -1e-5,-1e-5 -0.31158,-0.26146 -0.8606,-0.90332 -1.48766,-2.02689 0,0 -3e-5,-4e-5 -3e-5,-4e-5 -0.30062,-0.58056 -0.48335,-1.31484 -0.51866,-2.18781 -0.0379,-0.89512 0.2398,-1.83446 0.84563,-2.7663 0,0 5e-5,-7e-5 5e-5,-7e-5 0.65886,-0.89593 1.49721,-1.49721 2.46636,-1.77746 0.95212,-0.2681 1.87168,-0.27303 2.71842,-0.0228 0,0 7e-5,2e-5 7e-5,2e-5 0.83198,0.2485 1.53373,0.64451 2.08562,1.16622 0,0 5e-5,5e-5 5e-5,5e-5 0.54459,0.51469 0.95463,1.07054 1.22787,1.64718 0,0 3e-5,5e-5 3e-5,5e-5 0.50559,1.15497 0.70166,2.17577 0.66393,2.98985 -0.003,0.79721 -0.0591,1.35342 -0.0735,1.6832 -0.16498,2.04036 0.8449,4.32724 2.29713,6.44524 1.46881,2.08151 3.61443,3.89575 6.02079,5.90248 1.44883,1.18635 15.75038,12.3203 17.79588,14.00425 5.74057,4.70435 11.58205,10.15586 16.39535,16.76989 4.64941,6.36466 8.26471,14.08853 9.31882,22.64816 1.02119,8.2776 -0.80193,17.29548 -6.19197,24.58383 -4.04705,5.42781 -10.19998,9.48179 -17.36196,10.61094 -3.5124,0.52466 -7.17305,0.26097 -10.66862,-0.86584 -3.46157,-1.11979 -6.65844,-3.11147 -9.22108,-5.86129 -3.05572,-3.34808 -4.98146,-7.51386 -5.64753,-11.88342 -0.65221,-4.29587 -0.21514,-8.63178 1.1124,-12.63568 3.2865,-9.35258 10.02283,-16.23744 16.77521,-21.85684 6.30857,-5.57307 12.85166,-10.60041 16.18661,-16.92 2.93142,-5.20367 4.04377,-11.60467 3.277,-17.76398 -0.74906,-6.08277 -3.4157,-12.05423 -7.37082,-17.03173 -1.05877,-1.33386 -2.21756,-2.59804 -3.46206,-3.78759 -3.37908,-3.22986 -7.35704,-5.87821 -11.60918,-7.87247 -5.90442,-2.76945 -12.4307,-4.253 -18.98198,-4.67672 -8.38847,-0.54451 -16.88187,0.73672 -24.91777,3.18495 -21.56967,6.59754 -39.37292,22.10108 -49.14295,40.52328 -10.83719,20.36491 -12.05536,44.07661 -5.93538,63.62584 4.16474,13.24888 11.45534,24.68055 20.82905,32.78906 13.04483,11.40401 29.85757,16.14873 44.33693,16.77276 18.97263,0.81795 36.01607,-5.03702 47.72198,-10.59023 21.45034,-10.19853 30.04966,-20.68365 31.09852,-19.59947 -0.0192,-0.0198 -7.52149,11.65909 -29.1442,23.43106 -11.80211,6.43773 -29.34735,13.30274 -49.83627,13.13036 -15.68252,-0.13296 -34.10446,-4.82009 -49.16038,-17.27514 -10.71336,-8.94659 -19.12831,-21.46192 -23.92269,-36.05976 -7.1138,-21.58327 -6.16982,-47.65256 5.71121,-70.58059 10.77296,-20.7257 30.30961,-38.02798 54.53226,-45.58663 8.98392,-2.81327 18.64639,-4.27257 28.44009,-3.69993 7.65884,0.44938 15.38682,2.22025 22.58894,5.55312 5.20099,2.40706 10.07675,5.66685 14.29975,9.71247 1.55521,1.48988 3.0162,3.08092 4.36869,4.76782 5.06712,6.32531 8.42168,13.96749 9.45296,22.02335 1.04189,8.20427 -0.49918,16.63722 -4.51754,23.85377 -4.92805,8.44678 -12.20509,14.30218 -18.44645,19.5173 -6.25775,5.56433 -12.05193,10.91577 -13.99815,17.4396 -0.88498,2.7086 -1.23035,5.54479 -0.81727,8.15052 0.41246,2.61777 1.49871,5.12969 3.16704,6.91848 1.35692,1.51225 3.2038,2.6724 5.18059,3.34512 2.00524,0.68627 4.24286,0.85853 6.39724,0.57106 4.37717,-0.52459 8.57897,-3.31767 11.41325,-6.91727 3.88129,-4.87435 5.25717,-11.7267 4.65882,-18.06439 -0.63265,-6.66259 -3.6091,-13.10213 -7.45865,-18.68188 -4.02637,-5.80919 -9.31096,-10.86298 -14.67889,-15.48092 11.65112,9.97545 -29.24229,-24.39508 -17.4945,-14.34926 -2.50966,-2.10893 -5.06102,-4.47344 -7.18848,-7.48128 -2.24233,-3.11054 -3.6051,-7.00646 -3.42702,-11.15296 0.0403,-0.65835 0.10529,-1.07191 0.0994,-1.25934 -0.0417,-0.17469 0.0206,-0.14805 0.0962,0.12233 0,0 0,10e-6 0,10e-6 0.0578,0.13423 0.17925,0.28194 0.3634,0.46357 0,0 2e-5,1e-5 2e-5,1e-5 0.19052,0.18779 0.45774,0.32671 0.81766,0.44127 0,0 3e-5,10e-6 3e-5,10e-6 0.37339,0.11595 0.78188,0.10317 1.26395,-0.0242 0.49785,-0.13916 0.90869,-0.44708 1.2846,-0.94225 0,0 3e-5,-4e-5 3e-5,-4e-5 0.32115,-0.52861 0.46672,-0.96792 0.43231,-1.37086 -0.0318,-0.37934 -0.0799,-0.62691 -0.17094,-0.76203 0,0 0,-10e-6 0,-10e-6 -0.20462,-0.22736 -0.0514,-0.15276 0.29911,0.31551 0,0 10e-6,2e-5 10e-6,2e-5 2.59835,2.96414 4.29203,6.40978 5.26245,9.85267 1.01252,3.57204 1.3685,7.14152 1.39184,10.49544 0.0827,20.70339 -10.65246,38.21283 -18.64633,48.69706 0,0 0,10e-6 0,10e-6 -15.52734,20.50873 -28.42806,27.1674 -28.46914,27.11705 z"
       id="path4204-6" />
    <path
       style="fill:#800000;fill-rule:nonzero;stroke:none;stroke-width:0.1;stroke-linecap:butt;stroke-linejoin:miter;stroke-miterlimit:4;stroke-dasharray:none;stroke-opacity:1"
       d="m 509.32826,526.03699 c -1.29462,-1.62557 11.44876,-12.84506 25.38818,-30.98068 0,0 0,0 0,0 3.15514,-4.12545 6.44706,-8.66583 9.2809,-13.44269 1.50832,-2.54251 2.83922,-5.0697 3.98268,-7.61634 3.80542,-8.51515 5.32154,-16.34996 5.00172,-23.33993 -0.41306,-8.32519 -3.14646,-14.74752 -4.25084,-17.84377 -0.27562,-1.95409 -0.18521,-3.0102 0.24818,-3.16498 0.43219,-0.15436 1.17178,0.5996 2.0924,1.9987 2.62475,2.56286 7.19855,8.819 8.65872,18.30187 1.26814,8.15572 0.21911,17.68975 -3.97064,27.4512 -1.24599,2.91568 -2.70821,5.77451 -4.3687,8.58774 -3.13535,5.31198 -6.74811,10.07043 -10.27984,14.22924 0,0 0,0 0,0 -15.62128,18.48036 -30.71568,27.1595 -31.78276,25.81964 z m 39.65082,-96.38839 c 0.16654,0.28344 1.22205,-2.47858 6.15025,-1.80832 1.84182,0.25355 4.15065,1.19649 5.90627,3.31639 0.9607,1.17279 1.70146,2.6195 2.14837,4.26296 0.39697,1.45164 0.58157,2.98062 0.61369,4.58678 0.0316,1.44056 -0.26989,7.01917 -0.19161,8.5448 0.23601,5.97567 3.10836,12.1876 8.25967,18.27098 4.49289,5.25156 9.38194,8.94579 15.70594,14.49873 5.13655,4.45232 10.88556,10.04058 14.62734,17.29564 1.74726,3.4226 3.00609,7.3083 3.35883,11.46493 0.33964,3.99283 -0.25688,8.23445 -2.07452,12.1661 -1.57978,3.36838 -4.04288,6.3624 -7.1854,8.59455 -3.04686,2.15972 -6.66611,3.563 -10.49905,3.98633 -3.72414,0.40776 -7.57409,-0.11304 -11.14208,-1.5779 -3.47321,-1.42963 -6.61235,-3.72164 -9.0664,-6.697 -2.5854,-3.1488 -4.35147,-6.95895 -5.1029,-11.03131 -0.72983,-3.97087 -0.51923,-8.10685 0.60758,-12.03958 1.3981,-4.7796 3.95399,-9.05864 7.11635,-12.7134 3.07214,-3.57005 6.54875,-6.58187 10.09512,-9.3869 6.67247,-5.39729 13.99606,-10.35945 18.01829,-16.90596 3.4668,-5.37661 5.06922,-12.1502 4.63961,-18.85584 -0.41292,-6.53107 -2.81996,-13.07102 -6.65598,-18.74789 -7.34869,-11.03268 -20.26287,-18.29969 -34.275,-21.64795 -11.38835,-2.65615 -23.55621,-2.75181 -35.48235,-0.53378 -0.47151,0.088 -0.94256,0.17976 -1.41311,0.27541 -12.48466,2.53768 -24.26431,7.70203 -34.45147,14.76458 -10.91754,7.58074 -19.99278,17.337 -26.28843,28.37247 -6.61785,11.58142 -10.30844,24.45024 -10.93549,37.09728 -0.66869,13.41243 2.07982,26.55299 7.47233,37.89887 6.41525,13.53706 16.56405,24.52262 27.86968,32.162 15.93123,10.78786 34.30141,15.09911 50.34567,15.50656 21.01585,0.53497 39.50879,-5.37454 52.47923,-11.2081 22.65758,-10.20175 32.17105,-20.81411 33.11849,-19.75328 -0.0423,-0.0473 -8.61067,11.67979 -31.42931,23.27726 -13.05984,6.64403 -32.0051,13.45236 -54.23356,13.50345 -16.98915,0.0378 -36.6259,-4.12647 -54.1444,-15.49169 -12.42397,-8.07625 -23.63149,-19.84922 -30.90352,-34.66652 -6.08484,-12.43041 -9.26731,-26.80362 -8.65537,-41.59546 0.58029,-13.94374 4.51203,-28.08383 11.72845,-40.8682 6.90604,-12.21618 16.77778,-22.95053 28.69551,-31.25206 11.10126,-7.74389 23.9355,-13.38701 37.61753,-16.17377 0.51561,-0.10502 1.03188,-0.20586 1.54875,-0.30252 13.01789,-2.4411 26.36723,-2.29397 39.00605,0.66256 15.71308,3.59549 30.30047,12.14761 39.26265,25.29703 4.6055,6.83831 7.4207,14.77966 7.92133,22.91305 0.511,8.39304 -1.60743,16.7909 -6.0965,23.72339 -5.49703,8.18037 -13.4253,13.64961 -19.96627,18.64366 -3.41082,2.66616 -6.56188,5.29156 -9.14451,8.25972 -2.62449,3.03618 -4.7242,6.33345 -5.73999,9.82412 -0.85205,2.84704 -1.06412,5.86069 -0.57852,8.6823 0.49382,2.88688 1.69788,5.63506 3.46012,7.8349 1.66081,2.08692 3.84966,3.75114 6.2415,4.78228 2.45417,1.06184 5.17893,1.48827 7.77515,1.25079 2.67208,-0.24073 5.27429,-1.18358 7.43277,-2.65201 2.22951,-1.51216 4.04597,-3.61569 5.20547,-5.95998 1.37425,-2.72492 1.87456,-5.91291 1.71379,-8.98611 -0.16961,-3.2193 -1.13309,-6.40491 -2.50355,-9.31988 -2.88511,-6.21483 -8.08798,-11.48152 -12.88521,-16.00295 -5.99008,-5.57111 -10.9976,-9.7167 -15.64036,-15.53892 -5.46305,-6.78429 -8.26898,-14.13453 -8.26479,-21.03834 0.0226,-2.09111 0.6581,-7.36478 0.71214,-8.63155 0.0585,-1.44205 0.006,-2.74227 -0.23608,-3.95263 -0.27466,-1.36245 -0.74272,-2.54606 -1.40633,-3.50324 -1.18249,-1.73323 -2.9429,-2.71091 -4.42113,-3.10976 -3.99333,-1.08593 -5.46449,0.87326 -5.84073,0.23293 z"
       id="path4204-1"
       inkscape:path-effect="#path-effect8327;#path-effect8329"
       inkscape:original-d="m 509.32826,526.03699 c 11.3853,-7.44754 20.43323,-17.74822 28.58547,-28.40016 10.42955,-13.6275 21.13948,-29.71217 18.44224,-47.33357 -0.97758,-6.38659 -4.33825,-12.1467 -6.45478,-18.07282 0,0 0.40999,-3.82511 -0.92211,-2.58184 m 0,0 c -0.4598,0.42913 10.54056,1.42262 11.15919,2.19245 3.95811,4.92549 -1.39548,11.45611 1.75036,16.74098 7.60331,12.77318 65.30061,59.89146 38.72869,72.29129 -9.57113,4.46639 -21.6742,5.91563 -32.27391,3.44245 -14.14674,-3.30081 -9.41186,-11.78151 -3.68846,-19.79405 9.72046,-13.6082 28.09295,-22.73764 35.04026,-37.86687 9.71894,-21.16501 -19.72957,-62.05352 -38.68942,-65.59258 -9.38153,-1.75117 -28.37308,-2.96373 -37.2442,-0.59817 -50.90146,13.5733 -68.27553,79.79668 -68.27553,124.30029 0,16.44366 15.90472,23.97726 29.38661,33.41428 43.54459,30.48024 54.15314,28.9986 105.60142,3.14335 10.66278,-5.35856 25.31418,-11.77192 32.27391,-21.51527"
       inkscape:connector-curvature="0"
       sodipodi:nodetypes="csscccsssssssssssc" />
    <path
       style="fill:#000000;fill-rule:nonzero;stroke:none;stroke-width:1px;stroke-linecap:butt;stroke-linejoin:miter;stroke-opacity:1"
       d="m -328.60084,468.45561 c -1.13731,-1.50985 11.96965,-8.193 24.19405,-30.4676 6.23629,-11.3721 12.10327,-27.53062 11.68485,-46.13252 0.82837,-6.93681 1.0108,-14.22323 0.35339,-21.60383 3.54154,6.09907 8.31451,12.03815 14.31872,17.33954 4.47022,5.39108 9.79609,10.0571 15.67557,15.26636 5.42083,4.76771 11.35425,10.03923 16.45247,16.28945 4.93242,6.00703 9.13909,13.35614 10.87773,21.78943 1.69254,8.16549 0.51157,17.39444 -4.6327,24.97773 -3.92786,5.68361 -10.17119,9.87495 -17.4314,10.96697 -3.5522,0.50684 -7.24156,0.19913 -10.74387,-0.98165 -3.46555,-1.17262 -6.64743,-3.21315 -9.18626,-5.9938 0,0 -3e-5,-2e-5 -3e-5,-2e-5 -3.00362,-3.35123 -4.90665,-7.49526 -5.57841,-11.84518 -0.65775,-4.27752 -0.24096,-8.60475 1.06883,-12.61194 3.2543,-9.37015 9.98967,-16.27182 16.75306,-21.89243 6.31296,-5.57109 12.87009,-10.5916 16.21222,-16.908 2.93754,-5.20018 4.05476,-11.6025 3.28941,-17.76404 -0.74741,-6.08326 -3.415,-12.05625 -7.37282,-17.03449 -1.42309,-1.79187 -3.02683,-3.45784 -4.77638,-4.98584 -3.08085,-2.6907 -6.58716,-4.93038 -10.30311,-6.67121 -5.90703,-2.76755 -12.43584,-4.24876 -18.98981,-4.67109 -8.38881,-0.54235 -16.88187,0.73817 -24.91786,3.18626 -21.56603,6.5957 -39.36955,22.09766 -49.13942,40.52158 -10.83427,20.36155 -12.05303,44.07154 -5.93234,63.62157 4.16442,13.24667 11.45374,24.67746 20.82685,32.7855 13.04207,11.40194 29.85256,16.14713 44.33203,16.77157 18.96975,0.81835 36.01216,-5.03486 47.71942,-10.58781 21.44738,-10.19552 30.05111,-20.67991 31.10092,-19.59475 -0.0173,-0.0179 -7.52133,11.6634 -29.14179,23.43578 -11.80381,6.43958 -29.34945,13.30481 -49.83888,13.13293 -15.6855,-0.13261 -34.10855,-4.82082 -49.16526,-17.27648 -10.71525,-8.94831 -19.13045,-21.4652 -23.9249,-36.06331 -7.11548,-21.58827 -6.16947,-47.65953 5.71151,-70.58684 10.77574,-20.73039 30.31653,-38.03119 54.53855,-45.58636 8.98522,-2.81235 18.64742,-4.26999 28.43999,-3.69862 7.66083,0.44841 15.39103,2.21746 22.59579,5.54874 4.54475,2.10155 8.84097,4.85375 12.67099,8.21249 2.17488,1.90726 4.18857,4.00062 6.00632,6.26716 5.07033,6.3275 8.42501,13.97308 9.45321,22.03103 1.03905,8.20894 -0.51047,16.64428 -4.53916,23.85693 -4.94108,8.44234 -12.23139,14.2855 -18.47187,19.49248 -6.25991,5.5608 -12.05068,10.91565 -13.96927,17.44083 -0.87504,2.70594 -1.2057,5.5437 -0.79007,8.15691 0.41523,2.62811 1.50153,5.14962 3.16539,6.97407 0,0 10e-6,2e-5 10e-6,2e-5 1.36799,1.55154 3.22027,2.75372 5.20806,3.45739 2.01554,0.7177 4.26592,0.92013 6.42586,0.64413 4.37994,-0.50321 8.59515,-3.33476 11.24725,-6.99494 3.64456,-4.89715 4.49487,-11.84056 3.42212,-18.07019 -1.14336,-6.56958 -4.66029,-12.75717 -8.84132,-18.16711 -4.37921,-5.62264 -9.93023,-10.69358 -15.23053,-15.57636 -5.78615,-5.2914 -11.31537,-10.39568 -16.1727,-16.46625 -3.90133,-6.87229 -6.64472,-14.28724 -8.30276,-21.76594 3.14317,7.21195 5.05267,14.37468 5.95529,21.19663 -0.20789,20.06715 -7.12099,36.86684 -14.27957,48.40838 -14.02311,22.62368 -28.27095,27.90337 -28.02737,28.22674 z"
       id="path4204-9"
       inkscape:path-effect="#path-effect8353;#path-effect8355"
       inkscape:original-d="m -328.60084,468.45561 c 10.62595,-7.44754 18.5022,-18.69524 26.11072,-29.34718 9.73394,-13.6275 16.84688,-29.89473 12.9822,-47.27044 -2.13849,-9.61469 -2.73133,-21.73233 -2.80095,-21.40023 -8.58533,4.73625 7.01996,14.5215 11.31074,19.55274 9.49404,11.1324 62.39742,60.90161 37.59775,73.30144 -8.93277,4.46639 -20.22861,5.91563 -30.12137,3.44245 -13.20323,-3.30081 -8.78415,-11.78151 -3.44245,-19.79405 9.07214,-13.6082 26.21926,-22.73764 32.70321,-37.86687 9.07072,-21.16501 -24.4746,-54.98245 -42.16993,-58.52151 -8.75582,-1.75117 -18.39948,1.07688 -26.67893,3.44244 -47.50653,13.5733 -57.66091,65.65454 -57.66091,110.15815 0,16.44366 9.79318,24.98741 22.37588,34.42443 40.64033,30.48024 47.51088,31.01891 95.52778,5.16366 9.95161,-5.35856 23.62582,-11.77192 30.12137,-21.51527"
       inkscape:connector-curvature="0"
       sodipodi:nodetypes="csscssssssssssc" />
  </g>
</svg>
