<?xml version="1.0" encoding="UTF-8" standalone="no"?>
<!-- Created with Inkscape (http://www.inkscape.org/) -->

<svg
   xmlns:dc="http://purl.org/dc/elements/1.1/"
   xmlns:cc="http://creativecommons.org/ns#"
   xmlns:rdf="http://www.w3.org/1999/02/22-rdf-syntax-ns#"
   xmlns:svg="http://www.w3.org/2000/svg"
   xmlns="http://www.w3.org/2000/svg"
   xmlns:sodipodi="http://sodipodi.sourceforge.net/DTD/sodipodi-0.dtd"
   xmlns:inkscape="http://www.inkscape.org/namespaces/inkscape"
   width="325.99265mm"
   height="390.7998mm"
   viewBox="0 0 1155.092 1384.7237"
   id="svg2"
   version="1.1"
   inkscape:version="0.91 r13725"
   sodipodi:docname="logoSafna.svg">
  <defs
     id="defs4">
    <inkscape:path-effect
       fuse_tolerance="0"
       vertical_pattern="false"
       prop_units="false"
       tang_offset="0"
       normal_offset="0"
       spacing="0"
       scale_y_rel="false"
       prop_scale="1"
       copytype="single_stretched"
       pattern="m 227.46508,586.27304 c 0,-2.76 2.24,-5 5,-5 2.76,0 5,2.24 5,5 0,2.76 -2.24,5 -5,5 -2.76,0 -5,-2.24 -5,-5 z"
       is_visible="true"
       id="path-effect4386"
       effect="skeletal" />
    <inkscape:path-effect
       is_visible="true"
       id="path-effect4384"
       effect="spiro" />
    <inkscape:path-effect
       effect="skeletal"
       id="path-effect4358"
       is_visible="true"
       pattern="m -554.57375,306.02546 c 0,-2.76 2.24,-5 5,-5 2.76,0 5,2.24 5,5 0,2.76 -2.24,5 -5,5 -2.76,0 -5,-2.24 -5,-5 z"
       copytype="single_stretched"
       prop_scale="1"
       scale_y_rel="false"
       spacing="0"
       normal_offset="0"
       tang_offset="0"
       prop_units="false"
       vertical_pattern="false"
       fuse_tolerance="0" />
    <inkscape:path-effect
       effect="spiro"
       id="path-effect4356"
       is_visible="true" />
    <inkscape:path-effect
       effect="skeletal"
       id="path-effect4352"
       is_visible="true"
       pattern="M 0,5 C 0,2.24 2.24,0 5,0 7.76,0 10,2.24 10,5 10,7.76 7.76,10 5,10 2.24,10 0,7.76 0,5 Z"
       copytype="single_stretched"
       prop_scale="1"
       scale_y_rel="false"
       spacing="0"
       normal_offset="0"
       tang_offset="0"
       prop_units="false"
       vertical_pattern="false"
       fuse_tolerance="0" />
    <inkscape:path-effect
       effect="spiro"
       id="path-effect4350"
       is_visible="true" />
    <inkscape:path-effect
       effect="skeletal"
       id="path-effect4346"
       is_visible="true"
       pattern="M 0,5 C 0,2.24 2.24,0 5,0 7.76,0 10,2.24 10,5 10,7.76 7.76,10 5,10 2.24,10 0,7.76 0,5 Z"
       copytype="single_stretched"
       prop_scale="1"
       scale_y_rel="false"
       spacing="0"
       normal_offset="0"
       tang_offset="0"
       prop_units="false"
       vertical_pattern="false"
       fuse_tolerance="0" />
    <inkscape:path-effect
       effect="spiro"
       id="path-effect4344"
       is_visible="true" />
    <inkscape:path-effect
       effect="skeletal"
       id="path-effect4340"
       is_visible="true"
       pattern="M 0,5 C 0,2.24 2.24,0 5,0 7.76,0 10,2.24 10,5 10,7.76 7.76,10 5,10 2.24,10 0,7.76 0,5 Z"
       copytype="single_stretched"
       prop_scale="1"
       scale_y_rel="false"
       spacing="0"
       normal_offset="0"
       tang_offset="0"
       prop_units="false"
       vertical_pattern="false"
       fuse_tolerance="0" />
    <inkscape:path-effect
       effect="spiro"
       id="path-effect4338"
       is_visible="true" />
    <inkscape:path-effect
       effect="skeletal"
       id="path-effect4328"
       is_visible="true"
       pattern="m -504.06612,-57.629458 c 0,-2.76 2.24,-5 5,-5 2.76,0 5,2.24 5,5 0,2.76 -2.24,5 -5,5 -2.76,0 -5,-2.24 -5,-5 z"
       copytype="single_stretched"
       prop_scale="1"
       scale_y_rel="false"
       spacing="0"
       normal_offset="0"
       tang_offset="0"
       prop_units="false"
       vertical_pattern="false"
       fuse_tolerance="0" />
    <inkscape:path-effect
       effect="spiro"
       id="path-effect4326"
       is_visible="true" />
    <inkscape:path-effect
       effect="skeletal"
       id="path-effect4316"
       is_visible="true"
       pattern="M 0,5 C 0,2.24 2.24,0 5,0 7.76,0 10,2.24 10,5 10,7.76 7.76,10 5,10 2.24,10 0,7.76 0,5 Z"
       copytype="single_stretched"
       prop_scale="1"
       scale_y_rel="false"
       spacing="0"
       normal_offset="0"
       tang_offset="0"
       prop_units="false"
       vertical_pattern="false"
       fuse_tolerance="0" />
    <inkscape:path-effect
       effect="skeletal"
       id="path-effect4309"
       is_visible="true"
       pattern="m 501.03566,-268.75134 c 0,-2.76 2.24,-5 5,-5 2.76,0 5,2.24 5,5 0,2.76 -2.24,5 -5,5 -2.76,0 -5,-2.24 -5,-5 z"
       copytype="single_stretched"
       prop_scale="1"
       scale_y_rel="false"
       spacing="0"
       normal_offset="0"
       tang_offset="0"
       prop_units="false"
       vertical_pattern="false"
       fuse_tolerance="0" />
    <inkscape:path-effect
       effect="skeletal"
       id="path-effect4305"
       is_visible="true"
       pattern="m 564.67527,42.375644 c 0,-2.76 2.24,-5 5,-5 2.76,0 5,2.24 5,5 0,2.76 -2.24,5 -5,5 -2.76,0 -5,-2.24 -5,-5 z"
       copytype="single_stretched"
       prop_scale="1"
       scale_y_rel="false"
       spacing="0"
       normal_offset="0"
       tang_offset="0"
       prop_units="false"
       vertical_pattern="false"
       fuse_tolerance="0" />
    <inkscape:path-effect
       effect="skeletal"
       id="path-effect4289"
       is_visible="true"
       pattern="M 0,5 C 0,2.24 2.24,0 5,0 7.76,0 10,2.24 10,5 10,7.76 7.76,10 5,10 2.24,10 0,7.76 0,5 Z"
       copytype="single_stretched"
       prop_scale="1"
       scale_y_rel="false"
       spacing="0"
       normal_offset="0"
       tang_offset="0"
       prop_units="false"
       vertical_pattern="false"
       fuse_tolerance="0" />
    <inkscape:path-effect
       effect="spiro"
       id="path-effect4287"
       is_visible="true" />
    <inkscape:path-effect
       effect="skeletal"
       id="path-effect4283"
       is_visible="true"
       pattern="M 0,5 C 0,2.24 2.24,0 5,0 7.76,0 10,2.24 10,5 10,7.76 7.76,10 5,10 2.24,10 0,7.76 0,5 Z"
       copytype="single_stretched"
       prop_scale="1"
       scale_y_rel="false"
       spacing="0"
       normal_offset="0"
       tang_offset="0"
       prop_units="false"
       vertical_pattern="false"
       fuse_tolerance="0" />
    <inkscape:path-effect
       effect="spiro"
       id="path-effect4281"
       is_visible="true" />
    <inkscape:path-effect
       fuse_tolerance="0"
       vertical_pattern="false"
       prop_units="false"
       tang_offset="0"
       normal_offset="0"
       spacing="0"
       scale_y_rel="false"
       prop_scale="0.51"
       copytype="single_stretched"
       pattern="m 906.35986,366.26421 c 0,-2.76 2.24,-5 5,-5 2.76,0 5,2.24 5,5 0,2.76 -2.24,5 -5,5 -2.76,0 -5,-2.24 -5,-5 z"
       is_visible="true"
       id="path-effect4255"
       effect="skeletal" />
    <inkscape:path-effect
       is_visible="true"
       id="path-effect4253"
       effect="spiro" />
    <inkscape:path-effect
       effect="skeletal"
       id="path-effect4194"
       is_visible="true"
       pattern="m 1005.2179,939.99645 c 0,-2.76 2.24,-5 5,-5 2.76,0 5,2.24 5,5 0,2.76 -2.24,5 -5,5 -2.76,0 -5,-2.24 -5,-5 z"
       copytype="single_stretched"
       prop_scale="0.18"
       scale_y_rel="false"
       spacing="0"
       normal_offset="0"
       tang_offset="0"
       prop_units="false"
       vertical_pattern="false"
       fuse_tolerance="1.9" />
    <inkscape:path-effect
       effect="spiro"
       id="path-effect4192"
       is_visible="true" />
    <inkscape:path-effect
       fuse_tolerance="0"
       vertical_pattern="false"
       prop_units="false"
       tang_offset="0"
       normal_offset="0"
       spacing="0"
       scale_y_rel="false"
       prop_scale="1"
       copytype="single_stretched"
       pattern="m 587.83768,243.31698 c 0,-2.76 2.24,-5 5,-5 2.76,0 5,2.24 5,5 0,2.76 -2.24,5 -5,5 -2.76,0 -5,-2.24 -5,-5 z"
       is_visible="true"
       id="path-effect8355"
       effect="skeletal" />
    <inkscape:path-effect
       is_visible="true"
       id="path-effect8353"
       effect="spiro" />
    <inkscape:path-effect
       fuse_tolerance="1.9"
       vertical_pattern="false"
       prop_units="false"
       tang_offset="0"
       normal_offset="0"
       spacing="0"
       scale_y_rel="false"
       prop_scale="0.86"
       copytype="single_stretched"
       pattern="m 1190.8781,264.7204 c 0,-2.76 2.24,-5 5,-5 2.76,0 5,2.24 5,5 0,2.76 -2.24,5 -5,5 -2.76,0 -5,-2.24 -5,-5 z"
       is_visible="true"
       id="path-effect8329"
       effect="skeletal" />
    <inkscape:path-effect
       is_visible="true"
       id="path-effect8327"
       effect="spiro" />
    <inkscape:path-effect
       fuse_tolerance="0"
       vertical_pattern="false"
       prop_units="false"
       tang_offset="0"
       normal_offset="0"
       spacing="0"
       scale_y_rel="false"
       prop_scale="1"
       copytype="single_stretched"
       pattern="m 1125.3617,433.54583 c 0,-2.76 2.24,-5 5,-5 2.76,0 5,2.24 5,5 0,2.76001 -2.24,5.00001 -5,5.00001 -2.76,0 -5,-2.24 -5,-5.00001 z"
       is_visible="true"
       id="path-effect4347"
       effect="skeletal" />
    <inkscape:path-effect
       is_visible="true"
       id="path-effect4345"
       effect="spiro" />
    <inkscape:path-effect
       effect="skeletal"
       id="path-effect4208"
       is_visible="true"
       pattern="m 710.04927,-154.36622 c 0,-2.76 2.24,-5 5,-5 2.76,0 5,2.24 5,5 0,2.76 -2.24,5 -5,5 -2.76,0 -5,-2.24 -5,-5 z"
       copytype="single_stretched"
       prop_scale="1"
       scale_y_rel="false"
       spacing="0"
       normal_offset="0"
       tang_offset="0"
       prop_units="false"
       vertical_pattern="false"
       fuse_tolerance="0" />
    <inkscape:path-effect
       effect="spiro"
       id="path-effect4206"
       is_visible="true" />
    <inkscape:path-effect
       effect="skeletal"
       id="path-effect4202"
       is_visible="true"
       pattern="M 0,5 C 0,2.24 2.24,0 5,0 7.76,0 10,2.24 10,5 10,7.76 7.76,10 5,10 2.24,10 0,7.76 0,5 Z"
       copytype="single_stretched"
       prop_scale="1"
       scale_y_rel="false"
       spacing="0"
       normal_offset="0"
       tang_offset="0"
       prop_units="false"
       vertical_pattern="false"
       fuse_tolerance="0" />
    <inkscape:path-effect
       effect="spiro"
       id="path-effect4200"
       is_visible="true" />
    <inkscape:path-effect
       effect="skeletal"
       id="path-effect4186"
       is_visible="true"
       pattern="m -395.71429,77.857143 c 0,-2.76 2.24,-5 5,-5 2.76,0 5,2.24 5,5 0,2.76 -2.24,5 -5,5 -2.76,0 -5,-2.24 -5,-5 z"
       copytype="single_stretched"
       prop_scale="1"
       scale_y_rel="false"
       spacing="0"
       normal_offset="0"
       tang_offset="0"
       prop_units="false"
       vertical_pattern="false"
       fuse_tolerance="0" />
    <inkscape:path-effect
       effect="skeletal"
       id="path-effect4182"
       is_visible="true"
       pattern="m -434.28571,-182.14286 c 0,-2.76 2.24,-5 5,-5 2.76,0 5,2.24 5,5 0,2.76 -2.24,5 -5,5 -2.76,0 -5,-2.24 -5,-5 z"
       copytype="single_stretched"
       prop_scale="1"
       scale_y_rel="false"
       spacing="0"
       normal_offset="0"
       tang_offset="0"
       prop_units="false"
       vertical_pattern="false"
       fuse_tolerance="0" />
    <inkscape:path-effect
       effect="skeletal"
       id="path-effect4178"
       is_visible="true"
       pattern="m -167.08336,-187.67151 c 0,-2.76 2.24,-5 5,-5 2.76,0 5,2.24 5,5 0,2.76 -2.24,5 -5,5 -2.76,0 -5,-2.24 -5,-5 z"
       copytype="single_stretched"
       prop_scale="1"
       scale_y_rel="false"
       spacing="0"
       normal_offset="0"
       tang_offset="0"
       prop_units="false"
       vertical_pattern="false"
       fuse_tolerance="0" />
    <inkscape:path-effect
       effect="skeletal"
       id="path-effect4174"
       is_visible="true"
       pattern="M 0,5 C 0,2.24 2.24,0 5,0 7.76,0 10,2.24 10,5 10,7.76 7.76,10 5,10 2.24,10 0,7.76 0,5 Z"
       copytype="single_stretched"
       prop_scale="1"
       scale_y_rel="false"
       spacing="0"
       normal_offset="0"
       tang_offset="0"
       prop_units="false"
       vertical_pattern="false"
       fuse_tolerance="0" />
    <inkscape:path-effect
       effect="skeletal"
       id="path-effect4170"
       is_visible="true"
       pattern="m 615.71429,-587.85714 c 0,-2.76 2.24,-5 5,-5 2.76,0 5,2.24 5,5 0,2.76 -2.24,5 -5,5 -2.76,0 -5,-2.24 -5,-5 z"
       copytype="single_stretched"
       prop_scale="1"
       scale_y_rel="false"
       spacing="0"
       normal_offset="0"
       tang_offset="0"
       prop_units="false"
       vertical_pattern="false"
       fuse_tolerance="0" />
    <inkscape:path-effect
       effect="skeletal"
       id="path-effect4166"
       is_visible="true"
       pattern="M 0,5 C 0,2.24 2.24,0 5,0 7.76,0 10,2.24 10,5 10,7.76 7.76,10 5,10 2.24,10 0,7.76 0,5 Z"
       copytype="single_stretched"
       prop_scale="1"
       scale_y_rel="false"
       spacing="0"
       normal_offset="0"
       tang_offset="0"
       prop_units="false"
       vertical_pattern="false"
       fuse_tolerance="0" />
    <inkscape:path-effect
       effect="skeletal"
       id="path-effect4162"
       is_visible="true"
       pattern="M 0,5 C 0,2.24 2.24,0 5,0 7.76,0 10,2.24 10,5 10,7.76 7.76,10 5,10 2.24,10 0,7.76 0,5 Z"
       copytype="single_stretched"
       prop_scale="1"
       scale_y_rel="false"
       spacing="0"
       normal_offset="0"
       tang_offset="0"
       prop_units="false"
       vertical_pattern="false"
       fuse_tolerance="0" />
    <inkscape:path-effect
       effect="skeletal"
       id="path-effect4158"
       is_visible="true"
       pattern="M 0,5 C 0,2.24 2.24,0 5,0 7.76,0 10,2.24 10,5 10,7.76 7.76,10 5,10 2.24,10 0,7.76 0,5 Z"
       copytype="single_stretched"
       prop_scale="1"
       scale_y_rel="false"
       spacing="0"
       normal_offset="0"
       tang_offset="0"
       prop_units="false"
       vertical_pattern="false"
       fuse_tolerance="0" />
    <inkscape:path-effect
       effect="skeletal"
       id="path-effect4154"
       is_visible="true"
       pattern="M 0,5 C 0,2.24 2.24,0 5,0 7.76,0 10,2.24 10,5 10,7.76 7.76,10 5,10 2.24,10 0,7.76 0,5 Z"
       copytype="single_stretched"
       prop_scale="1"
       scale_y_rel="false"
       spacing="0"
       normal_offset="0"
       tang_offset="0"
       prop_units="false"
       vertical_pattern="false"
       fuse_tolerance="0" />
    <inkscape:path-effect
       effect="skeletal"
       id="path-effect4150"
       is_visible="true"
       pattern="M 0,5 C 0,2.24 2.24,0 5,0 7.76,0 10,2.24 10,5 10,7.76 7.76,10 5,10 2.24,10 0,7.76 0,5 Z"
       copytype="single_stretched"
       prop_scale="1"
       scale_y_rel="false"
       spacing="0"
       normal_offset="0"
       tang_offset="0"
       prop_units="false"
       vertical_pattern="false"
       fuse_tolerance="0" />
    <inkscape:path-effect
       effect="powerstroke"
       id="path-effect4146"
       is_visible="true"
       offset_points="0,0.5"
       sort_points="true"
       interpolator_type="Linear"
       interpolator_beta="0.2"
       start_linecap_type="zerowidth"
       linejoin_type="round"
       miter_limit="4"
       end_linecap_type="zerowidth"
       cusp_linecap_type="round" />
    <inkscape:path-effect
       effect="powerstroke"
       id="path-effect4142"
       is_visible="true"
       offset_points="0,0.5"
       sort_points="true"
       interpolator_type="Linear"
       interpolator_beta="0.2"
       start_linecap_type="zerowidth"
       linejoin_type="round"
       miter_limit="4"
       end_linecap_type="zerowidth"
       cusp_linecap_type="round" />
    <inkscape:path-effect
       effect="spiro"
       id="path-effect4206-3"
       is_visible="true" />
    <inkscape:path-effect
       effect="skeletal"
       id="path-effect4208-6"
       is_visible="true"
       pattern="m 814.4209,-150.14612 c 0,-2.76 2.24,-5 5,-5 2.76,0 5,2.24 5,5 0,2.76 -2.24,5 -5,5 -2.76,0 -5,-2.24 -5,-5 z"
       copytype="single_stretched"
       prop_scale="1"
       scale_y_rel="false"
       spacing="0"
       normal_offset="0"
       tang_offset="0"
       prop_units="false"
       vertical_pattern="false"
       fuse_tolerance="0" />
    <inkscape:path-effect
       effect="skeletal"
       id="path-effect4178-7"
       is_visible="true"
       pattern="m -241.64593,382.68543 c 0,-2.76 2.24,-5 5,-5 2.76,0 5,2.24 5,5 0,2.76 -2.24,5 -5,5 -2.76,0 -5,-2.24 -5,-5 z"
       copytype="single_stretched"
       prop_scale="1"
       scale_y_rel="false"
       spacing="0"
       normal_offset="0"
       tang_offset="0"
       prop_units="false"
       vertical_pattern="false"
       fuse_tolerance="0" />
    <inkscape:path-effect
       effect="skeletal"
       id="path-effect4170-5"
       is_visible="true"
       pattern="m 641.2112,-78.743141 c 0,-2.76 2.24,-5 5,-5 2.76,0 5,2.24 5,5 0,2.76 -2.24,5 -5,5 -2.76,0 -5,-2.24 -5,-5 z"
       copytype="single_stretched"
       prop_scale="1"
       scale_y_rel="false"
       spacing="0"
       normal_offset="0"
       tang_offset="0"
       prop_units="false"
       vertical_pattern="false"
       fuse_tolerance="0" />
    <inkscape:path-effect
       effect="spiro"
       id="path-effect4206-2"
       is_visible="true" />
    <inkscape:path-effect
       effect="skeletal"
       id="path-effect4208-9"
       is_visible="true"
       pattern="m 814.4209,-355.8792 c 0,-2.76 2.24,-5 5,-5 2.76,0 5,2.24 5,5 0,2.76 -2.24,5 -5,5 -2.76,0 -5,-2.24 -5,-5 z"
       copytype="single_stretched"
       prop_scale="1"
       scale_y_rel="false"
       spacing="0"
       normal_offset="0"
       tang_offset="0"
       prop_units="false"
       vertical_pattern="false"
       fuse_tolerance="0" />
    <inkscape:path-effect
       effect="spiro"
       id="path-effect4206-27"
       is_visible="true" />
    <inkscape:path-effect
       effect="skeletal"
       id="path-effect4208-0"
       is_visible="true"
       pattern="m 814.42878,-355.8773 c 0,-2.76 2.24,-5 5,-5 2.76,0 5,2.24 5,5 0,2.76 -2.24,5 -5,5 -2.76,0 -5,-2.24 -5,-5 z"
       copytype="single_stretched"
       prop_scale="1"
       scale_y_rel="false"
       spacing="0"
       normal_offset="0"
       tang_offset="0"
       prop_units="false"
       vertical_pattern="false"
       fuse_tolerance="0" />
    <inkscape:path-effect
       is_visible="true"
       id="path-effect8327-3"
       effect="spiro" />
    <inkscape:path-effect
       fuse_tolerance="1.9"
       vertical_pattern="false"
       prop_units="false"
       tang_offset="0"
       normal_offset="0"
       spacing="0"
       scale_y_rel="false"
       prop_scale="0.86"
       copytype="single_stretched"
       pattern="m 977.91016,-93.632751 c 0,-2.76 2.24,-5 5,-5 2.76,0 5,2.24 5,5 0,2.76 -2.24,5 -5,5 -2.76,0 -5,-2.24 -5,-5 z"
       is_visible="true"
       id="path-effect8329-6"
       effect="skeletal" />
    <inkscape:path-effect
       effect="skeletal"
       id="path-effect4170-53"
       is_visible="true"
       pattern="m 466.79086,54.996942 c 0,-2.76 2.24,-5 5,-5 2.76,0 5,2.24 5,5 0,2.76 -2.24,5 -5,5 -2.76,0 -5,-2.24 -5,-5 z"
       copytype="single_stretched"
       prop_scale="1"
       scale_y_rel="false"
       spacing="0"
       normal_offset="0"
       tang_offset="0"
       prop_units="false"
       vertical_pattern="false"
       fuse_tolerance="0" />
    <inkscape:path-effect
       effect="skeletal"
       id="path-effect4170-53-6"
       is_visible="true"
       pattern="m 783.82484,17.930844 c 0,-2.75999 2.24,-5 5,-5 2.76,0 5,2.24001 5,5 0,2.76 -2.24,4.999996 -5,4.999996 -2.76,0 -5,-2.239996 -5,-4.999996 z"
       copytype="single_stretched"
       prop_scale="1"
       scale_y_rel="false"
       spacing="0"
       normal_offset="0"
       tang_offset="0"
       prop_units="false"
       vertical_pattern="false"
       fuse_tolerance="0" />
    <inkscape:path-effect
       effect="spiro"
       id="path-effect4206-9"
       is_visible="true" />
    <inkscape:path-effect
       effect="skeletal"
       id="path-effect4208-1"
       is_visible="true"
       pattern="m 814.42878,-355.8773 c 0,-2.76 2.24,-5 5,-5 2.76,0 5,2.24 5,5 0,2.76 -2.24,5 -5,5 -2.76,0 -5,-2.24 -5,-5 z"
       copytype="single_stretched"
       prop_scale="1"
       scale_y_rel="false"
       spacing="0"
       normal_offset="0"
       tang_offset="0"
       prop_units="false"
       vertical_pattern="false"
       fuse_tolerance="0" />
    <inkscape:path-effect
       effect="skeletal"
       id="path-effect4178-70"
       is_visible="true"
       pattern="m -7.0122325,99.036425 c 0,-2.76 2.24,-5 5,-5 2.76000003,0 5,2.24 5,5 0,2.760005 -2.23999997,5.000005 -5,5.000005 -2.76,0 -5,-2.24 -5,-5.000005 z"
       copytype="single_stretched"
       prop_scale="0.5"
       scale_y_rel="false"
       spacing="0"
       normal_offset="0"
       tang_offset="0"
       prop_units="false"
       vertical_pattern="false"
       fuse_tolerance="0" />
    <inkscape:path-effect
       effect="spiro"
       id="path-effect4326-3"
       is_visible="true" />
    <inkscape:path-effect
       effect="skeletal"
       id="path-effect4328-6"
       is_visible="true"
       pattern="m -513.91524,-945.41457 c 0,-2.76 2.24,-5 5,-5 2.76,0 5,2.24 5,5 0,2.76 -2.24,5 -5,5 -2.76,0 -5,-2.24 -5,-5 z"
       copytype="single_stretched"
       prop_scale="1"
       scale_y_rel="false"
       spacing="0"
       normal_offset="0"
       tang_offset="0"
       prop_units="false"
       vertical_pattern="false"
       fuse_tolerance="0" />
  </defs>
  <sodipodi:namedview
     id="base"
     pagecolor="#ffffff"
     bordercolor="#666666"
     borderopacity="1.0"
     inkscape:pageopacity="0.0"
     inkscape:pageshadow="2"
     inkscape:zoom="0.49497475"
     inkscape:cx="582.3092"
     inkscape:cy="714.61682"
     inkscape:document-units="px"
     inkscape:current-layer="layer1"
     showgrid="false"
     inkscape:window-width="1908"
     inkscape:window-height="1091"
     inkscape:window-x="6"
     inkscape:window-y="46"
     inkscape:window-maximized="1"
     showguides="false"
     fit-margin-top="1.3"
     fit-margin-left="1.3"
     fit-margin-right="1.3"
     fit-margin-bottom="1.3"
     showborder="false" />
  <metadata
     id="metadata7">
    <rdf:RDF>
      <cc:Work
         rdf:about="">
        <dc:format>image/svg+xml</dc:format>
        <dc:type
           rdf:resource="http://purl.org/dc/dcmitype/StillImage" />
        <dc:title></dc:title>
      </cc:Work>
    </rdf:RDF>
  </metadata>
  <g
     inkscape:label="Layer 1"
     inkscape:groupmode="layer"
     id="layer1"
     transform="translate(417.42006,-21.968392)">
    <path
       style="fill:#000000;fill-opacity:1;fill-rule:nonzero;stroke:none;stroke-width:1px;stroke-linecap:butt;stroke-linejoin:miter;stroke-opacity:1"
       d="m 177.39416,146.17327 c -0.25355,0.001 -2.04707,-10.43875 -0.405,-29.55555 0.54413,-6.35736 1.57404,-14.29717 3.85879,-22.451454 1.42914,-5.122999 3.49728,-10.770992 6.75881,-16.101528 2.28601,-3.746303 5.33959,-7.449745 9.34202,-10.3758 3.27851,-2.373097 7.16507,-4.113395 11.39845,-4.924573 4.06572,-0.762255 8.27594,-0.707432 12.42194,0.01202 4.34455,0.748339 8.57994,2.126207 12.68816,3.943433 4.32525,1.907155 8.49739,4.253393 12.55983,6.936453 8.23201,5.435635 15.94758,12.079872 23.26072,19.745601 6.44117,6.735405 12.6431,14.314445 18.02013,22.778145 2.15629,3.39046 4.20791,6.99652 5.96714,10.84089 1.37328,2.96526 2.61229,6.23391 3.33025,9.81603 0.28098,1.39565 0.4562,2.91348 0.44238,4.53451 0,0 -10e-6,4e-5 -10e-6,4e-5 0.002,1.34205 -0.20986,2.82247 -0.72717,4.37397 -1e-5,1e-5 -1e-5,5e-5 -1e-5,5e-5 -0.46803,1.38834 -1.27807,2.7294 -2.43642,3.9163 -1.23196,1.1841 -2.62007,2.00512 -4.05024,2.46555 0,0 -5e-5,2e-5 -5e-5,2e-5 -3.51058,1.20961 -7.30747,2.33707 -11.39109,2.93152 -2.39378,0.43763 -5.37435,0.54577 -8.66414,-0.39645 -1.20532,-0.36707 -2.43733,-1.02753 -3.60791,-2.01385 0,0 -5e-5,-3e-5 -5e-5,-3e-5 -1.06527,-0.95192 -1.87809,-2.0764 -2.41335,-3.30877 -1.08432,-2.83071 -1.18794,-5.4261 -0.81805,-7.46852 0.37093,-2.87043 1.12161,-5.48843 1.95861,-7.88207 10e-6,0 10e-6,-3e-5 10e-6,-3e-5 1.04698,-3.05725 2.25821,-5.98474 3.51136,-8.84668 3.07564,-7.03717 6.17354,-13.31179 9.34208,-20.26243 3.21444,-7.065997 6.32448,-14.277337 8.66707,-21.626805 2.06565,-6.591608 3.70297,-13.28268 3.55264,-19.766289 -0.0576,-2.808421 -0.40889,-5.55248 -1.23275,-8.049341 -0.78124,-2.408538 -1.99901,-4.686702 -3.59596,-6.610465 -1.75554,-2.160574 -4.09622,-3.98131 -6.71286,-5.490131 -3.27942,-1.888512 -7.03701,-3.195738 -11.01038,-4.204074 -8.5387,-2.120623 -17.50216,-2.968202 -26.40932,-2.375275 -6.83414,0.454932 -13.54075,1.751816 -19.91471,3.902103 -13.97461,4.672746 -26.3917,13.268884 -35.90574,23.966914 -9.86921,11.108668 -16.69753,24.492389 -19.92035,38.322153 -3.50625,15.01015 -2.66688,30.56182 1.85328,44.35673 3.20881,9.71273 8.0761,18.51195 14.74139,25.24891 6.04944,6.17588 13.59252,10.63114 21.46436,13.18225 8.45632,2.75869 17.43045,3.42181 25.94073,2.7868 9.76543,-0.73693 19.1168,-3.22749 27.5796,-6.60329 9.79347,-3.91352 18.50504,-9.07842 25.98376,-14.79512 8.75319,-6.69624 15.7734,-14.10551 21.21145,-21.60451 6.85304,-9.45291 11.02887,-18.80779 13.45216,-27.06711 0,0 0,-1e-5 0,-1e-5 5.90607,-20.090084 1.98481,-31.417283 3.63041,-31.662372 -0.36262,0.05401 5.14885,11.1961 0.17187,32.658292 -1e-5,0 -1e-5,10e-6 -1e-5,10e-6 -2.04323,8.79207 -5.97372,18.89335 -12.83216,29.14793 -5.43703,8.13189 -12.59266,16.23237 -21.64713,23.58203 -7.73203,6.28093 -16.83536,12.01127 -27.19758,16.44009 -8.95227,3.83224 -18.98093,6.72452 -29.67283,7.7577 -9.33761,0.90933 -19.35781,0.32077 -29.13148,-2.64922 -9.15163,-2.79843 -17.94637,-7.82126 -25.17596,-14.97364 -7.85347,-7.83564 -13.58544,-17.74565 -17.21556,-28.54974 -5.19588,-15.35314 -6.30283,-32.59347 -2.509,-49.40153 3.49052,-15.431123 10.95271,-30.296712 21.88844,-42.708409 10.5486,-11.983178 24.35583,-21.575789 40.10733,-26.899815 7.22391,-2.422617 14.76934,-3.889719 22.42828,-4.407874 9.98271,-0.675366 19.97633,0.273306 29.49831,2.667855 4.59922,1.134815 9.19675,2.790801 13.52174,5.242118 3.50561,1.985149 6.75678,4.589701 9.44294,7.831162 2.41548,2.956185 4.21498,6.328864 5.34823,9.891376 1.14526,3.644533 1.63835,7.349681 1.66455,10.938495 0.0411,8.131369 -1.7936,15.846273 -4.13472,22.88915 -2.59616,7.930944 -5.89212,15.469652 -9.23155,22.637972 -3.3077,7.11501 -6.41879,13.2791 -9.4502,20.05525 -1.22736,2.74874 -2.36986,5.42292 -3.30817,8.09561 0,0 -10e-6,2e-5 -10e-6,2e-5 -0.73798,2.15205 -1.36546,4.13245 -1.59022,5.98974 -0.0598,1.36801 -0.21388,2.34215 0.0685,2.63834 0.0338,0.0699 0.0596,0.13062 0.0571,0.11571 0,0 0,0 0,0 -0.0131,0.0341 0.15278,0.095 0.40819,0.20896 0.95702,0.45601 2.59485,0.25577 4.58722,0.0968 3.18467,-0.39422 6.45867,-1.35297 9.78974,-2.42391 0,0 10e-6,0 10e-6,0 0.31134,-0.12009 0.55786,-0.22419 0.6261,-0.32422 0.1024,-0.0583 0.21566,-0.27789 0.33741,-0.55217 0,0 10e-6,-2e-5 10e-6,-2e-5 0.16046,-0.35922 0.21793,-0.91332 0.25937,-1.58791 0,-1e-5 0,-2e-5 0,-2e-5 0.0345,-0.8234 -0.0737,-1.74392 -0.24298,-2.73585 -0.44655,-2.59235 -1.44083,-5.2359 -2.595,-7.90903 -1.48933,-3.40273 -3.30699,-6.69863 -5.26197,-9.89547 -4.88907,-7.98516 -10.63815,-15.25226 -16.65945,-21.802948 -6.85403,-7.437812 -13.98017,-13.859573 -21.56339,-19.103908 -3.73327,-2.581342 -7.49355,-4.825412 -11.35007,-6.63553 -3.6678,-1.715705 -7.32223,-3.031122 -10.99015,-3.751467 -3.48022,-0.678429 -6.90148,-0.850445 -10.10222,-0.324417 -3.2989,0.524248 -6.41085,1.796013 -9.04899,3.57884 -3.27807,2.18795 -5.95669,5.253309 -8.10614,8.448894 -3.07332,4.584208 -5.18338,9.739131 -6.76746,14.525758 -2.50701,7.605798 -3.90712,15.290078 -4.82305,21.459898 -2.7623,18.64472 -2.25165,29.11681 -3.31983,29.12124 z"
       id="path4168"
       inkscape:path-effect="#path-effect4170"
       inkscape:original-d="m 177.39416,146.17327 c -0.73654,-177.47548 141.23813,-8.3519 111.01876,1.72122 C 220.32279,170.5912 346.24154,53.699551 268.61888,34.293891 198.36523,16.730481 141.80597,85.881668 162.76378,148.7551 c 30.04189,90.12569 171.73659,27.90168 158.35235,-61.963962"
       inkscape:connector-curvature="0" />
    <path
       style="fill:#000000;fill-rule:nonzero;stroke:none;stroke-width:1px;stroke-linecap:butt;stroke-linejoin:miter;stroke-opacity:1"
       d="m 470.23041,235.53718 c 0.11806,-0.59704 3.12851,0.45049 8.8612,-0.62549 2.26048,-0.42171 4.90258,-1.22696 7.68355,-2.69634 4.45219,-2.33606 8.71521,-6.06062 13.08104,-11.70772 3.88702,-5.05559 7.25358,-10.91579 10.64399,-18.14464 3.08174,-6.58562 5.82805,-13.64788 8.59113,-21.70718 0,0 10e-6,-2e-5 10e-6,-2e-5 2.41127,-7.03753 4.61797,-14.24836 6.96049,-22.25047 1.73887,-5.94212 3.81079,-13.30549 5.79784,-19.80096 0.80755,-2.64098 1.66949,-5.36292 2.63138,-8.08872 0.74001,-2.10529 1.56882,-4.2962 2.59498,-6.4827 0.66389,-1.47899 1.55716,-3.15029 2.92147,-4.78612 0.46873,-0.581 1.14558,-1.20045 2.06266,-1.78394 0.76764,-0.50414 1.79441,-0.82221 3.04338,-0.87802 2.30685,0.14177 4.03371,0.86644 5.12863,1.68776 1.80669,1.13348 3.32641,2.44228 4.6587,3.7492 0,0 2e-5,2e-5 2e-5,2e-5 3.87557,3.75801 7.13325,7.95864 10.20395,12.30669 3.87082,5.4555 7.44042,11.22123 10.81251,17.27524 3.56958,6.40413 6.91536,13.14137 9.9258,20.19024 2.84232,6.64777 5.42558,13.66659 7.4075,21.00449 1.6981,6.23571 3.0015,12.91523 3.16789,19.86635 0.19261,5.45469 -0.54422,11.45915 -3.34286,17.08368 -1.26846,2.46903 -3.0132,4.74708 -5.20354,6.65069 -2.31962,1.97757 -4.96964,3.42509 -7.74495,4.34809 -2.87788,1.02138 -6.1891,1.74857 -9.81853,1.64445 -2.66984,-0.058 -5.51378,-0.89188 -8.10646,-2.70485 -2.31328,-1.79059 -3.90761,-4.08265 -4.77092,-6.51161 2e-5,0 -1e-5,-4e-5 -1e-5,-4e-5 -0.99179,-2.75428 -1.34842,-5.49345 -1.31785,-8.03509 0.0412,-6.43353 1.66261,-12.52852 3.90967,-18.10821 2.54344,-6.46931 6.00473,-12.64175 10.29873,-18.27333 4.086,-5.41393 9.14538,-10.47512 15.3535,-14.25904 2.84129,-1.72478 5.98566,-3.13262 9.38047,-4.02932 0,0 5e-5,0 5e-5,0 3.30068,-0.86603 6.79506,-1.16356 10.3008,-0.78705 0,0 4e-5,0 4e-5,0 3.73709,0.42653 7.3046,1.59023 10.52633,3.32057 3.82548,2.065 7.14436,4.75384 9.9879,7.7356 8.18649,8.61693 13.51103,19.12857 17.67828,29.70965 3.68097,8.98239 5.43044,19.30629 3.33018,29.53782 -0.70329,3.24901 -1.80018,6.40011 -3.24926,9.38181 -0.51164,1.05277 -1.06638,2.08277 -1.66197,3.08699 -2.33658,3.92597 -5.22138,7.41942 -8.43223,10.45691 -7.21206,6.78732 -15.80548,11.54237 -24.52353,14.90533 -10.15478,3.95134 -20.71498,6.28103 -31.14971,7.50219 -23.10349,2.74536 -46.18238,0.50557 -67.14469,-6.63891 -10.21332,-3.46882 -19.90907,-8.24878 -28.43054,-14.67234 -8.17522,-6.1515 -15.0362,-13.93977 -19.55164,-22.99813 -5.03924,-10.25116 -7.09642,-21.46309 -6.82909,-32.20672 0.30325,-11.95298 3.17435,-23.37753 7.22523,-33.67957 4.70799,-12.00852 11.04631,-22.8822 17.96062,-32.5034 7.92181,-11.03352 16.74057,-20.65127 25.78247,-28.90311 10.11577,-9.23708 20.51247,-16.766533 30.85532,-22.754251 11.487,-6.656893 22.58465,-11.199152 33.20061,-13.933094 12.49012,-3.225739 23.47193,-3.606091 32.70026,-2.282442 10.12233,1.460075 17.64392,5.063047 22.06342,7.739641 4.57397,2.770142 6.4763,4.836493 6.34059,5.024399 -0.22953,0.317805 -2.49573,-1.237688 -7.20314,-3.401846 -4.55334,-2.093326 -11.99919,-4.968772 -21.61555,-5.819005 -8.8307,-0.789216 -19.13158,0.06557 -30.95596,3.55434 -10.05127,2.973239 -20.49669,7.659875 -31.39903,14.364776 -9.80453,6.036002 -19.63012,13.530442 -29.19764,22.644122 -8.54447,8.1439 -16.84157,17.55017 -24.23372,28.2352 -6.44428,9.32418 -12.30135,19.72238 -16.52864,31.01417 -3.61425,9.68612 -6.14502,20.19648 -6.24708,30.85685 -0.0956,9.50451 1.78341,19.31584 6.20569,27.98776 3.79901,7.57055 9.82403,14.19775 17.03222,19.59302 7.58062,5.66265 16.41999,9.8984 25.8873,13.08236 19.53778,6.54605 41.18759,8.50408 62.90882,5.88498 9.7712,-1.197 19.51597,-3.35224 28.69385,-6.96671 7.86208,-3.12564 15.37402,-7.21204 21.26985,-12.8762 2.61614,-2.49772 4.92745,-5.2756 6.71251,-8.30706 0.45527,-0.76966 0.87962,-1.55826 1.27087,-2.36277 1.1081,-2.27858 1.94568,-4.67466 2.47031,-7.11768 1.75011,-7.61707 0.18207,-16.01366 -2.81494,-23.72614 -4.08137,-10.04043 -8.68001,-19.4864 -15.55765,-26.56051 -2.31943,-2.39607 -4.806,-4.47176 -7.50203,-5.89748 -2.22602,-1.18565 -4.60479,-1.99442 -6.96658,-2.25019 0,0 -3e-5,0 -3e-5,0 -2.21238,-0.26319 -4.52789,-0.0634 -6.76121,0.50028 0,0 -3e-5,10e-6 -3e-5,10e-6 -2.33056,0.58243 -4.62271,1.61705 -6.81719,2.91186 -4.87524,2.86199 -9.066,7.09438 -12.7134,11.76789 -3.7776,4.89698 -6.8442,10.28196 -9.10532,15.91806 -1.94187,4.97465 -3.38413,9.88693 -3.36162,14.61367 0.0233,1.81736 0.16409,3.46153 0.68065,4.76419 0,0 1e-5,2e-5 1e-5,2e-5 0.42034,1.02355 0.93799,1.91414 1.56196,2.30749 0.58874,0.5525 1.73205,0.80299 2.99459,0.92998 1.92722,0.15724 4.13717,-0.38899 6.48441,-1.10933 1.784,-0.59677 3.42756,-1.44534 4.72705,-2.5646 1.251,-1.04112 2.30246,-2.4073 3.11267,-3.91804 1.97976,-3.52434 2.44958,-8.10967 2.47943,-12.7579 -0.041,-5.92701 -1.17257,-11.93628 -2.66124,-17.80733 -1.75749,-6.86847 -4.12437,-13.55084 -6.75852,-19.97325 -2.79289,-6.80144 -5.91689,-13.33146 -9.26261,-19.56351 -3.16842,-5.89732 -6.49142,-11.47581 -10.08379,-16.72644 -2.90722,-4.22741 -5.77628,-8.1157 -9.08575,-11.41489 0,0 -1e-5,-1e-5 -1e-5,-1e-5 -1.16012,-1.14113 -2.23554,-2.14349 -3.34785,-2.8415 -0.85161,-0.40026 -1.26394,-0.77788 -1.23335,-0.63494 0.40378,-0.0558 0.60472,-0.0854 0.64807,-0.15994 -5.8e-4,-0.039 -0.10428,0.0887 -0.3354,0.30671 -0.69067,0.71068 -1.2662,1.83938 -1.94069,3.13133 -0.91083,1.82376 -1.6947,3.78527 -2.45169,5.78037 -0.96873,2.56229 -1.86031,5.17652 -2.71551,7.75683 -2.05849,6.21358 -4.39164,13.77303 -6.25942,19.58522 -2.562,7.97441 -5.01604,15.23921 -7.68611,22.30832 0,0 -1e-5,2e-5 -1e-5,2e-5 -3.0559,8.09482 -6.13957,15.26342 -9.57049,21.91935 -3.75476,7.29878 -7.60186,13.3193 -11.95833,18.44479 -4.86931,5.75877 -9.87998,9.53963 -14.88761,11.73968 -3.16717,1.38212 -6.12933,1.99661 -8.60243,2.19131 -6.2569,0.48616 -9.12018,-1.27888 -9.1135,-1.31267 z"
       id="path4176"
       inkscape:path-effect="#path-effect4178"
       inkscape:original-d="m 470.23041,235.53718 c 50.28698,9.94394 62.07969,-115.32182 74.87312,-115.32182 14.40422,0 72.73181,103.12644 33.56381,116.18243 -50.7959,16.93197 18.63493,-128.11662 60.24272,-24.0971 31.68659,79.21644 -138.69786,93.52739 -172.12209,26.67893 C 429.29682,163.99731 562.45735,37.268709 632.02522,87.512163"
       inkscape:connector-curvature="0" />
    <path
       style="fill:#000000;fill-rule:nonzero;stroke:none;stroke-width:1px;stroke-linecap:butt;stroke-linejoin:miter;stroke-opacity:1"
       d="m -53.675158,324.50685 c -1.137314,-1.50985 11.969647,-8.193 24.194053,-30.4676 6.236288,-11.3721 12.103264,-27.53062 11.684842,-46.13252 0.828373,-6.93681 1.010807,-14.22323 0.353399,-21.60383 3.541538,6.09907 8.3145066,12.03815 14.3187154,17.33954 4.4702247,5.39108 9.7960909,10.0571 15.6755656,15.26636 5.420832,4.76771 11.354252,10.03923 16.452469,16.28945 4.932417,6.00703 9.13909,13.35614 10.877728,21.78943 1.692536,8.16549 0.511565,17.39444 -4.632698,24.97773 -3.927863,5.68361 -10.171198,9.87495 -17.431404,10.96697 -3.552199,0.50684 -7.241559,0.19913 -10.7438717,-0.98165 -3.4655478,-1.17262 -6.64743001,-3.21315 -9.1862596,-5.9938 5.3e-6,0 -2.46e-5,-2e-5 -2.46e-5,-2e-5 -3.0036233,-3.35123 -4.9066552,-7.49526 -5.5784099,-11.84518 -0.6577588,-4.27752 -0.2409679,-8.60475 1.0688271,-12.61194 3.2542953,-9.37015 9.9896724,-16.27182 16.7530617,-21.89243 6.312952,-5.57109 12.870091,-10.5916 16.212222,-16.908 2.93753,-5.20018 4.054752,-11.6025 3.289403,-17.76403 -0.747411,-6.08327 -3.414996,-12.05626 -7.372811,-17.03449 -1.423088,-1.79188 -3.026833,-3.45785 -4.776386,-4.98584 -3.080849,-2.69071 -6.587159,-4.93039 -10.3031003,-6.67122 -5.9070284,-2.76755 -12.4358414,-4.24876 -18.9898147,-4.67109 -8.388806,-0.54235 -16.88187,0.73817 -24.917859,3.18626 -21.56603,6.5957 -39.369544,22.09766 -49.139415,40.52158 -10.834273,20.36155 -12.053034,44.07154 -5.932342,63.62157 4.164418,13.24667 11.453742,24.67747 20.826848,32.7855 13.042072,11.40194 29.852561,16.14713 44.33203,16.77156 18.9697414,0.81836 36.0121487,-5.03485 47.719407,-10.5878 21.447389,-10.19552 30.051119,-20.67991 31.100925,-19.59475 -0.0173,-0.0179 -7.521332,11.6634 -29.141793,23.43578 -11.80381,6.43958 -29.3494464,13.30481 -49.838873,13.13293 -15.685495,-0.13261 -34.108551,-4.82083 -49.165256,-17.27648 -10.715255,-8.94831 -19.130453,-21.4652 -23.924898,-36.06331 -7.115482,-21.58827 -6.169472,-47.65953 5.711512,-70.58684 10.775734,-20.73039 30.31653,-38.03119 54.538544,-45.58636 8.985223,-2.81235 18.647426,-4.26999 28.439996,-3.69862 7.6608232,0.44842 15.3910257,2.21746 22.595786,5.54874 4.544749,2.10155 8.840966,4.85375 12.670993,8.21249 2.174873,1.90726 4.188568,4.00062 6.00631,6.26716 5.070336,6.32751 8.425007,13.97308 9.453209,22.03103 1.039049,8.20895 -0.51047,16.64428 -4.539164,23.85693 -4.941073,8.44234 -12.231388,14.2855 -18.471862,19.49248 -6.259912,5.5608 -12.0506831,10.91565 -13.9692746,17.44083 -0.8750347,2.70594 -1.2057017,5.5437 -0.7900736,8.15691 0.4152352,2.62811 1.5015342,5.14962 3.1653905,6.97407 0,0 1.69e-5,2e-5 1.69e-5,2e-5 1.3679871,1.55153 3.220264,2.75372 5.2080568,3.45739 2.015537,0.7177 4.265922,0.92013 6.42586,0.64413 4.379936,-0.50321 8.595148,-3.33476 11.247246,-6.99494 3.644562,-4.89715 4.494878,-11.84056 3.422123,-18.07019 -1.143356,-6.56958 -4.660283,-12.75717 -8.841311,-18.16711 -4.379209,-5.62264 -9.930229,-10.69358 -15.2305274,-15.57636 -5.786155,-5.2914 -11.3153758,-10.39568 -16.1726996,-16.46625 -3.901329,-6.87229 -6.644716,-14.28724 -8.302765,-21.76594 3.143169,7.21195 5.052669,14.37468 5.955299,21.19663 -0.207895,20.06715 -7.120998,36.86684 -14.27957,48.40838 -14.023112,22.62368 -28.270955,27.90337 -28.027375,28.22674 z"
       id="path4204"
       inkscape:path-effect="#path-effect4206;#path-effect4208"
       inkscape:original-d="m -53.675158,324.50685 c 10.62595,-7.44754 18.5022,-18.69524 26.11072,-29.34718 9.73394,-13.6275 16.84688,-29.89473 12.9822,-47.27044 -2.13849,-9.61469 -2.73133,-21.73233 -2.80095,-21.40023 -8.58533,4.73625 7.01996,14.5215 11.3107402,19.55274 9.49403,11.1324 62.3974098,60.90161 37.5977398,73.30144 -8.93277,4.46639 -20.22861,5.91563 -30.1213698,3.44245 -13.2032202,-3.30081 -8.78414,-11.78151 -3.44245,-19.79405 9.07214,-13.6082 26.2192598,-22.73764 32.7032098,-37.86687 9.07072,-21.16501 -24.4745998,-54.98245 -42.16992,-58.52151 -8.75582,-1.75117 -18.39948,1.07688 -26.67893,3.44244 -47.506532,13.5733 -57.660912,65.65454 -57.660912,110.15815 0,16.44366 9.79318,24.98741 22.37588,34.42443 40.640332,30.48024 47.510882,31.01891 95.527772,5.16366 9.95161,-5.35856 23.62582,-11.77192 30.12137,-21.51527"
       inkscape:connector-curvature="0"
       sodipodi:nodetypes="csscssssssssssc" />
    <path
       style="fill:#800000;fill-rule:nonzero;stroke:none;stroke-width:0.1;stroke-linecap:butt;stroke-linejoin:miter;stroke-miterlimit:4;stroke-dasharray:none;stroke-opacity:1"
       d="m 278.98885,489.85713 c -1.29462,-1.62557 11.44876,-12.84506 25.38818,-30.98068 0,0 0,0 0,0 3.15514,-4.12545 6.44706,-8.66583 9.2809,-13.44269 1.50832,-2.54251 2.83922,-5.0697 3.98268,-7.61634 3.80542,-8.51515 5.32154,-16.34996 5.00172,-23.33993 -0.41306,-8.32519 -3.14646,-14.74752 -4.25084,-17.84377 -0.27562,-1.95409 -0.18521,-3.0102 0.24818,-3.16498 0.43219,-0.15436 1.17178,0.5996 2.0924,1.9987 2.62475,2.56286 7.19855,8.819 8.65872,18.30187 1.26814,8.15572 0.21911,17.68975 -3.97064,27.4512 -1.24599,2.91568 -2.70821,5.77451 -4.3687,8.58774 -3.13535,5.31198 -6.74811,10.07043 -10.27984,14.22924 0,0 0,0 0,0 -15.62128,18.48036 -30.71568,27.1595 -31.78276,25.81964 z m 39.65082,-96.38839 c 0.16654,0.28344 1.22205,-2.47858 6.15025,-1.80832 1.84182,0.25355 4.15065,1.19649 5.90627,3.31639 0.9607,1.17279 1.70146,2.6195 2.14837,4.26296 0.39697,1.45164 0.58157,2.98062 0.61369,4.58678 0.0316,1.44056 -0.26989,7.01917 -0.19161,8.5448 0.23601,5.97567 3.10836,12.1876 8.25967,18.27098 4.49289,5.25156 9.38194,8.94579 15.70594,14.49873 5.13655,4.45232 10.88556,10.04058 14.62734,17.29564 1.74726,3.4226 3.00609,7.3083 3.35883,11.46493 0.33964,3.99283 -0.25688,8.23445 -2.07452,12.1661 -1.57978,3.36838 -4.04288,6.3624 -7.1854,8.59455 -3.04686,2.15972 -6.66611,3.563 -10.49905,3.98633 -3.72414,0.40776 -7.57409,-0.11304 -11.14208,-1.5779 -3.47321,-1.42963 -6.61235,-3.72164 -9.0664,-6.697 -2.5854,-3.1488 -4.35147,-6.95895 -5.1029,-11.03131 -0.72983,-3.97087 -0.51923,-8.10685 0.60758,-12.03958 1.3981,-4.7796 3.95399,-9.05864 7.11635,-12.7134 3.07214,-3.57005 6.54875,-6.58187 10.09512,-9.3869 6.67247,-5.39729 13.99606,-10.35945 18.01829,-16.90596 3.4668,-5.37661 5.06922,-12.1502 4.63961,-18.85584 -0.41292,-6.53107 -2.81996,-13.07102 -6.65598,-18.74789 -7.34869,-11.03268 -20.26287,-18.29969 -34.275,-21.64795 -11.38835,-2.65615 -23.55621,-2.75181 -35.48235,-0.53378 -0.47151,0.088 -0.94256,0.17976 -1.41311,0.27541 -12.48466,2.53768 -24.26431,7.70203 -34.45147,14.76458 -10.91754,7.58074 -19.99278,17.337 -26.28843,28.37247 -6.61785,11.58142 -10.30844,24.45024 -10.93549,37.09728 -0.66869,13.41243 2.07982,26.55299 7.47233,37.89887 6.41525,13.53706 16.56405,24.52262 27.86968,32.162 15.93123,10.78786 34.30141,15.09911 50.34567,15.50656 21.01585,0.53497 39.50879,-5.37454 52.47923,-11.2081 22.65758,-10.20175 32.17105,-20.81411 33.11849,-19.75328 -0.0423,-0.0473 -8.61067,11.67979 -31.42931,23.27726 -13.05984,6.64403 -32.0051,13.45236 -54.23356,13.50345 -16.98915,0.0378 -36.6259,-4.12647 -54.1444,-15.49169 -12.42397,-8.07625 -23.63149,-19.84922 -30.90352,-34.66652 -6.08484,-12.43041 -9.26731,-26.80362 -8.65537,-41.59546 0.58029,-13.94374 4.51203,-28.08383 11.72845,-40.8682 6.90604,-12.21618 16.77778,-22.95053 28.69551,-31.25206 11.10126,-7.74389 23.9355,-13.38701 37.61753,-16.17377 0.51561,-0.10502 1.03188,-0.20586 1.54875,-0.30252 13.01789,-2.4411 26.36723,-2.29397 39.00605,0.66256 15.71308,3.59549 30.30047,12.14761 39.26265,25.29703 4.6055,6.83831 7.4207,14.77966 7.92133,22.91305 0.511,8.39304 -1.60743,16.7909 -6.0965,23.72339 -5.49703,8.18037 -13.4253,13.64961 -19.96627,18.64366 -3.41082,2.66616 -6.56188,5.29156 -9.14451,8.25972 -2.62449,3.03618 -4.7242,6.33345 -5.73999,9.82412 -0.85205,2.84704 -1.06412,5.86069 -0.57852,8.6823 0.49382,2.88688 1.69788,5.63506 3.46012,7.8349 1.66081,2.08692 3.84966,3.75114 6.2415,4.78228 2.45417,1.06184 5.17893,1.48827 7.77515,1.25079 2.67208,-0.24073 5.27429,-1.18358 7.43277,-2.65201 2.22951,-1.51216 4.04597,-3.61569 5.20547,-5.95998 1.37425,-2.72492 1.87456,-5.91291 1.71379,-8.98611 -0.16961,-3.2193 -1.13309,-6.40491 -2.50355,-9.31988 -2.88511,-6.21483 -8.08798,-11.48152 -12.88521,-16.00295 -5.99008,-5.57111 -10.9976,-9.7167 -15.64036,-15.53892 -5.46305,-6.78429 -8.26898,-14.13453 -8.26479,-21.03834 0.0226,-2.09111 0.6581,-7.36478 0.71214,-8.63155 0.0585,-1.44205 0.006,-2.74227 -0.23608,-3.95263 -0.27466,-1.36245 -0.74272,-2.54606 -1.40633,-3.50324 -1.18249,-1.73323 -2.9429,-2.71091 -4.42113,-3.10976 -3.99333,-1.08593 -5.46449,0.87326 -5.84073,0.23293 z"
       id="path4204-1"
       inkscape:path-effect="#path-effect8327;#path-effect8329"
       inkscape:original-d="m 278.98885,489.85713 c 11.3853,-7.44754 20.43323,-17.74822 28.58547,-28.40016 10.42955,-13.6275 21.13948,-29.71217 18.44224,-47.33357 -0.97758,-6.38659 -4.33825,-12.1467 -6.45478,-18.07282 0,0 0.40999,-3.82511 -0.92211,-2.58184 m 0,0 c -0.4598,0.42913 10.54056,1.42262 11.15919,2.19245 3.95811,4.92549 -1.39548,11.45611 1.75036,16.74098 7.60331,12.77318 65.30061,59.89146 38.72869,72.29129 -9.57113,4.46639 -21.6742,5.91563 -32.27391,3.44245 -14.14674,-3.30081 -9.41186,-11.78151 -3.68846,-19.79405 9.72046,-13.6082 28.09295,-22.73764 35.04026,-37.86687 9.71894,-21.16501 -19.72957,-62.05352 -38.68942,-65.59258 -9.38153,-1.75117 -28.37308,-2.96373 -37.2442,-0.59817 -50.90146,13.5733 -68.27553,79.79668 -68.27553,124.30029 0,16.44366 15.90472,23.97726 29.38661,33.41428 43.54459,30.48024 54.15314,28.9986 105.60142,3.14335 10.66278,-5.35856 25.31418,-11.77192 32.27391,-21.51527"
       inkscape:connector-curvature="0"
       sodipodi:nodetypes="csscccsssssssssssc" />
    <path
       style="fill:#000000;fill-rule:nonzero;stroke:none;stroke-width:1px;stroke-linecap:butt;stroke-linejoin:miter;stroke-opacity:1"
       d="m -328.60084,468.45561 c -1.13731,-1.50985 11.96965,-8.193 24.19405,-30.4676 6.23629,-11.3721 12.10327,-27.53062 11.68485,-46.13252 0.82837,-6.93681 1.0108,-14.22323 0.35339,-21.60383 3.54154,6.09907 8.31451,12.03815 14.31872,17.33954 4.47022,5.39108 9.79609,10.0571 15.67557,15.26636 5.42083,4.76771 11.35425,10.03923 16.45247,16.28945 4.93242,6.00703 9.13909,13.35614 10.87773,21.78943 1.69254,8.16549 0.51157,17.39444 -4.6327,24.97773 -3.92786,5.68361 -10.17119,9.87495 -17.4314,10.96697 -3.5522,0.50684 -7.24156,0.19913 -10.74387,-0.98165 -3.46555,-1.17262 -6.64743,-3.21315 -9.18626,-5.9938 0,0 -3e-5,-2e-5 -3e-5,-2e-5 -3.00362,-3.35123 -4.90665,-7.49526 -5.57841,-11.84518 -0.65775,-4.27752 -0.24096,-8.60475 1.06883,-12.61194 3.2543,-9.37015 9.98967,-16.27182 16.75306,-21.89243 6.31296,-5.57109 12.87009,-10.5916 16.21222,-16.908 2.93754,-5.20018 4.05476,-11.6025 3.28941,-17.76404 -0.74741,-6.08326 -3.415,-12.05625 -7.37282,-17.03449 -1.42309,-1.79187 -3.02683,-3.45784 -4.77638,-4.98584 -3.08085,-2.6907 -6.58716,-4.93038 -10.30311,-6.67121 -5.90703,-2.76755 -12.43584,-4.24876 -18.98981,-4.67109 -8.38881,-0.54235 -16.88187,0.73817 -24.91786,3.18626 -21.56603,6.5957 -39.36955,22.09766 -49.13942,40.52158 -10.83427,20.36155 -12.05303,44.07154 -5.93234,63.62157 4.16442,13.24667 11.45374,24.67746 20.82685,32.7855 13.04207,11.40194 29.85256,16.14713 44.33203,16.77157 18.96975,0.81835 36.01216,-5.03486 47.71942,-10.58781 21.44738,-10.19552 30.05111,-20.67991 31.10092,-19.59475 -0.0173,-0.0179 -7.52133,11.6634 -29.14179,23.43578 -11.80381,6.43958 -29.34945,13.30481 -49.83888,13.13293 -15.6855,-0.13261 -34.10855,-4.82082 -49.16526,-17.27648 -10.71525,-8.94831 -19.13045,-21.4652 -23.9249,-36.06331 -7.11548,-21.58827 -6.16947,-47.65953 5.71151,-70.58684 10.77574,-20.73039 30.31653,-38.03119 54.53855,-45.58636 8.98522,-2.81235 18.64742,-4.26999 28.43999,-3.69862 7.66083,0.44841 15.39103,2.21746 22.59579,5.54874 4.54475,2.10155 8.84097,4.85375 12.67099,8.21249 2.17488,1.90726 4.18857,4.00062 6.00632,6.26716 5.07033,6.3275 8.42501,13.97308 9.45321,22.03103 1.03905,8.20894 -0.51047,16.64428 -4.53916,23.85693 -4.94108,8.44234 -12.23139,14.2855 -18.47187,19.49248 -6.25991,5.5608 -12.05068,10.91565 -13.96927,17.44083 -0.87504,2.70594 -1.2057,5.5437 -0.79007,8.15691 0.41523,2.62811 1.50153,5.14962 3.16539,6.97407 0,0 10e-6,2e-5 10e-6,2e-5 1.36799,1.55154 3.22027,2.75372 5.20806,3.45739 2.01554,0.7177 4.26592,0.92013 6.42586,0.64413 4.37994,-0.50321 8.59515,-3.33476 11.24725,-6.99494 3.64456,-4.89715 4.49487,-11.84056 3.42212,-18.07019 -1.14336,-6.56958 -4.66029,-12.75717 -8.84132,-18.16711 -4.37921,-5.62264 -9.93023,-10.69358 -15.23053,-15.57636 -5.78615,-5.2914 -11.31537,-10.39568 -16.1727,-16.46625 -3.90133,-6.87229 -6.64472,-14.28724 -8.30276,-21.76594 3.14317,7.21195 5.05267,14.37468 5.95529,21.19663 -0.20789,20.06715 -7.12099,36.86684 -14.27957,48.40838 -14.02311,22.62368 -28.27095,27.90337 -28.02737,28.22674 z"
       id="path4204-9"
       inkscape:path-effect="#path-effect8353;#path-effect8355"
       inkscape:original-d="m -328.60084,468.45561 c 10.62595,-7.44754 18.5022,-18.69524 26.11072,-29.34718 9.73394,-13.6275 16.84688,-29.89473 12.9822,-47.27044 -2.13849,-9.61469 -2.73133,-21.73233 -2.80095,-21.40023 -8.58533,4.73625 7.01996,14.5215 11.31074,19.55274 9.49404,11.1324 62.39742,60.90161 37.59775,73.30144 -8.93277,4.46639 -20.22861,5.91563 -30.12137,3.44245 -13.20323,-3.30081 -8.78415,-11.78151 -3.44245,-19.79405 9.07214,-13.6082 26.21926,-22.73764 32.70321,-37.86687 9.07072,-21.16501 -24.4746,-54.98245 -42.16993,-58.52151 -8.75582,-1.75117 -18.39948,1.07688 -26.67893,3.44244 -47.50653,13.5733 -57.66091,65.65454 -57.66091,110.15815 0,16.44366 9.79318,24.98741 22.37588,34.42443 40.64033,30.48024 47.51088,31.01891 95.52778,5.16366 9.95161,-5.35856 23.62582,-11.77192 30.12137,-21.51527"
       inkscape:connector-curvature="0"
       sodipodi:nodetypes="csscssssssssssc" />
    <path
       style="fill:#333333;fill-rule:nonzero;stroke:none;stroke-width:0.1;stroke-linecap:butt;stroke-linejoin:miter;stroke-miterlimit:4;stroke-dasharray:none;stroke-opacity:1"
       d="m -349.97869,770.60017 c -0.36286,-0.45561 13.31385,-10.66593 27.91627,-28.94027 0,0 0,0 0,0 3.30501,-4.14028 6.7218,-8.76359 9.67583,-13.75365 1.56846,-2.64951 2.95132,-5.30787 4.1353,-8.00038 3.95678,-9.00681 5.2894,-17.51554 4.59409,-24.96532 -0.82527,-8.78721 -4.2898,-15.13517 -5.9935,-18.02488 -0.53118,-1.73447 -0.76778,-2.67153 -0.67716,-2.70389 0.0906,-0.0323 0.50085,0.84148 1.16706,2.45979 2.02201,2.77763 5.87154,9.09168 6.91606,18.12076 0.89377,7.69384 -0.34101,16.55808 -4.37827,25.82581 -1.20544,2.76976 -2.61579,5.49753 -4.2161,8.2037 -3.01705,5.10193 -6.50116,9.77116 -9.88491,13.91828 0,0 0,0 0,0 -14.95445,18.34646 -29.12319,28.02514 -29.25467,27.86005 z m 39.65083,-96.38839 c 0.2484,0.42276 1.47032,-2.01832 6.02788,-1.18549 1.69836,0.311 3.78981,1.26767 5.31912,3.2347 0.84329,1.0875 1.47615,2.43029 1.85501,3.9626 0.33574,1.35614 0.46806,2.79491 0.4644,4.33607 -0.002,1.18673 -0.43574,7.01503 -0.3974,8.5791 0.14072,6.34247 2.98746,13.00471 8.26169,19.36505 4.54961,5.47494 9.49057,9.35207 15.68002,14.90997 5.002,4.47934 10.53589,9.94108 13.93859,16.78457 1.59828,3.22192 2.74037,6.83083 3.0207,10.61689 0.26891,3.62927 -0.28955,7.45431 -1.93191,10.9089 -1.41364,2.96352 -3.62107,5.60546 -6.40264,7.55298 -2.69565,1.88642 -5.9128,3.10766 -9.2868,3.45881 -3.27822,0.34043 -6.68332,-0.14306 -9.81097,-1.44859 -3.0457,-1.27209 -5.80913,-3.31589 -7.94958,-5.94001 -2.25996,-2.77364 -3.80384,-6.16393 -4.45343,-9.76762 -0.63327,-3.51651 -0.42209,-7.20877 0.5961,-10.71228 1.24695,-4.27002 3.62249,-8.16092 6.5722,-11.57113 2.8786,-3.33208 6.22653,-6.19114 9.7193,-8.94126 6.61969,-5.23715 14.18393,-10.40123 18.78842,-17.59297 3.87096,-5.99172 5.67738,-13.40746 5.21559,-20.78022 -0.44759,-7.16454 -3.016,-14.25853 -7.15623,-20.39457 -7.98657,-11.86952 -21.56227,-19.64463 -36.24686,-23.09062 -11.88273,-2.7749 -24.51769,-2.89091 -36.87545,-0.58469 -0.48945,0.0914 -0.97838,0.18678 -1.46674,0.28613 -12.95804,2.63615 -25.15461,7.98978 -35.70317,15.3217 -11.31296,7.86571 -20.7031,18.00865 -27.24007,29.51092 -6.85449,12.057 -10.64041,25.42841 -11.24898,38.5881 -0.64625,13.9578 2.27382,27.58565 7.94004,39.36031 6.75399,14.04324 17.32133,25.34004 29.06911,33.15216 16.55882,11.01619 35.42962,15.26919 51.8475,15.50069 21.49534,0.30338 40.16693,-5.9617 53.1728,-12.11557 22.7215,-10.75329 31.86087,-21.80687 32.45068,-21.14648 -0.40034,-0.44826 -9.34193,10.83864 -32.09713,21.88405 -13.02458,6.32351 -31.79084,12.77672 -53.53999,12.596 -16.61564,-0.13831 -35.75154,-4.36054 -52.64258,-15.49757 -11.98185,-7.90357 -22.77078,-19.36518 -29.7041,-33.67637 -5.81112,-12.00165 -8.82203,-25.88751 -8.18765,-40.13401 0.59878,-13.4311 4.43517,-27.06858 11.41495,-39.37737 6.66473,-11.74939 16.22157,-22.09705 27.74388,-30.11363 10.73987,-7.47451 23.15718,-12.92835 36.36583,-15.61664 0.4978,-0.10131 0.99619,-0.19858 1.49512,-0.2918 12.58627,-2.35291 25.46852,-2.22613 37.61297,0.61165 15.0406,3.49773 28.96651,11.54181 37.29079,23.85437 4.30129,6.37913 6.95512,13.76644 7.42108,21.26635 0.47882,7.72594 -1.43561,15.48164 -5.52052,21.79901 -4.9132,7.53373 -12.60396,12.80389 -19.19614,17.95667 -3.4644,2.72105 -6.74419,5.49924 -9.52033,8.70535 -2.83714,3.28073 -5.1172,6.96614 -6.28414,10.96638 -0.96067,3.27628 -1.17216,6.73363 -0.59001,10.00961 0.59567,3.35556 2.02192,6.52357 4.1096,9.09859 1.97442,2.43817 4.53895,4.35058 7.35831,5.53927 2.89453,1.22117 6.06412,1.68491 9.10627,1.38011 3.13103,-0.31293 6.13531,-1.4378 8.64502,-3.17953 2.59048,-1.79682 4.66256,-4.25238 5.98823,-7.00156 1.54956,-3.20201 2.08788,-6.80653 1.85641,-10.24331 -0.242,-3.58988 -1.32227,-7.05226 -2.84169,-10.16793 -3.22338,-6.62576 -8.64299,-12.02022 -13.57396,-16.51401 -6.11964,-5.56174 -11.08523,-9.53325 -15.66628,-15.12768 -5.3395,-6.50705 -8.17231,-13.40753 -8.26277,-19.94427 -0.0196,-1.69094 0.48846,-7.43839 0.50635,-8.59725 0.0226,-1.50681 -0.0821,-2.89771 -0.38537,-4.20335 -0.3428,-1.47348 -0.91858,-2.76122 -1.6997,-3.80359 -1.40937,-1.8861 -3.386,-2.85003 -5.00827,-3.19145 -4.36182,-0.91971 -5.67088,1.3531 -5.9631,0.85576 z"
       id="path4204-1-7"
       inkscape:path-effect="#path-effect4192;#path-effect4194"
       inkscape:original-d="m -349.97869,770.60017 c 11.3853,-7.44754 20.43323,-17.74822 28.58547,-28.40016 10.42956,-13.6275 21.13949,-29.71217 18.44225,-47.33357 -0.97758,-6.38659 -4.33825,-12.1467 -6.45478,-18.07282 0,0 0.40999,-3.82511 -0.92211,-2.58184 m 0,0 c -0.4598,0.42913 10.54056,1.42262 11.15919,2.19245 3.95811,4.92549 -1.39548,11.45611 1.75036,16.74098 7.60331,12.77318 65.30061,59.89146 38.72869,72.29129 -9.57113,4.46639 -21.6742,5.91563 -32.27391,3.44245 -14.14674,-3.30081 -9.41186,-11.78151 -3.68846,-19.79405 9.72046,-13.6082 28.09295,-22.73764 35.04026,-37.86687 9.71894,-21.16501 -19.72957,-62.05352 -38.68942,-65.59258 -9.38153,-1.75117 -28.37309,-2.96373 -37.24421,-0.59817 -50.90146,13.5733 -68.27553,79.79668 -68.27553,124.30029 0,16.44366 15.90472,23.97726 29.38661,33.41428 43.54459,30.48024 54.15314,28.9986 105.60143,3.14335 10.66278,-5.35856 25.31418,-11.77192 32.27391,-21.51527"
       inkscape:connector-curvature="0"
       sodipodi:nodetypes="csscccsssssssssssc" />
    <path
       style="fill:#000000;fill-opacity:1;fill-rule:nonzero;stroke:none;stroke-width:1px;stroke-linecap:butt;stroke-linejoin:miter;stroke-opacity:1"
       d="m 44.37202,789.02735 c -0.396607,0.001 -1.019606,-4.69826 -1.16039,-13.58445 -0.126301,-7.97213 0.08548,-22.90245 3.842372,-38.3585 1.227605,-5.06058 3.006914,-10.67584 5.897485,-16.0606 1.953164,-3.66114 4.609331,-7.38157 8.25193,-10.41165 2.864393,-2.36072 6.367856,-4.16641 10.276012,-5.01885 3.694527,-0.77579 7.524723,-0.71369 11.240703,0.0274 3.95115,0.78166 7.741945,2.19598 11.353851,4.01678 3.892551,1.95322 7.590867,4.325 11.151137,6.99682 7.40924,5.55796 14.19646,12.23308 20.56566,19.80932 5.75366,6.82575 11.21367,14.42461 15.90232,22.79128 1.91312,3.41041 3.71889,7.01377 5.25594,10.8191 1.21625,2.9806 2.29903,6.22478 2.91935,9.73004 0,0 1e-5,3e-5 1e-5,3e-5 0.51068,2.43444 0.65503,5.41137 -0.22855,8.65816 -0.37578,1.30642 -1.0743,2.63337 -2.13157,3.87552 -1.08712,1.19946 -2.38549,2.08078 -3.80053,2.61193 0,0 -5e-5,10e-6 -5e-5,10e-6 -3.09184,1.21321 -6.49091,2.35758 -10.21586,2.97567 -2.17163,0.46996 -4.98148,0.55341 -8.12582,-0.44767 0,-10e-6 -4e-5,-2e-5 -4e-5,-2e-5 -1.19247,-0.42295 -2.35487,-1.13819 -3.40852,-2.15329 -0.98707,-1.01396 -1.69817,-2.13734 -2.13227,-3.29977 0,0 -1e-5,-4e-5 -1e-5,-4e-5 -0.93431,-2.7394 -1.00825,-5.22795 -0.69663,-7.21138 0.31438,-2.79928 0.96488,-5.38658 1.69939,-7.78546 0.91103,-3.0297 1.97231,-5.95037 3.07559,-8.81768 2.69543,-7.01674 5.42179,-13.29763 8.21075,-20.2549 2.83791,-7.09259 5.57797,-14.32984 7.63454,-21.66532 1.8371,-6.64732 3.27169,-13.38345 3.14268,-19.93638 -0.0517,-2.84838 -0.36257,-5.63327 -1.10902,-8.20577 -0.6984,-2.42338 -1.75812,-4.72511 -3.19589,-6.68375 0,10e-6 -1e-5,-2e-5 -1e-5,-2e-5 -1.50042,-2.08889 -3.51388,-3.90543 -5.79839,-5.39444 -2.75984,-1.80856 -6.00115,-3.10312 -9.45531,-4.10032 -6.87151,-1.94126 -14.13578,-2.78316 -21.36205,-2.41209 -6.471623,0.33232 -12.820232,1.63288 -18.748579,3.90846 -12.480326,4.71268 -23.233347,13.4659 -31.355535,23.79967 -8.923881,11.38538 -14.778525,24.81124 -17.595155,38.43477 -3.129622,15.18528 -2.414984,30.66319 1.602781,44.64238 2.794479,9.60253 6.944933,18.39037 12.96939,25.30466 5.14975,5.95861 11.662446,10.47767 18.650256,13.03284 7.218287,2.67768 15.045912,3.35752 22.459291,2.72612 8.526683,-0.73144 16.702301,-3.23299 24.041321,-6.558 19.1312,-8.68135 32.90332,-22.96025 41.49049,-36.34883 0,0 10e-6,-2e-5 10e-6,-2e-5 6.13053,-9.56764 9.80808,-18.96675 11.95035,-27.12608 5.28675,-20.11163 1.94548,-31.50594 3.48483,-31.70781 -0.1956,0.0256 4.71606,11.25603 0.43955,32.61289 -1.7333,8.6443 -5.11525,18.72793 -11.19318,29.08893 0,0 0,2e-5 0,2e-5 -8.49425,14.49503 -22.62712,30.15038 -43.07336,40.07294 -7.86093,3.81999 -16.78641,6.75475 -26.36988,7.803 -8.370558,0.9197 -17.373807,0.27865 -26.032193,-2.7099 -8.411576,-2.94075 -16.206835,-8.1324 -22.416885,-15.12307 -7.124255,-8.07421 -12.049269,-17.94623 -15.168934,-28.49399 -4.596142,-15.36943 -5.563773,-32.34739 -2.238228,-49.11592 2.969818,-15.02012 9.341724,-29.84316 19.217782,-42.59578 8.992544,-11.64055 21.133468,-21.49752 35.574529,-27.06705 6.954192,-2.64471 14.318287,-4.1643 21.791629,-4.55831 8.34516,-0.43997 16.69197,0.53047 24.60813,2.78783 4.17035,1.1676 8.31058,2.88011 12.14539,5.34587 3.22022,2.07887 6.10948,4.7423 8.42692,7.92685 0,0 2e-5,3e-5 2e-5,3e-5 2.16793,3.02178 3.71983,6.3683 4.67951,9.81804 1.00003,3.61378 1.42021,7.25546 1.44207,10.78207 0.0389,8.00117 -1.55969,15.64995 -3.6261,22.71907 -2.26982,7.86685 -5.17173,15.40645 -8.12533,22.59946 -2.91734,7.11796 -5.66074,13.28331 -8.33599,20.06276 -1.0873,2.76 -2.09889,5.44689 -2.92905,8.12461 -0.65939,2.17014 -1.21826,4.18491 -1.42541,6.08641 -0.0662,1.42231 -0.20309,2.46095 0.0839,2.89544 1e-5,-10e-6 1e-5,0 1e-5,0 0.0432,0.0858 0.0815,0.20144 0.043,0.12474 -0.0605,-0.0207 0.008,0.002 0.12769,0.0695 0,0 2e-5,0 2e-5,0 0.552,0.38088 1.84994,0.17246 3.54204,0.0455 2.71266,-0.37642 5.52943,-1.32288 8.43403,-2.37975 0,0 0,0 0,0 0.15434,-0.063 0.29227,-0.13018 0.31703,-0.17784 0.0833,-0.0372 0.17787,-0.27068 0.31081,-0.59297 0.44863,-1.01924 0.24936,-2.65272 0.0367,-4.5742 0,0 -1e-5,-2e-5 -1e-5,-2e-5 -0.3972,-2.6221 -1.27292,-5.29729 -2.29785,-7.99497 -1.30405,-3.39291 -2.90236,-6.70012 -4.63137,-9.91726 -4.25051,-7.89981 -9.28649,-15.17547 -14.63331,-21.78981 -5.94337,-7.33149 -12.15034,-13.73733 -18.90231,-19.04019 -3.235465,-2.5401 -6.507705,-4.76857 -9.901698,-6.57516 -3.15644,-1.67163 -6.310446,-2.97429 -9.495071,-3.67813 -2.962201,-0.64914 -5.893176,-0.82056 -8.591984,-0.30904 -2.824547,0.50322 -5.494817,1.77865 -7.728121,3.48457 -2.921828,2.20674 -5.238147,5.27291 -7.111287,8.41301 -2.757445,4.65469 -4.611058,9.80763 -6.012512,14.56671 -4.229446,14.39391 -5.432252,29.47783 -6.042882,37.1444 -0.700048,8.78922 -0.971686,13.49891 -1.486095,13.50079 z"
       id="path4168-5"
       inkscape:path-effect="#path-effect4170-53"
       inkscape:original-d="m 44.37202,789.02735 c -0.64852,-177.47548 124.36122,-8.3519 97.75284,1.72122 -59.953872,22.69671 50.91852,-94.19494 -17.4288,-113.6006 -61.858852,-17.56341 -111.65969,51.58777 -93.20619,114.46121 26.4521,90.12573 151.21533,27.90168 139.43041,-61.96397"
       inkscape:connector-curvature="0" />
    <path
       style="fill:#000000;fill-opacity:1;fill-rule:nonzero;stroke:none;stroke-width:1px;stroke-linecap:butt;stroke-linejoin:miter;stroke-opacity:1"
       d="m 357.34377,739.40796 c 0.10521,0.0548 11.81389,-30.68255 41.39712,-78.91325 4.66546,-7.60705 10.02929,-15.97098 16.03676,-24.18872 3.78172,-5.1805 8.03279,-10.63948 12.95955,-15.6691 2.86565,-2.97268 6.2538,-6.08464 10.52407,-8.30988 1.37964,-0.72573 2.99507,-1.32936 4.83368,-1.62137 1.47567,-0.23613 3.09643,-0.13772 4.73805,0.39663 1.54381,0.5567 2.85823,1.43877 3.87958,2.53358 0,0 3e-5,4e-5 3e-5,4e-5 1.13821,1.2264 1.96689,2.55498 2.55061,3.86544 -10e-6,0 1e-5,3e-5 1e-5,3e-5 1.53193,3.41348 2.17784,6.92795 2.48885,10.26076 0.4576,4.42455 0.45754,8.83934 0.24793,13.25609 -0.24013,5.17567 -0.7667,10.35848 -1.47944,15.59849 -1.54378,11.36019 -3.90092,22.85387 -6.95262,34.61089 -2.77923,10.72563 -6.15296,21.779 -10.48134,32.71171 -1.74372,4.40758 -3.68126,8.86759 -5.94556,13.24857 -1.71748,3.34845 -3.70773,6.7933 -6.25352,10.03733 0,0 -2e-5,4e-5 -2e-5,4e-5 -3.00293,3.89455 -6.67938,7.90598 -11.56026,10.89029 -1.60545,0.98539 -3.50717,1.81719 -5.69193,2.29183 -1.76759,0.38411 -3.72011,0.37706 -5.72551,-0.12888 0,0 -7e-5,-2e-5 -7e-5,-2e-5 -1.86451,-0.52429 -3.50707,-1.44775 -4.84003,-2.66717 0,0 -5e-5,-4e-5 -5e-5,-4e-5 -1.42647,-1.32145 -2.50073,-2.79643 -3.2633,-4.29325 -1.87298,-3.69233 -2.65386,-7.55181 -2.84422,-11.15838 -0.30229,-4.56548 0.0967,-9.09494 0.97731,-13.46879 0.98963,-4.97504 2.59294,-9.84511 4.75722,-14.48605 4.71037,-10.1551 12.31265,-19.2904 22.28885,-25.43785 9.33881,-5.71137 17.91577,-12.96079 25.66448,-21.2621 7.22438,-7.76909 13.71101,-16.39204 18.60672,-25.86449 2.09799,-4.06332 3.89954,-8.24267 5.14962,-12.52541 -10e-6,0 10e-6,-4e-5 10e-6,-4e-5 1.06023,-3.67887 1.77295,-7.37059 1.74142,-10.94067 -0.0423,-3.03605 -0.51363,-5.9867 -1.71707,-8.41654 -1.09688,-2.35617 -2.97075,-4.45076 -5.21944,-5.98628 -1.02293,-0.76162 -2.55908,-1.22416 -4.33065,-1.66366 -10e-6,0 -4e-5,-1e-5 -4e-5,-1e-5 -2.27821,-0.51564 -4.75982,-0.67851 -7.36599,-0.70089 -6.88387,-0.0453 -13.91226,1.16967 -21.01412,2.8711 -4.51168,1.09257 -8.98847,2.41954 -13.42438,3.95017 -4.15416,1.4334 -8.24905,3.03733 -12.27634,4.77886 -9.33582,4.04256 -18.25727,8.8338 -26.61926,14.33152 -8.75451,5.76095 -16.86233,12.25814 -23.9945,19.5628 -7.19332,7.37461 -13.37747,15.51733 -17.98762,24.34806 -4.74961,9.08394 -7.82344,18.90355 -8.88321,28.80637 -1.23566,11.27663 0.14729,22.7455 3.27223,33.50033 1.69562,5.83776 4.38639,11.38048 7.73871,16.43342 3.54857,5.35131 7.88215,10.18207 12.62592,14.49725 10.70783,9.75666 23.5728,16.87524 36.62519,22.15178 14.913,6.00577 30.33567,9.6045 45.38477,11.30932 16.05259,1.80608 31.57604,1.46989 46.16692,-1.11292 14.65981,-2.61692 27.96041,-7.34511 39.02766,-14.70176 5.55735,-3.6827 10.45438,-7.95791 14.50717,-12.72178 4.34171,-5.09507 7.71125,-10.74444 10.09214,-16.55064 2.80814,-6.82844 4.28192,-13.96108 4.85001,-20.77667 0.7453,-8.92672 -0.0406,-17.63887 -1.40037,-25.42011 -3.65145,-20.95172 -12.13859,-39.48754 -16.87669,-49.3817 -5.27643,-11.01828 -8.51092,-16.66991 -8.03629,-16.95365 0.28362,-0.16955 4.26593,5.02908 10.32135,15.76322 5.50517,9.75872 14.84537,27.92608 19.39429,49.64956 1.67941,8.03953 2.75923,17.1579 2.22565,26.73174 -0.40913,7.32059 -1.82256,15.07373 -4.73049,22.66582 -2.47955,6.45571 -6.05805,12.76664 -10.75567,18.51177 -4.38607,5.35622 -9.66937,10.16652 -15.66867,14.28965 -11.92752,8.17489 -26.10769,13.55389 -41.55123,16.48486 -15.35743,2.93652 -31.66229,3.52599 -48.45308,1.81977 -15.749,-1.58874 -31.96214,-5.19594 -47.76264,-11.37859 -13.84023,-5.39557 -27.66505,-12.94352 -39.53553,-23.52343 -5.26853,-4.70303 -10.1391,-10.07566 -14.23634,-16.13768 -3.87854,-5.74098 -7.01245,-12.12229 -9.05915,-18.96085 -3.52352,-11.76553 -5.09183,-24.46137 -3.79506,-37.20395 1.16378,-11.18653 4.54024,-22.18542 9.81069,-32.32647 5.10796,-9.81492 11.82795,-18.75774 19.59568,-26.72865 7.68487,-7.89316 16.33112,-14.86369 25.60641,-20.97308 8.85274,-5.836 18.27724,-10.91088 28.12747,-15.17883 4.24249,-1.84055 8.57504,-3.53807 12.98967,-5.05955 4.71397,-1.62464 9.49297,-3.03871 14.33038,-4.21154 7.54462,-1.8476 15.37595,-3.1495 23.4089,-3.1341 3.05808,6.5e-4 6.24368,0.24581 9.47392,0.94608 0,0 5e-5,2e-5 5e-5,2e-5 2.50663,0.50484 5.19527,1.46934 7.78282,3.16376 3.65463,2.4802 6.65285,5.90255 8.59824,9.96056 1.90503,4.12396 2.68491,8.48763 2.65249,12.66187 -0.02,4.81843 -0.87923,9.44475 -2.17794,13.75352 0,0 -2e-5,5e-5 -2e-5,5e-5 -1.50087,5.03229 -3.55244,9.7907 -5.89949,14.26868 -5.45135,10.40975 -12.48429,19.72438 -20.24425,27.96065 -8.29958,8.84051 -17.59523,16.59378 -27.79557,22.77346 -8.22995,4.93238 -14.6905,12.6643 -18.79084,21.26174 -1.88,3.96681 -3.28404,8.12156 -4.15395,12.34413 -0.75902,3.73585 -1.13686,7.45194 -0.90733,11.04135 0.23317,2.88754 0.64252,5.53542 1.75321,7.55151 0.42123,0.76808 0.83729,1.41085 1.29605,1.79905 0,0 2e-5,1e-5 2e-5,1e-5 0.37644,0.33077 0.78215,0.59001 1.13553,0.66991 0,0 10e-6,0 10e-6,0 0.37659,0.14292 0.95528,0.11557 1.59849,0.0181 0.86976,-0.13552 1.84866,-0.59843 2.9123,-1.18637 3.40588,-1.90052 6.3227,-5.18521 9.21672,-8.68179 0,0 2e-5,-3e-5 2e-5,-3e-5 2.0535,-2.52065 3.7758,-5.48563 5.43273,-8.58058 2.12909,-4.00812 3.99322,-8.18994 5.71896,-12.4051 4.27976,-10.46133 7.67756,-21.15809 10.53544,-31.61683 3.12727,-11.46366 5.57844,-22.6118 7.2362,-33.60273 0.76345,-5.06584 1.34679,-10.01538 1.65015,-14.91152 0.25533,-4.19952 0.33454,-8.23982 -0.0147,-12.16074 -0.30325,-3.02057 -0.6839,-5.77488 -1.72772,-8.04144 0,0 -1e-5,-2e-5 -1e-5,-2e-5 -0.38363,-0.82274 -0.76295,-1.52221 -1.21592,-1.9859 0,0 -10e-6,-10e-6 -10e-6,-10e-6 -0.36211,-0.37464 -0.74092,-0.67456 -1.08607,-0.78104 -0.35303,-0.16592 -0.89667,-0.17975 -1.49699,-0.12865 -0.82033,0.0759 -1.74491,0.43673 -2.74093,0.89545 -3.20431,1.50153 -6.09543,4.14389 -8.92477,6.86074 -4.68064,4.5686 -8.86187,9.71954 -12.69016,14.70207 -6.045,7.87827 -11.54587,16.00149 -16.3756,23.40451 -30.70458,47.06915 -44.09316,76.99841 -45.96247,76.02522 z"
       id="path4168-5-2"
       inkscape:path-effect="#path-effect4170-53-6"
       inkscape:original-d="m 357.34377,739.40796 c 138.00841,-265.08817 95.79594,-33.39818 65.10279,5.07194 -30.69314,38.47011 -38.4301,-28.23886 0.0189,-51.63798 38.44901,-23.39912 69.78363,-76.01943 44.54614,-93.18716 -25.23748,-17.16773 -169.62871,34.80757 -139.9774,135.24548 29.65132,100.43791 315.38029,106.36546 195.25832,-94.57165"
       inkscape:connector-curvature="0"
       sodipodi:nodetypes="czzzzc" />
    <path
       style="fill:#000000;fill-rule:nonzero;stroke:none;stroke-width:1px;stroke-linecap:butt;stroke-linejoin:miter;stroke-opacity:1"
       d="m -22.635441,591.40284 c -0.914678,-1.39887 13.7813914,-6.94379 28.2573157,-29.96239 7.0433193,-11.20971 14.0867193,-27.67105 13.8501883,-46.6491 0.405458,-6.93619 -0.03898,-14.21905 -1.549375,-21.51265 3.474667,6.49065 8.180702,12.78302 14.114931,18.37421 4.982869,5.4722 10.756663,10.08847 17.047842,15.15324 5.785433,4.64025 12.051706,9.69896 17.405158,15.7112 5.161265,5.77689 9.643218,12.83677 11.62646,20.94912 1.915939,7.81771 1.137726,16.76551 -3.516837,24.03401 -3.866215,5.95508 -10.372488,10.30704 -17.725698,11.21311 -3.590681,0.42973 -7.302515,0.0187 -10.759318,-1.26519 -3.413673,-1.27019 -6.527048,-3.39171 -8.960187,-6.19421 5e-6,0 -2.2e-5,-2e-5 -2.2e-5,-2e-5 -2.570621,-2.97653 -4.309292,-6.6332 -5.039372,-10.51688 -0.718231,-3.83321 -0.473345,-7.82236 0.668178,-11.56612 1.44969,-4.6804 4.137834,-8.81424 7.392464,-12.29355 3.201193,-3.43676 6.833424,-6.29003 10.506178,-8.96383 7.088614,-5.25789 14.738617,-10.14677 18.867554,-17.19904 3.544446,-5.82569 4.727109,-13.17162 3.549979,-20.1155 -1.155625,-6.84821 -4.629413,-13.36402 -9.509185,-18.60134 -2.775925,-2.97979 -6.019686,-5.5471 -9.570716,-7.69087 -2.624603,-1.58448 -5.401468,-2.92815 -8.257205,-4.03279 -6.785532,-2.62286 -14.075082,-3.88632 -21.344067,-4.23596 -9.86015,-0.46695 -19.7072867,0.78529 -29.0602876,3.33313 -23.3363604,6.38046 -43.3722554,21.14312 -55.0815174,40.15739 -6.244672,10.11088 -10.056195,21.38708 -11.465083,32.63067 -1.478946,11.85053 -0.277009,23.64626 3.443549,34.20574 4.845372,13.79221 13.723535,25.38637 24.191803,33.5768 15.65451,12.27884 34.8172319,17.07169 51.2688615,17.52213 21.5301975,0.58874 40.7213775,-5.82985 53.8944445,-11.78288 23.493582,-10.62746 33.460234,-21.34885 34.165844,-20.50867 -0.208111,-0.2478 -9.662447,11.11225 -33.223003,22.52187 -13.213458,6.40473 -32.633947,13.33174 -54.9006539,13.08298 -17.031713,-0.18988 -36.9839561,-4.92636 -53.6550631,-17.67105 -11.131248,-8.52995 -20.602428,-20.66422 -25.868521,-35.27207 -4.031315,-11.21321 -5.405801,-23.69142 -3.904423,-36.23528 1.41798,-11.89478 5.380929,-23.82787 11.955179,-34.58679 12.356233,-20.1655 33.300515,-35.76785 57.8477704,-42.50044 9.8113579,-2.70037 20.1797606,-4.02808 30.6269856,-3.55175 7.705951,0.34595 15.526131,1.71418 22.939464,4.55586 3.125779,1.1974 6.172494,2.6714 9.066685,4.42441 3.915684,2.37172 7.520537,5.23494 10.653757,8.57671 5.523948,5.89252 9.422219,13.28833 10.792909,21.22665 1.391306,8.08919 -0.03178,16.59262 -4.239565,23.58292 -5.125327,8.24661 -13.22249,13.58405 -20.248926,18.61558 -3.584279,2.61633 -6.98507,5.24576 -9.820743,8.30264 -2.856426,3.09415 -5.190917,6.57677 -6.329196,10.35912 -0.922448,3.0055 -1.140787,6.21836 -0.577455,9.24049 0.567332,3.05643 1.924084,5.96358 3.907861,8.26462 0,0 2.1e-5,2e-5 2.1e-5,2e-5 1.865266,2.17841 4.319589,3.86372 6.989659,4.87442 2.705825,1.02655 5.676809,1.36764 8.537234,1.04295 5.821688,-0.63464 11.243871,-4.24087 14.41672,-9.0486 3.936784,-5.86777 4.592787,-13.64252 3.036643,-20.48411 -1.637261,-7.17364 -5.739434,-13.6571 -10.501273,-19.14749 -4.969949,-5.70954 -11.035099,-10.67513 -16.760531,-15.37637 -6.244205,-5.10815 -12.131528,-9.94105 -17.327575,-15.74736 -4.911832,-6.42695 -8.630513,-13.50579 -11.189949,-20.73127 2.766286,7.19878 4.259528,14.41403 4.717025,21.28781 -0.08982,19.82072 -7.679364,36.60427 -15.1941841,47.8918 -15.4213888,23.1827 -30.6622069,27.96197 -30.1587319,28.73197 z"
       id="path4204-2"
       inkscape:path-effect="#path-effect4253;#path-effect4255"
       inkscape:original-d="m -22.635441,591.40284 c 11.88643,-7.44754 20.6969696,-18.69524 29.2080296,-29.34719 10.8886104,-13.6275 18.8453004,-29.89473 14.5221804,-47.27044 -2.39216,-9.61469 -3.05532,-21.73233 -3.1332,-21.40023 -9.6037404,4.73625 7.85268,14.5215 12.65244,19.55274 10.62025,11.1324 69.799141,60.90162 42.05768,73.30145 -9.9924,4.46639 -22.62817,5.91563 -33.69443,3.44245 -14.76943,-3.30081 -9.82615,-11.78151 -3.8508,-19.79405 10.14829,-13.60821 29.32944,-22.73765 36.58253,-37.86688 10.14671,-21.16501 -27.37783,-54.98245 -47.17222,-58.52151 -9.79445,-1.75117 -20.5820604,1.07688 -29.8436404,3.44244 -53.1418646,13.5733 -64.5007846,65.65454 -64.5007846,110.15816 0,16.44366 10.95487,24.98741 25.03016,34.42443 45.4611846,30.48024 53.1467346,31.01891 106.859505,5.16366 11.13209,-5.35856 26.42836,-11.77192 33.69443,-21.51527"
       inkscape:connector-curvature="0"
       sodipodi:nodetypes="csscssssssssssc" />
    <path
       style="fill:#000000;fill-rule:nonzero;stroke:none;stroke-width:1px;stroke-linecap:butt;stroke-linejoin:miter;stroke-opacity:1"
       d="m 630.30155,522.24512 c 0.0868,-0.43878 3.06065,0.78702 8.92427,-0.14095 2.31357,-0.36486 5.03582,-1.12261 7.91327,-2.57008 4.5908,-2.3014 9.04124,-6.04136 13.53269,-11.71571 4.00429,-5.07266 7.49116,-10.97375 10.97257,-18.21968 3.169,-6.60294 5.99972,-13.6923 8.83597,-21.76022 0,0 10e-6,-2e-5 10e-6,-2e-5 2.47591,-7.045 4.74457,-14.27018 7.1419,-22.26494 1.77273,-5.91277 3.90669,-13.31889 5.91323,-19.74702 0.81945,-2.62578 1.68882,-5.32086 2.65241,-8.00575 0.74424,-2.07771 1.56185,-4.21134 2.55916,-6.30712 0.6665,-1.43213 1.48042,-2.96797 2.67628,-4.37242 0.40926,-0.4902 0.94294,-0.98684 1.63084,-1.41463 0.56488,-0.35947 1.28476,-0.59063 2.12052,-0.61853 1.72306,0.0709 3.12015,0.70818 4.15481,1.42455 1.63309,1.02462 3.04174,2.25681 4.33098,3.52227 0,1e-5 2e-5,2e-5 2e-5,2e-5 3.73403,3.64328 6.89459,7.7659 9.9244,12.08375 3.8012,5.40427 7.30916,11.12321 10.63033,17.13804 3.51361,6.3611 6.80394,13.04654 9.76,20.03355 2.79027,6.59143 5.31945,13.52615 7.24526,20.74668 1.64573,6.14453 2.90617,12.65653 3.04122,19.3516 0.13698,5.25302 -0.53306,10.90281 -3.127,16.00223 -1.1539,2.22946 -2.72532,4.27955 -4.68083,5.96754 -2.06458,1.76299 -4.46299,3.06077 -6.99047,3.90221 -2.74519,0.94611 -5.78115,1.62809 -8.985,1.51067 -2.318,-0.0752 -4.73681,-0.76327 -6.82849,-2.26113 -1.89095,-1.44129 -3.21612,-3.38297 -3.96868,-5.46058 10e-6,0 -1e-5,-4e-5 -1e-5,-4e-5 -0.87298,-2.39138 -1.17566,-4.85678 -1.15854,-7.21736 0.0253,-6.00684 1.60188,-11.80614 3.77265,-17.23458 2.47286,-6.26101 5.83548,-12.23658 10.00038,-17.68451 3.97634,-5.22882 8.81857,-10.08282 14.69347,-13.63625 2.67959,-1.61729 5.6109,-2.93182 8.73965,-3.74996 0,0 4e-5,0 4e-5,0 3.03384,-0.79044 6.23351,-1.06354 9.41591,-0.71536 0,0 4e-5,0 4e-5,0 3.39326,0.38385 6.66358,1.45881 9.63639,3.05298 3.54312,1.90518 6.65392,4.44073 9.36643,7.27607 7.85928,8.23124 13.00234,18.47642 17.14812,28.92236 3.50997,8.66491 5.21411,18.507 3.20137,28.0849 -0.65862,3.04752 -1.69068,6.00986 -3.05452,8.81578 -0.48154,0.9907 -1.00368,1.96035 -1.5642,2.90594 -2.19869,3.70234 -4.94012,7.0169 -8.00229,9.91944 -6.883,6.50653 -15.20606,11.09442 -23.71011,14.39805 -9.91056,3.86713 -20.2669,6.1532 -30.53575,7.36832 -22.75792,2.71379 -45.47954,0.54445 -66.08572,-6.45043 -10.02681,-3.3976 -19.50847,-8.04151 -27.79473,-14.27485 -7.93346,-5.96244 -14.58544,-13.46044 -18.92178,-22.14684 -4.88501,-9.85636 -6.89763,-20.71813 -6.67324,-31.15199 0.25294,-11.62982 3.03898,-22.82583 6.98069,-32.97389 4.5878,-11.82934 10.80583,-22.58414 17.60262,-32.13109 7.7894,-10.9464 16.47774,-20.51127 25.39529,-28.73613 9.9787,-9.20621 20.23263,-16.72695 30.44089,-22.72672 11.34078,-6.66881 22.27549,-11.24734 32.75022,-14.04102 12.32341,-3.29128 23.13553,-3.79067 32.26418,-2.60041 9.99561,1.30751 17.49872,4.7288 21.95145,7.25948 4.60739,2.61857 6.60058,4.55736 6.55623,4.61876 -0.13827,0.19146 -2.3134,-1.49191 -6.9875,-3.80748 -4.51963,-2.23905 -11.98492,-5.29657 -21.72752,-6.29917 -8.92982,-0.92305 -19.4015,-0.18642 -31.39203,3.23637 -10.19238,2.91332 -20.80098,7.56405 -31.84942,14.25686 -9.93911,6.02391 -19.90748,13.52714 -29.61206,22.67165 -8.66883,8.17089 -17.09635,17.63002 -24.62091,28.40218 -6.56177,9.39844 -12.53918,19.9155 -16.88663,31.38648 -3.7234,9.84009 -6.33927,20.57901 -6.49162,31.56253 -0.13852,9.81429 1.78501,19.97576 6.36154,29.04249 3.97812,7.94251 10.21213,14.85997 17.66207,20.4443 7.81583,5.85288 16.8693,10.22468 26.52311,13.47985 19.89392,6.69566 41.90099,8.72413 63.96779,6.07347 9.93708,-1.20304 19.8857,-3.40189 29.30781,-7.10058 8.07607,-3.18497 15.85839,-7.43854 22.08327,-13.38349 2.76482,-2.63265 5.2195,-5.58943 7.14243,-8.84451 0.49036,-0.82831 0.94731,-1.67726 1.36865,-2.54383 1.19335,-2.45436 2.09576,-5.0392 2.66505,-7.68371 1.83766,-8.27068 0.22423,-17.14911 -2.94375,-25.17906 -4.10284,-10.17562 -8.88295,-19.88796 -16.08781,-27.34779 -2.45046,-2.5425 -5.1451,-4.77147 -8.12349,-6.35702 -2.47495,-1.32182 -5.1509,-2.21932 -7.85652,-2.51778 0,0 -4e-5,0 -4e-5,0 -2.53572,-0.29153 -5.14594,-0.0673 -7.6461,0.57197 0,0 -4e-5,10e-6 -4e-5,10e-6 -2.59662,0.66099 -5.10182,1.78892 -7.45801,3.19122 -5.20845,3.09247 -9.61637,7.53208 -13.37342,12.39068 -3.9067,5.08063 -7.07197,10.66247 -9.40367,16.50688 -2.01817,5.12592 -3.5052,10.33386 -3.49863,15.48731 0.01,1.99844 0.20458,3.91633 0.83995,5.58191 0,0 10e-6,2e-5 10e-6,2e-5 0.53108,1.37492 1.3179,2.61585 2.3642,3.35853 1.08969,0.86762 2.65822,1.26394 4.27255,1.37369 2.35273,0.14398 4.83808,-0.44753 7.31794,-1.24311 2.03183,-0.67833 3.92701,-1.67663 5.48153,-3.01047 1.48583,-1.25674 2.7106,-2.8509 3.63538,-4.60121 2.1845,-4.0493 2.72103,-8.98957 2.69529,-13.83934 -0.0724,-6.18301 -1.24688,-12.35989 -2.7879,-18.32209 -1.81359,-6.98581 -4.23458,-13.75231 -6.92076,-20.23105 -2.84729,-6.8633 -6.02673,-13.44513 -9.42841,-19.72019 -3.21934,-5.93649 -6.604,-11.56181 -10.26598,-16.86364 -2.94806,-4.25754 -5.91432,-8.22399 -9.36529,-11.63785 0,0 -2e-5,-10e-6 -2e-5,-10e-6 -1.20315,-1.18258 -2.38965,-2.26155 -3.67555,-3.06843 -0.9139,-0.50623 -1.65194,-0.96919 -2.20717,-0.89814 -0.009,-0.0279 -0.11539,0.0294 -0.27479,0.0996 -0.22955,0.11644 -0.47685,0.36739 -0.76721,0.67602 -0.85902,0.94183 -1.51412,2.20645 -2.18589,3.54503 -0.93965,1.9144 -1.73478,3.93334 -2.48752,5.95595 -0.967,2.60313 -1.85119,5.24436 -2.69447,7.8398 -2.04225,6.28699 -4.30686,13.79154 -6.14403,19.63915 -2.50707,7.98094 -4.8994,15.23305 -7.50471,22.29387 0,0 0,1e-5 0,1e-5 -2.98266,8.0857 -5.98206,15.2282 -9.32565,21.86631 -3.66359,7.28092 -7.39073,13.26212 -11.62974,18.36975 -4.74321,5.73024 -9.56745,9.49825 -14.43598,11.73169 -3.07055,1.40385 -5.95282,2.06621 -8.37271,2.31757 -6.12574,0.63309 -9.02602,-0.95153 -9.05042,-0.82813 z"
       id="path4176-9"
       inkscape:path-effect="#path-effect4178-70"
       inkscape:original-d="m 630.30155,522.24512 c 50.28698,9.94394 62.07969,-115.32182 74.87312,-115.32182 14.40421,0 72.7318,103.12644 33.5638,116.18243 -50.79589,16.93197 18.63493,-128.11662 60.24272,-24.0971 31.68659,79.21644 -138.69785,93.52739 -172.12208,26.67893 -37.49115,-74.98231 95.66937,-201.71091 165.23724,-151.46746"
       inkscape:connector-curvature="0" />
    <path
       style="fill:#000000;fill-rule:nonzero;stroke:none;stroke-width:1px;stroke-linecap:butt;stroke-linejoin:miter;stroke-opacity:1"
       inkscape:path-effect="#path-effect4326;#path-effect4328"
       inkscape:original-d="m 214.48864,1015.3134 c -8.47283,31.1037 -20.97921,66.9993 -45.42483,85.2669 -24.44562,18.2676 -57.96109,9.1183 -77.07628,4.3147 -38.00707,-14.0449 -73.971437,-66.2836 -77.825784,-102.8229 -3.116566,-37.94263 34.182361,-95.67656 62.710367,-107.07756 28.528007,-11.401 31.956987,-7.70977 49.069357,1.64052 17.11236,9.35029 39.18317,29.80553 34.50299,53.14294 -4.68018,23.3374 -31.25056,40.39559 -47.54708,51.3714 -16.296522,10.9759 -29.30538,21.1574 -30.413145,37.1153 -1.107765,15.9578 14.355408,28.455 32.463595,20.622 18.10819,-7.8329 37.72103,-35.6035 36.232,-54.2228 -1.48902,-18.61928 -5.01363,-23.81559 -18.87757,-32.0837 -13.86393,-8.26812 -37.372663,-5.06119 -48.57458,9.44236 -11.201917,14.50357 -15.486185,32.94264 -22.95894,49.43144"
       id="path4324"
       d="m 214.48864,1015.3134 c 0.25379,-0.022 1.50263,4.5064 1.30484,13.3475 -0.1897,8.4796 -1.90015,22.2435 -9.4143,37.0655 -6.60477,13.0205 -18.17254,27.4789 -35.81934,37.5549 -11.13792,6.3504 -24.58115,10.7053 -39.35019,11.6748 -13.05425,0.8683 -27.17804,-0.9386 -40.707034,-6.4289 -20.325932,-7.9847 -40.104372,-21.9178 -55.177978,-41.6088 7e-6,0 -2e-5,0 -2e-5,0 C 21.721875,1049.1458 12.18423,1026.8594 9.4790245,1002.576 6.959144,980.18345 10.484944,955.88632 22.158916,934.6298 c 11.101503,-20.18747 29.957581,-37.1516 53.243075,-44.40642 8.886223,-2.75523 18.331992,-3.99636 27.769049,-3.54351 8.46668,0.40627 16.81435,2.17089 24.64538,5.32655 11.49487,4.62759 21.70797,12.37422 28.731,22.5704 7.20051,10.47175 10.52793,23.41061 8.7538,35.90525 -2.12224,13.58067 -9.76886,25.24007 -19.07864,33.85857 -9.50536,8.86024 -20.60254,15.26865 -31.06497,20.92446 -7.6716,4.2374 -14.86379,7.9483 -20.196683,13.3335 -2.711362,2.7085 -4.973032,5.7164 -6.379814,8.9724 -1.418893,3.2926 -2.100271,6.847 -1.670074,10.13 0.324335,2.7975 1.43517,5.5531 3.058753,7.9134 1.651513,2.4049 3.913338,4.4359 6.452255,5.9595 5.174573,3.1645 11.771943,3.9939 17.893943,3.1552 10.89535,-1.4945 20.54511,-8.7447 26.22485,-17.5531 6.22031,-9.6156 8.12808,-21.4457 7.05207,-32.1018 -0.66227,-6.22022 -2.26491,-12.07294 -5.00487,-17.12433 -2.91633,-5.37202 -7.01726,-9.82276 -11.84391,-12.6038 -7.17024,-4.24218 -15.99996,-4.73917 -23.43913,-3.15697 -8.654434,1.84301 -16.209512,6.60513 -22.007906,11.5804 -12.987177,11.18849 -18.788878,25.0224 -21.315479,33.5642 -2.675475,9.0452 -2.573873,14.14 -3.212875,14.1203 -0.192868,-0.01 -1.162546,-5.1399 0.827252,-14.718 1.875318,-9.027 7.107757,-23.89402 20.56226,-36.46037 5.98612,-5.612 14.054644,-11.06856 23.867328,-13.55016 8.50494,-2.15164 18.75933,-1.82069 27.83477,3.08884 6.02106,3.32985 11.11895,8.50959 14.68471,14.83427 3.3382,5.91642 5.37252,12.61117 6.22169,19.60502 1.51868,12.0271 -0.45071,25.5114 -7.55826,37.1111 -6.5859,10.7164 -17.93683,19.4375 -31.6288,21.6796 -7.72683,1.266 -16.198154,0.2083 -23.553282,-3.982 -3.573408,-2.0642 -6.776277,-4.8965 -9.264364,-8.3856 -2.451668,-3.4421 -4.119439,-7.5037 -4.704613,-11.8483 -0.638615,-5.11 0.211852,-10.2493 2.213652,-14.856 1.958706,-4.5156 4.828302,-8.4983 8.206888,-11.8686 6.663932,-6.5898 14.545559,-10.9132 22.159179,-15.07006 10.25222,-5.72025 20.67692,-11.74877 28.96921,-19.69816 7.98639,-7.71749 14.58244,-17.55381 15.98134,-28.26166 1.45183,-9.75836 -1.39528,-20.33774 -7.22923,-28.88486 -5.72042,-8.39805 -14.45564,-14.9122 -24.29195,-18.92536 -6.71258,-2.73561 -13.96583,-4.25357 -21.36565,-4.59405 -8.247543,-0.37948 -16.556382,0.70911 -24.358635,3.09605 -20.491547,6.23408 -37.508525,21.55765 -47.604453,39.61856 -10.685753,19.08906 -14.012602,41.46796 -11.893315,62.18394 2.329414,22.5003 11.013401,43.3724 23.484655,60.0485 0,0 2.4e-5,10e-5 2.4e-5,10e-5 13.829717,18.4958 32.199207,31.8453 51.143298,39.646 12.236476,5.2206 25.238546,7.1345 37.339826,6.5946 13.68359,-0.6232 26.26437,-4.3486 36.75551,-9.9781 16.68509,-8.9396 28.0663,-22.1747 34.84078,-34.2682 7.70649,-13.7493 10.1415,-26.8939 11.04102,-35.1032 0.93755,-8.5562 0.49477,-13.1476 1.03906,-13.1945 z"
       inkscape:connector-curvature="0"
       sodipodi:nodetypes="czcczzzzzzzzzc" />
    <path
       style="fill:#000000;fill-rule:nonzero;stroke:none;stroke-width:1px;stroke-linecap:butt;stroke-linejoin:miter;stroke-opacity:1"
       d="m 552.66425,928.39494 c 0.20848,-0.001 2.0304,9.0688 -0.94087,25.73085 -2.83182,15.88013 -11.00097,41.21051 -32.62241,63.32181 -18.68215,19.0873 -48.56358,35.9983 -84.72673,36.7908 -22.55602,0.5203 -47.83248,-5.7427 -67.97122,-22.087 10e-6,-10e-5 -2e-5,-10e-5 -2e-5,-10e-5 -9.30482,-7.5848 -17.33913,-17.306 -22.86211,-28.6837 -5.3082,-10.94155 -8.1887,-23.39912 -7.70468,-36.11025 0.42374,-10.63658 3.20268,-21.25256 8.11127,-30.96657 9.43986,-18.61784 26.5603,-33.4856 47.11064,-40.50876 8.1152,-2.76377 16.64279,-4.30217 25.27732,-4.62448 12.63186,-0.47153 25.21647,1.66844 36.78225,6.08495 6.86982,2.55308 13.68104,6.19356 19.28239,11.70414 2.81552,2.80429 5.20002,6.11837 6.90419,9.84921 1.72219,3.76886 2.62832,7.94618 2.50686,12.20931 -0.23636,5.74195 -2.29701,11.11073 -5.51231,15.47956 -3.23508,4.39818 -7.39874,7.82768 -11.89175,10.31126 -9.11838,4.9661 -19.06004,6.66111 -28.07802,7.79758 -9.36836,1.31803 -18.04049,2.22266 -25.5231,5.56219 -3.79423,1.6703 -7.25016,3.82541 -9.93116,6.57413 -2.71059,2.78424 -4.76326,6.13321 -5.56263,9.63451 -1.0801,4.37583 -0.27168,9.29111 1.89248,13.25787 2.22058,4.10435 6.03914,7.38885 10.31106,9.25905 4.41258,1.9419 9.49138,2.4018 14.22267,1.5941 4.90047,-0.8317 9.5494,-3.0909 13.40015,-6.1649 3.87106,-3.0865 6.98745,-7.09448 9.29603,-11.42298 4.5639,-8.51067 5.84386,-18.45343 5.0291,-27.58595 -0.8981,-10.01244 -4.40257,-19.52199 -8.6834,-27.78295 -1.43235,-2.71222 -2.83185,-5.15575 -4.59039,-7.12936 -1.82222,-2.01962 -3.9007,-3.6262 -6.13832,-4.28605 -3.17135,-1.08327 -6.9735,-0.2927 -10.00601,1.32185 -3.30718,1.76882 -5.9597,4.78825 -8.01832,7.92843 -2.24774,3.43876 -9.17644,20.05317 -10.78018,22.87926 -6.69325,11.73089 -16.81466,17.47766 -22.95848,19.86854 -6.59612,2.5669 -10.34641,2.3118 -10.38036,2.12969 -0.0993,-0.53279 3.49732,-1.03537 9.49407,-4.10839 5.60219,-2.87081 14.65107,-8.9376 20.17146,-19.86952 1.06796,-2.10064 7.34885,-19.15503 9.98813,-23.65558 2.19815,-3.757 5.33638,-7.49725 9.65191,-10.10488 4.05042,-2.4521 9.31937,-3.62281 14.55987,-2.22286 3.5837,1.05866 6.69315,3.18294 9.12203,5.8616 2.33818,2.55409 4.12227,5.39433 5.69157,8.26529 4.8276,8.68082 8.84355,18.92477 10.14516,30.15217 1.19617,10.2845 -0.0952,21.66637 -5.28546,31.97357 -2.64711,5.23202 -6.36022,10.14262 -11.13777,14.11932 -4.77462,3.9703 -10.62926,6.9026 -17.06304,8.1305 -6.24382,1.1868 -12.95428,0.6471 -19.12547,-1.9174 -6.00509,-2.5057 -11.294,-6.9796 -14.66894,-12.9089 -3.28202,-5.79915 -4.48567,-12.82932 -2.97133,-19.6314 1.25583,-5.3534 4.04882,-10.17832 7.81039,-14.0179 3.67908,-3.76041 8.08061,-6.62872 12.75993,-8.68336 9.20143,-3.99478 18.73817,-5.22452 27.97074,-6.47805 8.80681,-1.32779 17.63286,-2.71867 24.62037,-6.81133 3.44717,-1.98249 6.55531,-4.50885 8.72624,-7.57951 2.12803,-3.01338 3.54263,-6.57978 3.59822,-10.05114 0.0955,-2.58372 -0.53371,-5.29186 -1.66557,-7.81032 -1.12827,-2.50887 -2.85091,-4.84462 -4.91629,-6.92272 -4.06961,-4.16337 -9.71543,-7.02429 -15.80936,-9.40022 -10.33283,-3.90966 -21.61344,-5.81847 -32.87264,-5.41239 -7.69671,0.2776 -15.26952,1.63351 -22.41642,4.08342 -18.06285,6.16752 -33.36299,19.31026 -41.58197,35.50198 -4.31488,8.46754 -6.80581,17.73055 -7.21411,26.92933 -0.50997,10.98549 1.95993,21.95845 6.54032,31.63343 4.76757,10.07678 11.88495,18.83418 20.15682,25.73958 0,0 3e-5,0 3e-5,0 17.82043,14.9493 41.13371,20.9949 62.0751,20.9195 33.64852,-0.1632 62.25749,-15.4541 80.44689,-33.0248 21.07967,-20.34217 29.99841,-44.34696 33.73009,-59.59665 3.90903,-15.97441 3.27884,-25.0317 4.22509,-25.03841 z"
       id="path4354"
       inkscape:path-effect="#path-effect4356;#path-effect4358"
       inkscape:original-d="m 552.66425,928.39494 c -4.35815,35.37776 -7.50351,64.23926 -35.75923,86.84386 -21.78852,17.4307 -52.90877,39.1475 -82.58681,34.9078 -45.90197,-6.5574 -93.65515,-31.1946 -93.65515,-82.58678 0,-7.71845 1.69269,-22.97795 7.66269,-28.94795 24.61171,-24.61171 68.69762,-53.77217 103.02062,-36.61065 8.58236,4.29114 31.2053,17.62211 25.54233,28.94796 -15.21594,30.43196 -70.28906,23.08353 -85.99243,54.49026 -15.23007,30.46016 29.42399,30.83846 46.82757,22.13666 4.38899,-2.1945 6.9371,-9.49137 10.2169,-12.77115 21.75977,-21.75976 17.13015,-48.05374 -4.257,-58.74732 -5.38482,-2.69239 -7.38643,-15.46355 -12.77116,-12.77115 -6.87922,3.43961 -24.15752,26.71173 -31.5022,34.05642 -12.98549,12.98548 -26.94733,4.76863 -31.50219,22.98808"
       inkscape:connector-curvature="0" />
    <path
       style="fill:#000000;fill-rule:nonzero;stroke:none;stroke-width:1px;stroke-linecap:butt;stroke-linejoin:miter;stroke-opacity:1"
       inkscape:path-effect="#path-effect4384;#path-effect4386"
       inkscape:original-d="m 912.03685,756.37824 c -7.47198,27.4295 -18.50106,59.0851 -40.05907,75.1948 -21.55801,16.1098 -51.11451,8.0412 -67.97174,3.805 -33.51752,-12.3858 -65.23364,-58.4539 -68.6327,-90.677 -2.74842,-33.4607 30.14462,-84.3749 55.30278,-94.4292 25.15817,-10.0542 28.1821,-6.799 43.27309,1.4468 15.09099,8.2458 34.55471,26.2848 30.42737,46.8655 -4.12734,20.5806 -27.55912,35.6239 -41.93064,45.3032 -14.37151,9.6793 -25.84371,18.6582 -26.82062,32.731 -0.97691,14.0729 12.65969,25.0939 28.62887,18.1862 15.96917,-6.9078 23.77593,-21.2308 25.85185,-41.7176 2.07591,-20.4867 -33.21704,-86.2648 -33.21704,-86.2648 0,0 -18.75811,75.2328 -27.91788,87.7835 -9.15977,12.5507 -21.42763,14.4332 -30.17446,25.8589"
       id="path4324-0"
       d="m 912.03685,756.37824 c 0.25031,-0.0216 1.37818,3.95274 1.23326,11.7508 -0.13885,7.47111 -1.61163,19.64805 -8.24204,32.78323 -5.80726,11.4972 -16.00682,24.30396 -31.6193,33.24435 -9.83536,5.62331 -21.72125,9.4953 -34.79837,10.36755 -11.5371,0.7804 -24.0387,-0.80056 -36.03247,-5.65354 -17.94911,-7.03292 -35.46421,-19.3252 -48.83624,-36.7602 -12.02824,-15.68588 -20.50524,-35.39046 -22.92602,-56.91835 -2.2492,-19.78288 0.83049,-41.3139 11.17831,-60.20688 9.80541,-17.8764 26.50187,-32.96466 47.22689,-39.44197 14.85952,-4.61827 31.5618,-4.47862 46.59927,1.54547 7.90241,3.16105 15.27904,8.04202 21.1872,14.48486 1.61172,1.75757 3.10865,3.6255 4.47388,5.59865 6.43358,9.31629 9.44173,20.89009 7.82614,32.14381 -1.93988,12.11044 -8.74976,22.49096 -17.08862,30.17724 -8.42333,7.83078 -18.16802,13.51935 -27.37292,18.64676 -6.61387,3.77221 -12.83607,7.13244 -17.39699,11.81973 -2.30941,2.34462 -4.24777,4.92016 -5.47511,7.69033 -1.23005,2.78485 -1.87772,5.77455 -1.61507,8.55414 0,0 10e-6,3e-5 10e-6,3e-5 0.19162,2.41703 1.03742,4.83106 2.35241,6.90386 0,0 1e-5,2e-5 1e-5,2e-5 1.32823,2.10019 3.20305,3.90299 5.34107,5.22403 4.29448,2.71116 10.02208,3.3137 15.01765,2.03312 3.50741,-0.89528 6.82161,-2.7672 9.64166,-5.17796 2.876,-2.4593 5.24618,-5.577 7.11004,-8.96409 3.86561,-6.93254 5.35894,-15.24919 5.98469,-23.41045 1.12325,-15.84908 -1.57533,-31.32956 -6.70674,-45.0153 -4.53726,-15.80602 -12.27443,-29.33576 -21.68547,-39.86105 4.51648,40.06621 -12.42144,71.24447 -26.89006,87.97082 -17.56908,19.9761 -31.86272,24.33329 -31.72726,24.55729 -0.84668,-1.40008 12.60413,-7.06938 28.62166,-27.16051 14.00819,-17.24775 30.92263,-48.42851 28.9457,-87.59618 11.94345,10.26349 22.53776,23.54578 30.13156,39.24169 5.7529,14.58079 8.89609,31.18047 7.91031,48.41151 -0.46025,8.87319 -2.16889,18.3844 -6.72569,27.09377 -2.2441,4.24205 -5.24085,8.22673 -9.01325,11.56363 -3.7153,3.28688 -8.21687,5.84778 -13.22837,7.22535 -7.28551,1.99605 -15.42283,1.13912 -22.25084,-2.91906 -3.33295,-2.00867 -6.23373,-4.76942 -8.40832,-8.11211 0,0 -10e-6,-4e-5 -10e-6,-4e-5 -2.15175,-3.31401 -3.51503,-7.15069 -3.88742,-11.18009 1e-5,0 0,-4e-5 0,-4e-5 -0.38589,-4.63315 0.49589,-9.20825 2.33773,-13.29265 1.81214,-4.02658 4.37956,-7.56707 7.36392,-10.56838 5.91871,-5.89568 12.84656,-9.84881 19.45242,-13.53677 9.06436,-5.18233 18.16637,-10.45541 25.39495,-17.34702 7.01192,-6.75286 12.7829,-15.24502 14.00479,-24.43538 1.30773,-8.44114 -1.17718,-17.6293 -6.20933,-25.02274 -1.07484,-1.58291 -2.27396,-3.08828 -3.58039,-4.51132 -4.78855,-5.21595 -10.96018,-9.26324 -17.5778,-11.96962 -12.6207,-5.15237 -27.10611,-5.25478 -39.94691,-1.34813 -17.96127,5.4286 -32.87454,18.86888 -41.7198,34.64931 -9.40272,16.74859 -12.31908,36.403 -10.48056,54.56024 2.03118,19.79351 9.65933,38.13624 20.58316,52.7744 12.15379,16.28955 28.30098,28.03371 44.91998,34.90105 10.74699,4.60059 22.17065,6.29182 32.7952,5.8316 12.036,-0.53352 23.09781,-3.79674 32.31744,-8.72759 14.69554,-7.84644 24.72221,-19.48134 30.69415,-30.09474 6.81737,-12.10826 8.98539,-23.69603 9.80029,-30.91046 0.85029,-7.52774 0.48844,-11.5623 0.99562,-11.60602 z"
       inkscape:connector-curvature="0"
       sodipodi:nodetypes="czcczzzzzzzczc" />
  </g>
</svg>
