<?xml version="1.0" encoding="UTF-8" standalone="no"?>
<!-- Created with Inkscape (http://www.inkscape.org/) -->

<svg
   xmlns:dc="http://purl.org/dc/elements/1.1/"
   xmlns:cc="http://creativecommons.org/ns#"
   xmlns:rdf="http://www.w3.org/1999/02/22-rdf-syntax-ns#"
   xmlns:svg="http://www.w3.org/2000/svg"
   xmlns="http://www.w3.org/2000/svg"
   xmlns:sodipodi="http://sodipodi.sourceforge.net/DTD/sodipodi-0.dtd"
   xmlns:inkscape="http://www.inkscape.org/namespaces/inkscape"
   width="210mm"
   height="297mm"
   viewBox="0 0 744.09448819 1052.3622047"
   id="svg2"
   version="1.1"
   inkscape:version="0.91 r13725"
   sodipodi:docname="singularity_logo.svg">
  <defs
     id="defs4" />
  <sodipodi:namedview
     id="base"
     pagecolor="#ffffff"
     bordercolor="#666666"
     borderopacity="1.0"
     inkscape:pageopacity="0.0"
     inkscape:pageshadow="2"
     inkscape:zoom="1.4"
     inkscape:cx="-21.230011"
     inkscape:cy="785.26786"
     inkscape:document-units="px"
     inkscape:current-layer="layer1"
     showgrid="true"
     inkscape:window-width="1920"
     inkscape:window-height="1084"
     inkscape:window-x="0"
     inkscape:window-y="45"
     inkscape:window-maximized="1">
    <sodipodi:guide
       position="0,0"
       orientation="0,744.09449"
       id="guide4191" />
    <sodipodi:guide
       position="782.85715,1167.1429"
       orientation="-1052.3622,0"
       id="guide4193" />
    <sodipodi:guide
       position="837.14286,1094.2857"
       orientation="0,-744.09449"
       id="guide4195" />
    <sodipodi:guide
       position="-22.857143,1274.2857"
       orientation="1052.3622,0"
       id="guide4197" />
    <inkscape:grid
       type="xygrid"
       id="grid4199" />
  </sodipodi:namedview>
  <metadata
     id="metadata7">
    <rdf:RDF>
      <cc:Work
         rdf:about="">
        <dc:format>image/svg+xml</dc:format>
        <dc:type
           rdf:resource="http://purl.org/dc/dcmitype/StillImage" />
        <dc:title />
      </cc:Work>
    </rdf:RDF>
  </metadata>
  <g
     inkscape:label="Layer 1"
     inkscape:groupmode="layer"
     id="layer1">
    <text
       xml:space="preserve"
       style="font-style:normal;font-weight:normal;font-size:40px;line-height:581.00004196%;font-family:sans-serif;letter-spacing:0px;word-spacing:0px;fill:#000000;fill-opacity:1;stroke:none;stroke-width:1px;stroke-linecap:butt;stroke-linejoin:miter;stroke-opacity:1"
       x="16.390036"
       y="285.47409"
       id="text3336-5"
       sodipodi:linespacing="581.00004%"><tspan
         sodipodi:role="line"
         id="tspan3338-8"
         x="16.390036"
         y="285.47409"
         style="font-style:normal;font-variant:normal;font-weight:normal;font-stretch:normal;font-size:90px;font-family:FreeSerif;-inkscape-font-specification:FreeSerif;letter-spacing:-0.67999858px;word-spacing:-7.4000001px;fill:#666666"
         dx="0 0 0 0 0 0 -0.039999999 0.039999999"
         dy="0 0 0 0 0 0 3.5799999 -3.5799999">singu<tspan
   style="font-style:normal;font-variant:normal;font-weight:normal;font-stretch:normal;line-height:580.99999428%;font-family:FreeSerif;-inkscape-font-specification:FreeSerif;letter-spacing:-0.67999858px"
   id="tspan3680-0">l</tspan><tspan
   style="font-style:normal;font-variant:normal;font-weight:normal;font-stretch:normal;font-size:100px;font-family:FreeSerif;-inkscape-font-specification:FreeSerif;letter-spacing:-0.67999858px;word-spacing:-7.4000001px;fill:#666666"
   id="tspan3346-4"
   rotate="345 0"
   dy="12.20999">∴</tspan><tspan
   style="font-style:normal;font-variant:normal;font-weight:normal;font-stretch:normal;font-family:FreeSerif;-inkscape-font-specification:FreeSerif;letter-spacing:-0.67999858px"
   id="tspan3998-7"
   dy="-12.20999">rity</tspan></tspan></text>
    <path
       inkscape:connector-curvature="0"
       id="path4158"
       style="font-style:normal;font-variant:normal;font-weight:normal;font-stretch:normal;font-size:90px;line-height:581.00004196%;font-family:FreeSerif;-inkscape-font-specification:FreeSerif;letter-spacing:-0.67999858px;word-spacing:-7.4000001px;fill:#333333;fill-opacity:1;stroke:none;stroke-width:1px;stroke-linecap:butt;stroke-linejoin:miter;stroke-opacity:1"
       d="m 40.857883,348.46879 q 0.09,0 1.44,-0.9 l 0.99,0 0.36,12.24 -1.35,0 q -1.53,-6.03 -3.78,-8.55 -2.25,-2.52 -6.12,-2.52 -3.06,0 -5.04,1.71 -1.89,1.71 -1.89,4.41 0,3.87 3.87,6.12 l 9.72,5.76 q 4.05,2.43 5.76,4.95 1.8,2.43 1.8,5.76 0,4.68 -3.78,8.1 -3.69,3.42 -8.91,3.42 -2.25,0 -6.03,-0.81 -3.78,-0.81 -4.68,-0.81 -1.35,0 -2.07,1.08 l -1.17,0 0,-14.04 1.44,0 q 1.44,6.3 3.42,8.91 2.88,3.69 8.01,3.69 3.42,0 5.4,-1.71 2.07,-1.8 2.07,-4.77 0,-4.05 -4.68,-6.75 l -5.22,-2.97 q -5.76,-3.24 -8.19,-6.21 -2.34,-2.97 -2.34,-6.75 0,-4.86 3.42,-7.92 3.51,-3.15 8.82,-3.15 2.97,0 5.58,0.9 2.61,0.81 3.15,0.81 z" />
    <path
       inkscape:connector-curvature="0"
       id="path4160"
       style="font-style:normal;font-variant:normal;font-weight:normal;font-stretch:normal;font-size:90px;line-height:581.00004196%;font-family:FreeSerif;-inkscape-font-specification:FreeSerif;letter-spacing:-0.67999858px;word-spacing:-7.4000001px;fill:#333333;fill-opacity:1;stroke:none;stroke-width:1px;stroke-linecap:butt;stroke-linejoin:miter;stroke-opacity:1"
       d="m 53.278509,352.69879 q -1.98,0 -3.78,0.27 l 0,-1.35 q 6.3,-1.8 13.95,-4.95 l 0.36,0.27 0,31.95 q 0,4.86 1.08,6.21 1.17,1.26 5.58,1.62 l 0,1.35 -21.33,0 0,-1.35 q 4.68,-0.27 5.85,-1.62 1.26,-1.35 1.26,-6.21 l 0,-20.88 q 0,-2.97 -0.72,-4.14 -0.63,-1.17 -2.25,-1.17 z m 5.94,-26.1 q 1.98,0 3.33,1.35 1.35,1.35 1.35,3.24 0,1.98 -1.35,3.33 -1.35,1.26 -3.33,1.26 -1.89,0 -3.24,-1.35 -1.26,-1.35 -1.26,-3.24 0,-1.89 1.35,-3.24 1.35,-1.35 3.15,-1.35 z" />
    <path
       inkscape:connector-curvature="0"
       id="path4162"
       style="font-style:normal;font-variant:normal;font-weight:normal;font-stretch:normal;font-size:90px;line-height:581.00004196%;font-family:FreeSerif;-inkscape-font-specification:FreeSerif;letter-spacing:-0.67999858px;word-spacing:-7.4000001px;fill:#333333;fill-opacity:1;stroke:none;stroke-width:1px;stroke-linecap:butt;stroke-linejoin:miter;stroke-opacity:1"
       d="m 72.000542,352.24879 0,-1.53 q 6.66,-1.98 12.42,-4.05 l 0.63,0.18 0,7.11 q 4.59,-4.32 7.2,-5.76 2.699998,-1.53 5.849998,-1.53 4.95,0 7.74,3.6 2.88,3.51 2.88,9.9 l 0,20.61 q 0,3.33 1.08,4.5 1.08,1.08 4.41,1.44 l 0,1.35 -18.72,0 0,-1.35 q 3.42,-0.27 4.5,-1.8 1.17,-1.53 1.17,-5.76 l 0,-18.81 q 0,-8.73 -6.57,-8.73 -2.249998,0 -4.139998,1.08 -1.89,0.99 -5.13,4.05 l 0,25.29 q 0,2.43 1.26,3.42 1.26,0.99 4.68,1.26 l 0,1.35 -19.08,0 0,-1.35 q 3.42,-0.27 4.5,-1.53 1.08,-1.35 1.08,-5.22 l 0,-22.32 q 0,-3.33 -0.72,-4.5 -0.72,-1.26 -2.61,-1.26 -1.71,0 -2.43,0.36 z" />
    <path
       inkscape:connector-curvature="0"
       id="path4164"
       style="font-style:normal;font-variant:normal;font-weight:normal;font-stretch:normal;font-size:90px;line-height:581.00004196%;font-family:FreeSerif;-inkscape-font-specification:FreeSerif;letter-spacing:-0.67999858px;word-spacing:-7.4000001px;fill:#333333;fill-opacity:1;stroke:none;stroke-width:1px;stroke-linecap:butt;stroke-linejoin:miter;stroke-opacity:1"
       d="m 119.76586,383.20879 q 0,-1.71 1.17,-3.15 1.26,-1.44 6.84,-6.66 -4.5,-2.25 -6.48,-5.04 -1.89,-2.79 -1.89,-7.02 0,-6.12 4.32,-10.35 4.41,-4.32 10.71,-4.32 3.51,0 7.47,1.53 4.05,1.44 6.66,1.44 l 6.93,0 0,3.51 -7.47,0 q 1.71,3.87 1.71,7.56 0,6.21 -4.23,10.08 -4.14,3.87 -9.81,3.87 -1.08,0 -5.13,-0.45 -1.8,0.54 -3.6,2.43 -1.8,1.89 -1.8,3.24 0,2.16 7.02,2.43 l 11.61,0.54 q 4.95,0.18 7.92,2.79 2.97,2.61 2.97,6.84 0,6.48 -7.47,10.8 -7.38,4.41 -15.93,4.41 -6.39,0 -10.98,-2.61 -4.59,-2.52 -4.59,-6.12 0,-2.52 1.98,-5.04 2.07,-2.43 6.84,-5.94 -2.79,-1.35 -3.78,-2.34 -0.99,-0.99 -0.99,-2.43 z m 6.66,5.04 q -2.79,3.33 -3.6,4.77 -0.81,1.44 -0.81,2.97 0,2.97 3.6,4.77 3.6,1.8 9.54,1.8 7.65,0 12.33,-2.43 4.68,-2.43 4.68,-6.3 0,-2.43 -2.52,-3.42 -2.52,-0.99 -8.64,-0.99 -9.09,0 -14.58,-1.17 z m 16.38,-24.03 q 0,-1.53 -0.36,-3.69 -0.36,-2.16 -1.26,-4.86 -0.9,-2.79 -2.88,-4.59 -1.98,-1.89 -4.77,-1.89 -3.15,0 -4.95,2.25 -1.71,2.25 -1.71,6.21 0,7.74 2.88,11.25 2.88,3.51 6.3,3.51 3.15,0 4.95,-2.16 1.8,-2.25 1.8,-6.03 z" />
    <path
       inkscape:connector-curvature="0"
       id="path4166"
       style="font-style:normal;font-variant:normal;font-weight:normal;font-stretch:normal;font-size:90px;line-height:581.00004196%;font-family:FreeSerif;-inkscape-font-specification:FreeSerif;letter-spacing:-0.67999858px;word-spacing:-7.4000001px;fill:#333333;fill-opacity:1;stroke:none;stroke-width:1px;stroke-linecap:butt;stroke-linejoin:miter;stroke-opacity:1"
       d="m 198.89757,383.56879 0,1.26 q -7.02,1.89 -12.33,4.05 l -0.36,-0.18 0,-7.47 q -0.27,0.27 -1.62,1.62 -1.26,1.35 -1.8,1.89 -0.54,0.45 -1.89,1.53 -1.26,0.99 -2.25,1.44 -0.99,0.45 -2.52,0.81 -1.53,0.45 -3.06,0.45 -4.95,0 -7.92,-3.15 -2.97,-3.24 -2.97,-8.55 l 0,-22.68 q 0,-3.15 -1.17,-4.32 -1.17,-1.26 -4.41,-1.44 l 0,-1.26 13.14,0 0,29.34 q 0,2.79 1.89,4.86 1.89,1.98 4.5,1.98 0.99,0 2.34,-0.27 1.35,-0.27 3.06,-0.99 1.8,-0.81 2.97,-2.43 1.26,-1.71 1.26,-4.14 l 0,-21.15 q 0,-3.33 -1.26,-4.41 -1.17,-1.08 -5.4,-1.26 l 0,-1.53 14.22,0 0,30.87 q 0,3.15 0.99,4.14 0.99,0.99 4.14,0.99 l 0.45,0 z" />
    <path
       inkscape:connector-curvature="0"
       id="path4168"
       style="font-style:normal;font-variant:normal;font-weight:normal;font-stretch:normal;font-size:medium;line-height:580.99999428%;font-family:FreeSerif;-inkscape-font-specification:FreeSerif;letter-spacing:-0.67999858px;word-spacing:0px;fill:#333333;fill-opacity:1;stroke:none;stroke-width:1px;stroke-linecap:butt;stroke-linejoin:miter;stroke-opacity:1"
       d="m 200.03867,331.99879 0,-1.44 q 8.91,-2.16 14.31,-3.96 l 0.36,0.18 0,53.73 q 0,3.69 1.17,4.86 1.26,1.08 5.58,1.35 l 0,1.35 -21.24,0 0,-1.35 q 4.23,-0.36 5.58,-1.62 1.35,-1.26 1.35,-4.86 l 0,-42.93 q 0,-3.15 -0.81,-4.32 -0.81,-1.17 -2.97,-1.17 -1.8,0 -3.33,0.18 z" />
    <path
       inkscape:connector-curvature="0"
       id="path4170"
       style="font-style:normal;font-variant:normal;font-weight:normal;font-stretch:normal;font-size:100px;line-height:581.00004196%;font-family:FreeSerif;-inkscape-font-specification:FreeSerif;letter-spacing:-0.67999858px;word-spacing:-7.4000001px;fill:#333333;fill-opacity:1;stroke:none;stroke-width:1px;stroke-linecap:butt;stroke-linejoin:miter;stroke-opacity:1"
       d="m 225.4649,392.0168 q 2.02844,-0.54352 3.86556,0.51714 1.83712,1.06066 2.35476,2.99252 0.51763,1.93185 -0.56891,3.67237 -1.06066,1.83712 -3.0891,2.38064 -1.93186,0.51764 -3.67238,-0.56891 -1.71464,-0.98995 -2.25816,-3.01839 -0.49176,-1.83526 0.47231,-3.64649 1.06066,-1.83712 2.89592,-2.32888 z m 38.05748,-10.19746 q 2.02844,-0.54352 3.86556,0.51714 1.83712,1.06066 2.35476,2.99251 0.51763,1.93186 -0.56891,3.67238 -1.06066,1.83712 -3.0891,2.38064 -1.93186,0.51763 -3.67238,-0.56891 -1.71464,-0.98995 -2.25816,-3.01839 -0.49176,-1.83526 0.47231,-3.6465 1.06066,-1.83711 2.89592,-2.32887 z m -29.39351,-32.81039 q 2.02845,-0.54352 3.86557,0.51714 1.83711,1.06066 2.35475,2.99251 0.51764,1.93185 -0.54302,3.76897 -1.08654,1.74052 -3.11499,2.28404 -1.93185,0.51764 -3.64649,-0.47231 -1.74053,-1.08654 -2.28405,-3.11498 -0.49175,-1.83526 0.47231,-3.6465 1.06067,-1.83712 2.89592,-2.32887 z" />
    <path
       inkscape:connector-curvature="0"
       id="path4172"
       style="font-style:normal;font-variant:normal;font-weight:normal;font-stretch:normal;font-size:medium;line-height:581.00004196%;font-family:FreeSerif;-inkscape-font-specification:FreeSerif;letter-spacing:-0.67999858px;word-spacing:0px;fill:#333333;fill-opacity:1;stroke:none;stroke-width:1px;stroke-linecap:butt;stroke-linejoin:miter;stroke-opacity:1"
       d="m 300.51712,355.48879 q -1.35,0 -3.33,-1.53 -1.98,-1.62 -2.61,-1.62 -1.8,0 -4.05,2.61 -2.25,2.61 -2.25,4.77 l 0,20.25 q 0,3.87 1.53,5.22 1.53,1.35 6.12,1.53 l 0,1.35 -21.6,0 0,-1.35 q 4.32,-0.81 5.31,-1.8 1.08,-0.99 1.08,-4.41 l 0,-22.5 q 0,-2.97 -0.72,-4.14 -0.63,-1.26 -2.34,-1.26 -1.44,0 -3.15,0.36 l 0,-1.44 q 7.2,-2.34 13.32,-4.86 l 0.45,0.18 0,8.28 q 3.33,-4.77 5.67,-6.57 2.34,-1.89 5.13,-1.89 2.34,0 3.6,1.26 1.35,1.26 1.35,3.51 0,1.89 -0.99,2.97 -0.9,1.08 -2.52,1.08 z" />
    <path
       inkscape:connector-curvature="0"
       id="path4174"
       style="font-style:normal;font-variant:normal;font-weight:normal;font-stretch:normal;font-size:medium;line-height:581.00004196%;font-family:FreeSerif;-inkscape-font-specification:FreeSerif;letter-spacing:-0.67999858px;word-spacing:0px;fill:#333333;fill-opacity:1;stroke:none;stroke-width:1px;stroke-linecap:butt;stroke-linejoin:miter;stroke-opacity:1"
       d="m 309.44038,352.69879 q -1.98,0 -3.78,0.27 l 0,-1.35 q 6.3,-1.8 13.95,-4.95 l 0.36,0.27 0,31.95 q 0,4.86 1.08,6.21 1.17,1.26 5.58,1.62 l 0,1.35 -21.33,0 0,-1.35 q 4.68,-0.27 5.85,-1.62 1.26,-1.35 1.26,-6.21 l 0,-20.88 q 0,-2.97 -0.72,-4.14 -0.63,-1.17 -2.25,-1.17 z m 5.94,-26.1 q 1.98,0 3.33,1.35 1.35,1.35 1.35,3.24 0,1.98 -1.35,3.33 -1.35,1.26 -3.33,1.26 -1.89,0 -3.24,-1.35 -1.26,-1.35 -1.26,-3.24 0,-1.89 1.35,-3.24 1.35,-1.35 3.15,-1.35 z" />
    <path
       inkscape:connector-curvature="0"
       id="path4176"
       style="font-style:normal;font-variant:normal;font-weight:normal;font-stretch:normal;font-size:medium;line-height:581.00004196%;font-family:FreeSerif;-inkscape-font-specification:FreeSerif;letter-spacing:-0.67999858px;word-spacing:0px;fill:#333333;fill-opacity:1;stroke:none;stroke-width:1px;stroke-linecap:butt;stroke-linejoin:miter;stroke-opacity:1"
       d="m 349.69351,347.56879 0,2.88 -9.09,0 0,25.74 q 0,4.23 1.08,6.21 1.08,1.89 3.6,1.89 2.79,0 5.4,-3.15 l 1.17,0.99 q -4.32,6.84 -10.8,6.84 -8.01,0 -8.01,-11.43 l 0,-27.09 -4.77,0 q -0.36,-0.27 -0.36,-0.63 0,-0.45 0.27,-0.72 0.27,-0.27 0.99,-0.72 0.81,-0.54 1.89,-1.35 1.08,-0.9 2.97,-3.15 1.89,-2.25 4.14,-5.4 1.44,-2.07 1.8,-2.52 0.63,0 0.63,1.17 l 0,10.44 9.09,0 z" />
    <path
       inkscape:connector-curvature="0"
       id="path4178"
       style="font-style:normal;font-variant:normal;font-weight:normal;font-stretch:normal;font-size:medium;line-height:581.00004196%;font-family:FreeSerif;-inkscape-font-specification:FreeSerif;letter-spacing:-0.67999858px;word-spacing:0px;fill:#333333;fill-opacity:1;stroke:none;stroke-width:1px;stroke-linecap:butt;stroke-linejoin:miter;stroke-opacity:1"
       d="m 363.9718,400.12879 q 2.52,0 5.31,-5.58 2.79,-5.58 2.79,-8.19 0,-1.17 -3.96,-9.09 l -11.88,-25.56 q -1.08,-2.34 -4.59,-2.88 l 0,-1.26 18.54,0 0,1.35 q -2.88,0.09 -4.05,0.63 -1.17,0.54 -1.17,1.8 0,1.35 0.9,3.42 l 10.35,22.77 8.73,-24.84 q 0.36,-0.81 0.36,-1.53 0,-2.25 -4.32,-2.25 l 0,-1.35 12.15,0 0,1.35 q -1.62,0.18 -2.61,1.08 -0.9,0.81 -1.71,2.97 l -13.86,36.72 q -3.6,9.72 -7.2,13.86 -3.51,4.14 -8.01,4.14 -2.88,0 -4.77,-1.53 -1.89,-1.44 -1.89,-3.69 0,-1.62 1.17,-2.79 1.17,-1.17 2.7,-1.17 1.98,0 4.23,0.81 2.25,0.81 2.79,0.81 z" />
    <path
       inkscape:connector-curvature="0"
       id="path4158-7"
       style="font-style:normal;font-variant:normal;font-weight:normal;font-stretch:normal;font-size:90px;line-height:581.00004196%;font-family:FreeSerif;-inkscape-font-specification:FreeSerif;letter-spacing:-0.67999858px;word-spacing:-7.4000001px;fill:#808080;fill-opacity:1;stroke:none;stroke-width:1px;stroke-linecap:butt;stroke-linejoin:miter;stroke-opacity:1"
       d="m 41.572169,456.32593 q 0.09,0 1.44,-0.9 l 0.99,0 0.36,12.24 -1.35,0 q -1.53,-6.03 -3.78,-8.55 -2.25,-2.52 -6.12,-2.52 -3.06,0 -5.04,1.71 -1.89,1.71 -1.89,4.41 0,3.87 3.87,6.12 l 9.72,5.76 q 4.05,2.43 5.76,4.95 1.8,2.43 1.8,5.76 0,4.68 -3.78,8.1 -3.69,3.42 -8.91,3.42 -2.25,0 -6.03,-0.81 -3.78,-0.81 -4.68,-0.81 -1.35,0 -2.07,1.08 l -1.17,0 0,-14.04 1.44,0 q 1.44,6.3 3.42,8.91 2.88,3.69 8.01,3.69 3.42,0 5.4,-1.71 2.07,-1.8 2.07,-4.77 0,-4.05 -4.68,-6.75 l -5.22,-2.97 q -5.76,-3.24 -8.19,-6.21 -2.34,-2.97 -2.34,-6.75 0,-4.86 3.42,-7.92 3.51,-3.15 8.82,-3.15 2.97,0 5.58,0.9 2.61,0.81 3.15,0.81 z" />
    <path
       inkscape:connector-curvature="0"
       id="path4160-7"
       style="font-style:normal;font-variant:normal;font-weight:normal;font-stretch:normal;font-size:90px;line-height:581.00004196%;font-family:FreeSerif;-inkscape-font-specification:FreeSerif;letter-spacing:-0.67999858px;word-spacing:-7.4000001px;fill:#808080;fill-opacity:1;stroke:none;stroke-width:1px;stroke-linecap:butt;stroke-linejoin:miter;stroke-opacity:1"
       d="m 53.992795,460.55593 q -1.98,0 -3.78,0.27 l 0,-1.35 q 6.3,-1.8 13.95,-4.95 l 0.36,0.27 0,31.95 q 0,4.86 1.08,6.21 1.17,1.26 5.580001,1.62 l 0,1.35 -21.330001,0 0,-1.35 q 4.68,-0.27 5.85,-1.62 1.26,-1.35 1.26,-6.21 l 0,-20.88 q 0,-2.97 -0.72,-4.14 -0.63,-1.17 -2.25,-1.17 z m 5.94,-26.1 q 1.98,0 3.33,1.35 1.35,1.35 1.35,3.24 0,1.98 -1.35,3.33 -1.35,1.26 -3.33,1.26 -1.89,0 -3.24,-1.35 -1.26,-1.35 -1.26,-3.24 0,-1.89 1.35,-3.24 1.35,-1.35 3.15,-1.35 z" />
    <path
       inkscape:connector-curvature="0"
       id="path4162-7"
       style="font-style:normal;font-variant:normal;font-weight:normal;font-stretch:normal;font-size:90px;line-height:581.00004196%;font-family:FreeSerif;-inkscape-font-specification:FreeSerif;letter-spacing:-0.67999858px;word-spacing:-7.4000001px;fill:#808080;fill-opacity:1;stroke:none;stroke-width:1px;stroke-linecap:butt;stroke-linejoin:miter;stroke-opacity:1"
       d="m 72.714826,460.10593 0,-1.53 q 6.66,-1.98 12.42,-4.05 l 0.63,0.18 0,7.11 q 4.59,-4.32 7.2,-5.76 2.7,-1.53 5.85,-1.53 4.950004,0 7.740004,3.6 2.88,3.51 2.88,9.9 l 0,20.61 q 0,3.33 1.08,4.5 1.08,1.08 4.41,1.44 l 0,1.35 -18.720004,0 0,-1.35 q 3.42,-0.27 4.500004,-1.8 1.17,-1.53 1.17,-5.76 l 0,-18.81 q 0,-8.73 -6.570004,-8.73 -2.25,0 -4.14,1.08 -1.89,0.99 -5.13,4.05 l 0,25.29 q 0,2.43 1.26,3.42 1.26,0.99 4.68,1.26 l 0,1.35 -19.08,0 0,-1.35 q 3.42,-0.27 4.5,-1.53 1.08,-1.35 1.08,-5.22 l 0,-22.32 q 0,-3.33 -0.72,-4.5 -0.72,-1.26 -2.61,-1.26 -1.71,0 -2.43,0.36 z" />
    <path
       inkscape:connector-curvature="0"
       id="path4164-5"
       style="font-style:normal;font-variant:normal;font-weight:normal;font-stretch:normal;font-size:90px;line-height:581.00004196%;font-family:FreeSerif;-inkscape-font-specification:FreeSerif;letter-spacing:-0.67999858px;word-spacing:-7.4000001px;fill:#808080;fill-opacity:1;stroke:none;stroke-width:1px;stroke-linecap:butt;stroke-linejoin:miter;stroke-opacity:1"
       d="m 120.48015,491.06593 q 0,-1.71 1.17,-3.15 1.26,-1.44 6.84,-6.66 -4.5,-2.25 -6.48,-5.04 -1.89,-2.79 -1.89,-7.02 0,-6.12 4.32,-10.35 4.41,-4.32 10.71,-4.32 3.51,0 7.47,1.53 4.05,1.44 6.66,1.44 l 6.93,0 0,3.51 -7.47,0 q 1.71,3.87 1.71,7.56 0,6.21 -4.23,10.08 -4.14,3.87 -9.81,3.87 -1.08,0 -5.13,-0.45 -1.8,0.54 -3.6,2.43 -1.8,1.89 -1.8,3.24 0,2.16 7.02,2.43 l 11.61,0.54 q 4.95,0.18 7.92,2.79 2.97,2.61 2.97,6.84 0,6.48 -7.47,10.8 -7.38,4.41 -15.93,4.41 -6.39,0 -10.98,-2.61 -4.59,-2.52 -4.59,-6.12 0,-2.52 1.98,-5.04 2.07,-2.43 6.84,-5.94 -2.79,-1.35 -3.78,-2.34 -0.99,-0.99 -0.99,-2.43 z m 6.66,5.04 q -2.79,3.33 -3.6,4.77 -0.81,1.44 -0.81,2.97 0,2.97 3.6,4.77 3.6,1.8 9.54,1.8 7.65,0 12.33,-2.43 4.68,-2.43 4.68,-6.3 0,-2.43 -2.52,-3.42 -2.52,-0.99 -8.64,-0.99 -9.09,0 -14.58,-1.17 z m 16.38,-24.03 q 0,-1.53 -0.36,-3.69 -0.36,-2.16 -1.26,-4.86 -0.9,-2.79 -2.88,-4.59 -1.98,-1.89 -4.77,-1.89 -3.15,0 -4.95,2.25 -1.71,2.25 -1.71,6.21 0,7.74 2.88,11.25 2.88,3.51 6.3,3.51 3.15,0 4.95,-2.16 1.8,-2.25 1.8,-6.03 z" />
    <path
       inkscape:connector-curvature="0"
       id="path4166-5"
       style="font-style:normal;font-variant:normal;font-weight:normal;font-stretch:normal;font-size:90px;line-height:581.00004196%;font-family:FreeSerif;-inkscape-font-specification:FreeSerif;letter-spacing:-0.67999858px;word-spacing:-7.4000001px;fill:#808080;fill-opacity:1;stroke:none;stroke-width:1px;stroke-linecap:butt;stroke-linejoin:miter;stroke-opacity:1"
       d="m 199.61186,491.42593 0,1.26 q -7.02,1.89 -12.33,4.05 l -0.36,-0.18 0,-7.47 q -0.27,0.27 -1.62,1.62 -1.26,1.35 -1.8,1.89 -0.54,0.45 -1.89,1.53 -1.26,0.99 -2.25,1.44 -0.99,0.45 -2.52,0.81 -1.53,0.45 -3.06,0.45 -4.95,0 -7.92,-3.15 -2.97,-3.24 -2.97,-8.55 l 0,-22.68 q 0,-3.15 -1.17,-4.32 -1.17,-1.26 -4.41,-1.44 l 0,-1.26 13.14,0 0,29.34 q 0,2.79 1.89,4.86 1.89,1.98 4.5,1.98 0.99,0 2.34,-0.27 1.35,-0.27 3.06,-0.99 1.8,-0.81 2.97,-2.43 1.26,-1.71 1.26,-4.14 l 0,-21.15 q 0,-3.33 -1.26,-4.41 -1.17,-1.08 -5.4,-1.26 l 0,-1.53 14.22,0 0,30.87 q 0,3.15 0.99,4.14 0.99,0.99 4.14,0.99 l 0.45,0 z" />
    <path
       inkscape:connector-curvature="0"
       id="path4168-4"
       style="font-style:normal;font-variant:normal;font-weight:normal;font-stretch:normal;font-size:medium;line-height:580.99999428%;font-family:FreeSerif;-inkscape-font-specification:FreeSerif;letter-spacing:-0.67999858px;word-spacing:0px;fill:#808080;fill-opacity:1;stroke:none;stroke-width:1px;stroke-linecap:butt;stroke-linejoin:miter;stroke-opacity:1"
       d="m 200.75296,439.85593 0,-1.44 q 8.91,-2.16 14.31,-3.96 l 0.36,0.18 0,53.73 q 0,3.69 1.17,4.86 1.26,1.08 5.58,1.35 l 0,1.35 -21.24,0 0,-1.35 q 4.23,-0.36 5.58,-1.62 1.35,-1.26 1.35,-4.86 l 0,-42.93 q 0,-3.15 -0.81,-4.32 -0.81,-1.17 -2.97,-1.17 -1.8,0 -3.33,0.18 z" />
    <path
       inkscape:connector-curvature="0"
       id="path4170-5"
       style="font-style:normal;font-variant:normal;font-weight:normal;font-stretch:normal;font-size:100px;line-height:581.00004196%;font-family:FreeSerif;-inkscape-font-specification:FreeSerif;letter-spacing:-0.67999858px;word-spacing:-7.4000001px;fill:#808080;fill-opacity:1;stroke:none;stroke-width:1px;stroke-linecap:butt;stroke-linejoin:miter;stroke-opacity:1"
       d="m 228.36334,482.807 q 2.0999,-0.0197 3.61394,1.46609 1.51403,1.48584 1.53283,3.48576 0.0188,1.99991 -1.46798,3.41394 -1.48583,1.51404 -3.58574,1.53377 -1.99992,0.0188 -3.41395,-1.46798 -1.41309,-1.38678 -1.43283,-3.48668 -0.0179,-1.89992 1.36798,-3.41301 1.48583,-1.51403 3.38575,-1.53189 z m 39.39826,-0.37032 q 2.0999,-0.0197 3.61394,1.46609 1.51403,1.48584 1.53283,3.48575 0.0188,1.99992 -1.46798,3.41395 -1.48584,1.51404 -3.58574,1.53378 -1.99992,0.0188 -3.41395,-1.46799 -1.41309,-1.38678 -1.43283,-3.48668 -0.0179,-1.89992 1.36798,-3.41301 1.48583,-1.51403 3.38575,-1.53189 z m -20.26851,-39.11122 q 2.09991,-0.0197 3.61395,1.46609 1.51402,1.48584 1.53283,3.48575 0.0188,1.99991 -1.46704,3.51394 -1.48677,1.41404 -3.58668,1.43377 -1.99991,0.0188 -3.41301,-1.36797 -1.41404,-1.48678 -1.43378,-3.58668 -0.0179,-1.89992 1.36798,-3.41302 1.48585,-1.51403 3.38575,-1.53188 z" />
    <path
       inkscape:connector-curvature="0"
       id="path4172-7"
       style="font-style:normal;font-variant:normal;font-weight:normal;font-stretch:normal;font-size:medium;line-height:581.00004196%;font-family:FreeSerif;-inkscape-font-specification:FreeSerif;letter-spacing:-0.67999858px;word-spacing:0px;fill:#808080;fill-opacity:1;stroke:none;stroke-width:1px;stroke-linecap:butt;stroke-linejoin:miter;stroke-opacity:1"
       d="m 301.23141,463.34593 q -1.35,0 -3.33,-1.53 -1.98,-1.62 -2.61,-1.62 -1.8,0 -4.05,2.61 -2.25,2.61 -2.25,4.77 l 0,20.25 q 0,3.87 1.53,5.22 1.53,1.35 6.12,1.53 l 0,1.35 -21.6,0 0,-1.35 q 4.32,-0.81 5.31,-1.8 1.08,-0.99 1.08,-4.41 l 0,-22.5 q 0,-2.97 -0.72,-4.14 -0.63,-1.26 -2.34,-1.26 -1.44,0 -3.15,0.36 l 0,-1.44 q 7.2,-2.34 13.32,-4.86 l 0.45,0.18 0,8.28 q 3.33,-4.77 5.67,-6.57 2.34,-1.89 5.13,-1.89 2.34,0 3.6,1.26 1.35,1.26 1.35,3.51 0,1.89 -0.99,2.97 -0.9,1.08 -2.52,1.08 z" />
    <path
       inkscape:connector-curvature="0"
       id="path4174-4"
       style="font-style:normal;font-variant:normal;font-weight:normal;font-stretch:normal;font-size:medium;line-height:581.00004196%;font-family:FreeSerif;-inkscape-font-specification:FreeSerif;letter-spacing:-0.67999858px;word-spacing:0px;fill:#808080;fill-opacity:1;stroke:none;stroke-width:1px;stroke-linecap:butt;stroke-linejoin:miter;stroke-opacity:1"
       d="m 310.15467,460.55593 q -1.98,0 -3.78,0.27 l 0,-1.35 q 6.3,-1.8 13.95,-4.95 l 0.36,0.27 0,31.95 q 0,4.86 1.08,6.21 1.17,1.26 5.58,1.62 l 0,1.35 -21.33,0 0,-1.35 q 4.68,-0.27 5.85,-1.62 1.26,-1.35 1.26,-6.21 l 0,-20.88 q 0,-2.97 -0.72,-4.14 -0.63,-1.17 -2.25,-1.17 z m 5.94,-26.1 q 1.98,0 3.33,1.35 1.35,1.35 1.35,3.24 0,1.98 -1.35,3.33 -1.35,1.26 -3.33,1.26 -1.89,0 -3.24,-1.35 -1.26,-1.35 -1.26,-3.24 0,-1.89 1.35,-3.24 1.35,-1.35 3.15,-1.35 z" />
    <path
       inkscape:connector-curvature="0"
       id="path4176-8"
       style="font-style:normal;font-variant:normal;font-weight:normal;font-stretch:normal;font-size:medium;line-height:581.00004196%;font-family:FreeSerif;-inkscape-font-specification:FreeSerif;letter-spacing:-0.67999858px;word-spacing:0px;fill:#808080;fill-opacity:1;stroke:none;stroke-width:1px;stroke-linecap:butt;stroke-linejoin:miter;stroke-opacity:1"
       d="m 350.4078,455.42593 0,2.88 -9.09,0 0,25.74 q 0,4.23 1.08,6.21 1.08,1.89 3.6,1.89 2.79,0 5.4,-3.15 l 1.17,0.99 q -4.32,6.84 -10.8,6.84 -8.01,0 -8.01,-11.43 l 0,-27.09 -4.77,0 q -0.36,-0.27 -0.36,-0.63 0,-0.45 0.27,-0.72 0.27,-0.27 0.99,-0.72 0.81,-0.54 1.89,-1.35 1.08,-0.9 2.97,-3.15 1.89,-2.25 4.14,-5.4 1.44,-2.07 1.8,-2.52 0.63,0 0.63,1.17 l 0,10.44 9.09,0 z" />
    <path
       inkscape:connector-curvature="0"
       id="path4178-2"
       style="font-style:normal;font-variant:normal;font-weight:normal;font-stretch:normal;font-size:medium;line-height:581.00004196%;font-family:FreeSerif;-inkscape-font-specification:FreeSerif;letter-spacing:-0.67999858px;word-spacing:0px;fill:#808080;fill-opacity:1;stroke:none;stroke-width:1px;stroke-linecap:butt;stroke-linejoin:miter;stroke-opacity:1"
       d="m 364.68609,507.98593 q 2.52,0 5.31,-5.58 2.79,-5.58 2.79,-8.19 0,-1.17 -3.96,-9.09 l -11.88,-25.56 q -1.08,-2.34 -4.59,-2.88 l 0,-1.26 18.54,0 0,1.35 q -2.88,0.09 -4.05,0.63 -1.17,0.54 -1.17,1.8 0,1.35 0.9,3.42 l 10.35,22.77 8.73,-24.84 q 0.36,-0.81 0.36,-1.53 0,-2.25 -4.32,-2.25 l 0,-1.35 12.15,0 0,1.35 q -1.62,0.18 -2.61,1.08 -0.9,0.81 -1.71,2.97 l -13.86,36.72 q -3.6,9.72 -7.2,13.86 -3.51,4.14 -8.01,4.14 -2.88,0 -4.77,-1.53 -1.89,-1.44 -1.89,-3.69 0,-1.62 1.17,-2.79 1.17,-1.17 2.7,-1.17 1.98,0 4.23,0.81 2.25,0.81 2.79,0.81 z" />
  </g>
</svg>
